<svg width="162" height="131" viewBox="0 0 162 131" fill="none" xmlns="http://www.w3.org/2000/svg">
<rect width="162" height="131" rx="12" fill="#1EC624"/>
<path d="M68.4188 51.4531H73.0906C72.9969 52.9844 72.575 54.3438 71.825 55.5312C71.0854 56.7188 70.049 57.6458 68.7156 58.3125C67.3927 58.9792 65.799 59.3125 63.9344 59.3125C62.476 59.3125 61.1688 59.0625 60.0125 58.5625C58.8563 58.0521 57.8667 57.3229 57.0438 56.375C56.2313 55.4271 55.6115 54.2812 55.1844 52.9375C54.7573 51.5938 54.5438 50.0885 54.5438 48.4219V46.8438C54.5438 45.1771 54.7625 43.6719 55.2 42.3281C55.6479 40.974 56.2833 39.8229 57.1063 38.875C57.9396 37.9271 58.9344 37.1979 60.0906 36.6875C61.2469 36.1771 62.5385 35.9219 63.9656 35.9219C65.8615 35.9219 67.4604 36.2656 68.7625 36.9531C70.075 37.6406 71.0906 38.5885 71.8094 39.7969C72.5385 41.0052 72.976 42.3802 73.1219 43.9219H68.4344C68.3823 43.0052 68.2 42.2292 67.8875 41.5938C67.575 40.9479 67.101 40.4635 66.4656 40.1406C65.8406 39.8073 65.0073 39.6406 63.9656 39.6406C63.1844 39.6406 62.5021 39.7865 61.9188 40.0781C61.3354 40.3698 60.8458 40.8125 60.45 41.4062C60.0542 42 59.7573 42.75 59.5594 43.6562C59.3719 44.5521 59.2781 45.6042 59.2781 46.8125V48.4219C59.2781 49.599 59.3667 50.6354 59.5438 51.5312C59.7208 52.4167 59.9917 53.1667 60.3563 53.7812C60.7313 54.3854 61.2104 54.8438 61.7938 55.1562C62.3875 55.4583 63.101 55.6094 63.9344 55.6094C64.9135 55.6094 65.7208 55.4531 66.3563 55.1406C66.9917 54.8281 67.476 54.3646 67.8094 53.75C68.1531 53.1354 68.3563 52.3698 68.4188 51.4531ZM85.1625 55.1875V47.6562C85.1625 47.1146 85.074 46.651 84.8969 46.2656C84.7198 45.8698 84.4437 45.5625 84.0687 45.3438C83.7042 45.125 83.2302 45.0156 82.6469 45.0156C82.1469 45.0156 81.7146 45.1042 81.35 45.2812C80.9854 45.4479 80.7042 45.6927 80.5062 46.0156C80.3083 46.3281 80.2094 46.6979 80.2094 47.125H75.7094C75.7094 46.4062 75.876 45.724 76.2094 45.0781C76.5427 44.4323 77.0271 43.8646 77.6625 43.375C78.2979 42.875 79.0531 42.4844 79.9281 42.2031C80.8135 41.9219 81.8031 41.7812 82.8969 41.7812C84.2094 41.7812 85.376 42 86.3969 42.4375C87.4177 42.875 88.2198 43.5312 88.8031 44.4062C89.3969 45.2812 89.6937 46.375 89.6937 47.6875V54.9219C89.6937 55.849 89.751 56.6094 89.8656 57.2031C89.9802 57.7865 90.1469 58.2969 90.3656 58.7344V59H85.8187C85.6 58.5417 85.4333 57.9688 85.3187 57.2812C85.2146 56.5833 85.1625 55.8854 85.1625 55.1875ZM85.7562 48.7031L85.7875 51.25H83.2719C82.6781 51.25 82.1625 51.3177 81.725 51.4531C81.2875 51.5885 80.9281 51.7812 80.6469 52.0312C80.3656 52.2708 80.1573 52.5521 80.0219 52.875C79.8969 53.1979 79.8344 53.5521 79.8344 53.9375C79.8344 54.3229 79.9229 54.6719 80.1 54.9844C80.2771 55.2865 80.5323 55.526 80.8656 55.7031C81.199 55.8698 81.5896 55.9531 82.0375 55.9531C82.7146 55.9531 83.3031 55.8177 83.8031 55.5469C84.3031 55.276 84.6885 54.9427 84.9594 54.5469C85.2406 54.151 85.3865 53.776 85.3969 53.4219L86.5844 55.3281C86.4177 55.7552 86.1885 56.1979 85.8969 56.6562C85.6156 57.1146 85.2562 57.5469 84.8187 57.9531C84.3812 58.349 83.8552 58.6771 83.2406 58.9375C82.626 59.1875 81.8969 59.3125 81.0531 59.3125C79.9802 59.3125 79.0062 59.099 78.1312 58.6719C77.2667 58.2344 76.5792 57.6354 76.0687 56.875C75.5687 56.1042 75.3187 55.2292 75.3187 54.25C75.3187 53.3646 75.4854 52.5781 75.8187 51.8906C76.1521 51.2031 76.6417 50.625 77.2875 50.1562C77.9437 49.6771 78.7615 49.3177 79.7406 49.0781C80.7198 48.8281 81.8552 48.7031 83.1469 48.7031H85.7562ZM98.0625 35V59H93.5469V35H98.0625ZM106.681 35V59H102.166V35H106.681ZM38.1281 84.0469C38.1281 83.6406 38.0656 83.276 37.9406 82.9531C37.826 82.6198 37.6073 82.3177 37.2844 82.0469C36.9615 81.7656 36.5083 81.4896 35.925 81.2188C35.3417 80.9479 34.5865 80.6667 33.6594 80.375C32.6281 80.0417 31.649 79.6667 30.7219 79.25C29.8052 78.8333 28.9927 78.349 28.2844 77.7969C27.5865 77.2344 27.0344 76.5833 26.6281 75.8438C26.2323 75.1042 26.0344 74.2448 26.0344 73.2656C26.0344 72.3177 26.2427 71.4583 26.6594 70.6875C27.076 69.9062 27.6594 69.2396 28.4094 68.6875C29.1594 68.125 30.0448 67.6927 31.0656 67.3906C32.0969 67.0885 33.2271 66.9375 34.4562 66.9375C36.1333 66.9375 37.5969 67.2396 38.8469 67.8438C40.0969 68.4479 41.0656 69.276 41.7531 70.3281C42.451 71.3802 42.8 72.5833 42.8 73.9375H38.1437C38.1437 73.2708 38.0031 72.6875 37.7219 72.1875C37.451 71.6771 37.0344 71.276 36.4719 70.9844C35.9198 70.6927 35.2219 70.5469 34.3781 70.5469C33.5656 70.5469 32.8885 70.6719 32.3469 70.9219C31.8052 71.1615 31.399 71.4896 31.1281 71.9062C30.8573 72.3125 30.7219 72.7708 30.7219 73.2812C30.7219 73.6667 30.8156 74.0156 31.0031 74.3281C31.201 74.6406 31.4927 74.9323 31.8781 75.2031C32.2635 75.474 32.7375 75.7292 33.3 75.9688C33.8625 76.2083 34.5135 76.4427 35.2531 76.6719C36.4927 77.0469 37.5812 77.4688 38.5187 77.9375C39.4667 78.4062 40.2583 78.9323 40.8937 79.5156C41.5292 80.099 42.0083 80.7604 42.3312 81.5C42.6542 82.2396 42.8156 83.0781 42.8156 84.0156C42.8156 85.0052 42.6229 85.8906 42.2375 86.6719C41.8521 87.4531 41.2948 88.1146 40.5656 88.6562C39.8365 89.1979 38.9667 89.6094 37.9562 89.8906C36.9458 90.1719 35.8156 90.3125 34.5656 90.3125C33.4406 90.3125 32.3312 90.1667 31.2375 89.875C30.1437 89.5729 29.149 89.1198 28.2531 88.5156C27.3677 87.9115 26.6594 87.1406 26.1281 86.2031C25.5969 85.2656 25.3312 84.1562 25.3312 82.875H30.0344C30.0344 83.5833 30.1437 84.1823 30.3625 84.6719C30.5812 85.1615 30.8885 85.5573 31.2844 85.8594C31.6906 86.1615 32.1698 86.3802 32.7219 86.5156C33.2844 86.651 33.899 86.7188 34.5656 86.7188C35.3781 86.7188 36.0448 86.6042 36.5656 86.375C37.0969 86.1458 37.4875 85.8281 37.7375 85.4219C37.9979 85.0156 38.1281 84.5573 38.1281 84.0469ZM54.1531 73.0938V76.2812H44.3094V73.0938H54.1531ZM46.7469 68.9219H51.2469V84.9062C51.2469 85.3958 51.3094 85.7708 51.4344 86.0312C51.5698 86.2917 51.7677 86.474 52.0281 86.5781C52.2885 86.6719 52.6167 86.7188 53.0125 86.7188C53.2937 86.7188 53.5437 86.7083 53.7625 86.6875C53.9917 86.6562 54.1844 86.625 54.3406 86.5938L54.3562 89.9062C53.9708 90.0312 53.5542 90.1302 53.1062 90.2031C52.6583 90.276 52.1635 90.3125 51.6219 90.3125C50.6323 90.3125 49.7677 90.151 49.0281 89.8281C48.299 89.4948 47.7365 88.9635 47.3406 88.2344C46.9448 87.5052 46.7469 86.5469 46.7469 85.3594V68.9219ZM66.8656 85.9531V73.0938H71.3656V90H67.1312L66.8656 85.9531ZM67.3656 82.4844L68.6937 82.4531C68.6937 83.5781 68.5635 84.625 68.3031 85.5938C68.0427 86.5521 67.6521 87.3854 67.1312 88.0938C66.6104 88.7917 65.9542 89.3385 65.1625 89.7344C64.3708 90.1198 63.4385 90.3125 62.3656 90.3125C61.5427 90.3125 60.7823 90.1979 60.0844 89.9688C59.3969 89.7292 58.8031 89.3594 58.3031 88.8594C57.8135 88.349 57.4281 87.6979 57.1469 86.9062C56.876 86.1042 56.7406 85.1406 56.7406 84.0156V73.0938H61.2406V84.0469C61.2406 84.5469 61.2979 84.9688 61.4125 85.3125C61.5375 85.6562 61.7094 85.9375 61.9281 86.1562C62.1469 86.375 62.4021 86.5312 62.6937 86.625C62.9958 86.7188 63.3292 86.7656 63.6937 86.7656C64.6208 86.7656 65.35 86.5781 65.8812 86.2031C66.4229 85.8281 66.8031 85.3177 67.0219 84.6719C67.251 84.0156 67.3656 83.2865 67.3656 82.4844ZM84.9375 86.3125V66H89.4688V90H85.3906L84.9375 86.3125ZM74.25 81.75V81.4219C74.25 80.1302 74.3958 78.9583 74.6875 77.9062C74.9792 76.8438 75.4062 75.9323 75.9688 75.1719C76.5312 74.4115 77.224 73.8229 78.0469 73.4062C78.8698 72.9896 79.8073 72.7812 80.8594 72.7812C81.849 72.7812 82.7135 72.9896 83.4531 73.4062C84.2031 73.8229 84.8385 74.4167 85.3594 75.1875C85.8906 75.9479 86.3177 76.849 86.6406 77.8906C86.9635 78.9219 87.1979 80.0521 87.3438 81.2812V82C87.1979 83.1771 86.9635 84.2708 86.6406 85.2812C86.3177 86.2917 85.8906 87.1771 85.3594 87.9375C84.8385 88.6875 84.2031 89.2708 83.4531 89.6875C82.7031 90.1042 81.8281 90.3125 80.8281 90.3125C79.776 90.3125 78.8385 90.099 78.0156 89.6719C77.2031 89.2448 76.5156 88.6458 75.9531 87.875C75.401 87.1042 74.9792 86.1979 74.6875 85.1562C74.3958 84.1146 74.25 82.9792 74.25 81.75ZM78.75 81.4219V81.75C78.75 82.4479 78.8021 83.099 78.9062 83.7031C79.0208 84.3073 79.2031 84.8438 79.4531 85.3125C79.7135 85.7708 80.0469 86.1302 80.4531 86.3906C80.8698 86.6406 81.375 86.7656 81.9688 86.7656C82.7396 86.7656 83.375 86.5938 83.875 86.25C84.375 85.8958 84.7552 85.4115 85.0156 84.7969C85.2865 84.1823 85.4427 83.474 85.4844 82.6719V80.625C85.4531 79.9688 85.3594 79.3802 85.2031 78.8594C85.0573 78.3281 84.8385 77.875 84.5469 77.5C84.2656 77.125 83.9115 76.8333 83.4844 76.625C83.0677 76.4167 82.5729 76.3125 82 76.3125C81.4167 76.3125 80.9167 76.4479 80.5 76.7188C80.0833 76.9792 79.7448 77.3385 79.4844 77.7969C79.2344 78.2552 79.0469 78.7969 78.9219 79.4219C78.8073 80.0365 78.75 80.7031 78.75 81.4219ZM100.916 90.3125C99.6031 90.3125 98.426 90.1042 97.3844 89.6875C96.3427 89.2604 95.4573 88.6719 94.7281 87.9219C94.0094 87.1719 93.4573 86.3021 93.0719 85.3125C92.6865 84.3125 92.4937 83.25 92.4937 82.125V81.5C92.4937 80.2188 92.676 79.0469 93.0406 77.9844C93.4052 76.9219 93.926 76 94.6031 75.2188C95.2906 74.4375 96.124 73.8385 97.1031 73.4219C98.0823 72.9948 99.1865 72.7812 100.416 72.7812C101.614 72.7812 102.676 72.9792 103.603 73.375C104.53 73.7708 105.306 74.3333 105.931 75.0625C106.567 75.7917 107.046 76.6667 107.369 77.6875C107.692 78.6979 107.853 79.8229 107.853 81.0625V82.9375H94.4156V79.9375H103.431V79.5938C103.431 78.9688 103.317 78.4115 103.087 77.9219C102.869 77.4219 102.535 77.026 102.087 76.7344C101.64 76.4427 101.067 76.2969 100.369 76.2969C99.775 76.2969 99.2646 76.4271 98.8375 76.6875C98.4104 76.9479 98.0615 77.3125 97.7906 77.7812C97.5302 78.25 97.3323 78.8021 97.1969 79.4375C97.0719 80.0625 97.0094 80.75 97.0094 81.5V82.125C97.0094 82.8021 97.1031 83.4271 97.2906 84C97.4885 84.5729 97.7646 85.0677 98.1187 85.4844C98.4833 85.901 98.9208 86.224 99.4312 86.4531C99.9521 86.6823 100.541 86.7969 101.197 86.7969C102.009 86.7969 102.765 86.6406 103.462 86.3281C104.171 86.0052 104.78 85.5208 105.291 84.875L107.478 87.25C107.124 87.7604 106.64 88.25 106.025 88.7188C105.421 89.1875 104.692 89.5729 103.837 89.875C102.983 90.1667 102.009 90.3125 100.916 90.3125ZM114.972 76.7031V90H110.472V73.0938H114.691L114.972 76.7031ZM114.316 80.9531H113.097C113.097 79.7031 113.258 78.5781 113.581 77.5781C113.904 76.5677 114.357 75.7083 114.941 75C115.524 74.2812 116.217 73.7344 117.019 73.3594C117.831 72.974 118.738 72.7812 119.738 72.7812C120.529 72.7812 121.253 72.8958 121.909 73.125C122.566 73.3542 123.128 73.7188 123.597 74.2188C124.076 74.7188 124.441 75.3802 124.691 76.2031C124.951 77.026 125.081 78.0312 125.081 79.2188V90H120.55V79.2031C120.55 78.4531 120.446 77.8698 120.238 77.4531C120.029 77.0365 119.722 76.7448 119.316 76.5781C118.92 76.401 118.43 76.3125 117.847 76.3125C117.243 76.3125 116.717 76.4323 116.269 76.6719C115.831 76.9115 115.467 77.2448 115.175 77.6719C114.894 78.0885 114.68 78.5781 114.534 79.1406C114.389 79.7031 114.316 80.3073 114.316 80.9531ZM136.934 73.0938V76.2812H127.091V73.0938H136.934ZM129.528 68.9219H134.028V84.9062C134.028 85.3958 134.091 85.7708 134.216 86.0312C134.351 86.2917 134.549 86.474 134.809 86.5781C135.07 86.6719 135.398 86.7188 135.794 86.7188C136.075 86.7188 136.325 86.7083 136.544 86.6875C136.773 86.6562 136.966 86.625 137.122 86.5938L137.137 89.9062C136.752 90.0312 136.335 90.1302 135.887 90.2031C135.44 90.276 134.945 90.3125 134.403 90.3125C133.414 90.3125 132.549 90.151 131.809 89.8281C131.08 89.4948 130.518 88.9635 130.122 88.2344C129.726 87.5052 129.528 86.5469 129.528 85.3594V68.9219Z" fill="white"/>
</svg>
