<svg width="162" height="131" viewBox="0 0 162 131" fill="none" xmlns="http://www.w3.org/2000/svg">
<rect width="162" height="131" rx="12" fill="#1EC624"/>
<path d="M68.4188 51.4531H73.0906C72.9969 52.9844 72.575 54.3438 71.825 55.5312C71.0854 56.7188 70.049 57.6458 68.7156 58.3125C67.3927 58.9792 65.799 59.3125 63.9344 59.3125C62.476 59.3125 61.1688 59.0625 60.0125 58.5625C58.8563 58.0521 57.8667 57.3229 57.0438 56.375C56.2313 55.4271 55.6115 54.2812 55.1844 52.9375C54.7573 51.5938 54.5438 50.0885 54.5438 48.4219V46.8438C54.5438 45.1771 54.7625 43.6719 55.2 42.3281C55.6479 40.974 56.2833 39.8229 57.1063 38.875C57.9396 37.9271 58.9344 37.1979 60.0906 36.6875C61.2469 36.1771 62.5385 35.9219 63.9656 35.9219C65.8615 35.9219 67.4604 36.2656 68.7625 36.9531C70.075 37.6406 71.0906 38.5885 71.8094 39.7969C72.5385 41.0052 72.976 42.3802 73.1219 43.9219H68.4344C68.3823 43.0052 68.2 42.2292 67.8875 41.5938C67.575 40.9479 67.101 40.4635 66.4656 40.1406C65.8406 39.8073 65.0073 39.6406 63.9656 39.6406C63.1844 39.6406 62.5021 39.7865 61.9188 40.0781C61.3354 40.3698 60.8458 40.8125 60.45 41.4062C60.0542 42 59.7573 42.75 59.5594 43.6562C59.3719 44.5521 59.2781 45.6042 59.2781 46.8125V48.4219C59.2781 49.599 59.3667 50.6354 59.5438 51.5312C59.7208 52.4167 59.9917 53.1667 60.3563 53.7812C60.7313 54.3854 61.2104 54.8438 61.7938 55.1562C62.3875 55.4583 63.101 55.6094 63.9344 55.6094C64.9135 55.6094 65.7208 55.4531 66.3563 55.1406C66.9917 54.8281 67.476 54.3646 67.8094 53.75C68.1531 53.1354 68.3563 52.3698 68.4188 51.4531ZM85.1625 55.1875V47.6562C85.1625 47.1146 85.074 46.651 84.8969 46.2656C84.7198 45.8698 84.4437 45.5625 84.0687 45.3438C83.7042 45.125 83.2302 45.0156 82.6469 45.0156C82.1469 45.0156 81.7146 45.1042 81.35 45.2812C80.9854 45.4479 80.7042 45.6927 80.5062 46.0156C80.3083 46.3281 80.2094 46.6979 80.2094 47.125H75.7094C75.7094 46.4062 75.876 45.724 76.2094 45.0781C76.5427 44.4323 77.0271 43.8646 77.6625 43.375C78.2979 42.875 79.0531 42.4844 79.9281 42.2031C80.8135 41.9219 81.8031 41.7812 82.8969 41.7812C84.2094 41.7812 85.376 42 86.3969 42.4375C87.4177 42.875 88.2198 43.5312 88.8031 44.4062C89.3969 45.2812 89.6937 46.375 89.6937 47.6875V54.9219C89.6937 55.849 89.751 56.6094 89.8656 57.2031C89.9802 57.7865 90.1469 58.2969 90.3656 58.7344V59H85.8187C85.6 58.5417 85.4333 57.9688 85.3187 57.2812C85.2146 56.5833 85.1625 55.8854 85.1625 55.1875ZM85.7562 48.7031L85.7875 51.25H83.2719C82.6781 51.25 82.1625 51.3177 81.725 51.4531C81.2875 51.5885 80.9281 51.7812 80.6469 52.0312C80.3656 52.2708 80.1573 52.5521 80.0219 52.875C79.8969 53.1979 79.8344 53.5521 79.8344 53.9375C79.8344 54.3229 79.9229 54.6719 80.1 54.9844C80.2771 55.2865 80.5323 55.526 80.8656 55.7031C81.199 55.8698 81.5896 55.9531 82.0375 55.9531C82.7146 55.9531 83.3031 55.8177 83.8031 55.5469C84.3031 55.276 84.6885 54.9427 84.9594 54.5469C85.2406 54.151 85.3865 53.776 85.3969 53.4219L86.5844 55.3281C86.4177 55.7552 86.1885 56.1979 85.8969 56.6562C85.6156 57.1146 85.2562 57.5469 84.8187 57.9531C84.3812 58.349 83.8552 58.6771 83.2406 58.9375C82.626 59.1875 81.8969 59.3125 81.0531 59.3125C79.9802 59.3125 79.0062 59.099 78.1312 58.6719C77.2667 58.2344 76.5792 57.6354 76.0687 56.875C75.5687 56.1042 75.3187 55.2292 75.3187 54.25C75.3187 53.3646 75.4854 52.5781 75.8187 51.8906C76.1521 51.2031 76.6417 50.625 77.2875 50.1562C77.9437 49.6771 78.7615 49.3177 79.7406 49.0781C80.7198 48.8281 81.8552 48.7031 83.1469 48.7031H85.7562ZM98.0625 35V59H93.5469V35H98.0625ZM106.681 35V59H102.166V35H106.681ZM44 81.8906H38.2031V78.2344H44C44.8958 78.2344 45.625 78.0885 46.1875 77.7969C46.75 77.4948 47.1615 77.0781 47.4219 76.5469C47.6823 76.0156 47.8125 75.4167 47.8125 74.75C47.8125 74.0729 47.6823 73.4427 47.4219 72.8594C47.1615 72.276 46.75 71.8073 46.1875 71.4531C45.625 71.099 44.8958 70.9219 44 70.9219H39.8281V90H35.1406V67.25H44C45.7812 67.25 47.3073 67.5729 48.5781 68.2188C49.8594 68.8542 50.8385 69.7344 51.5156 70.8594C52.1927 71.9844 52.5312 73.2708 52.5312 74.7188C52.5312 76.1875 52.1927 77.4583 51.5156 78.5312C50.8385 79.6042 49.8594 80.4323 48.5781 81.0156C47.3073 81.599 45.7812 81.8906 44 81.8906ZM64.5719 86.1875V78.6562C64.5719 78.1146 64.4833 77.651 64.3063 77.2656C64.1292 76.8698 63.8531 76.5625 63.4781 76.3438C63.1135 76.125 62.6396 76.0156 62.0563 76.0156C61.5563 76.0156 61.124 76.1042 60.7594 76.2812C60.3948 76.4479 60.1135 76.6927 59.9156 77.0156C59.7177 77.3281 59.6188 77.6979 59.6188 78.125H55.1188C55.1188 77.4062 55.2854 76.724 55.6188 76.0781C55.9521 75.4323 56.4365 74.8646 57.0719 74.375C57.7073 73.875 58.4625 73.4844 59.3375 73.2031C60.2229 72.9219 61.2125 72.7812 62.3063 72.7812C63.6188 72.7812 64.7854 73 65.8063 73.4375C66.8271 73.875 67.6292 74.5312 68.2125 75.4062C68.8063 76.2812 69.1031 77.375 69.1031 78.6875V85.9219C69.1031 86.849 69.1604 87.6094 69.275 88.2031C69.3896 88.7865 69.5563 89.2969 69.775 89.7344V90H65.2281C65.0094 89.5417 64.8427 88.9688 64.7281 88.2812C64.624 87.5833 64.5719 86.8854 64.5719 86.1875ZM65.1656 79.7031L65.1969 82.25H62.6813C62.0875 82.25 61.5719 82.3177 61.1344 82.4531C60.6969 82.5885 60.3375 82.7812 60.0563 83.0312C59.775 83.2708 59.5667 83.5521 59.4313 83.875C59.3063 84.1979 59.2438 84.5521 59.2438 84.9375C59.2438 85.3229 59.3323 85.6719 59.5094 85.9844C59.6865 86.2865 59.9417 86.526 60.275 86.7031C60.6083 86.8698 60.999 86.9531 61.4469 86.9531C62.124 86.9531 62.7125 86.8177 63.2125 86.5469C63.7125 86.276 64.0979 85.9427 64.3688 85.5469C64.65 85.151 64.7958 84.776 64.8063 84.4219L65.9938 86.3281C65.8271 86.7552 65.5979 87.1979 65.3063 87.6562C65.025 88.1146 64.6656 88.5469 64.2281 88.9531C63.7906 89.349 63.2646 89.6771 62.65 89.9375C62.0354 90.1875 61.3063 90.3125 60.4625 90.3125C59.3896 90.3125 58.4156 90.099 57.5406 89.6719C56.676 89.2344 55.9885 88.6354 55.4781 87.875C54.9781 87.1042 54.7281 86.2292 54.7281 85.25C54.7281 84.3646 54.8948 83.5781 55.2281 82.8906C55.5615 82.2031 56.051 81.625 56.6969 81.1562C57.3531 80.6771 58.1708 80.3177 59.15 80.0781C60.1292 79.8281 61.2646 79.7031 62.5563 79.7031H65.1656ZM77.2219 76.7812V90H72.7219V73.0938H76.9562L77.2219 76.7812ZM82.3156 72.9844L82.2375 77.1562C82.0187 77.125 81.7531 77.099 81.4406 77.0781C81.1385 77.0469 80.8625 77.0312 80.6125 77.0312C79.9771 77.0312 79.425 77.1146 78.9562 77.2812C78.4979 77.4375 78.1125 77.6719 77.8 77.9844C77.4979 78.2969 77.2687 78.6771 77.1125 79.125C76.9667 79.5729 76.8833 80.0833 76.8625 80.6562L75.9562 80.375C75.9562 79.2812 76.0656 78.276 76.2844 77.3594C76.5031 76.4323 76.8208 75.625 77.2375 74.9375C77.6646 74.25 78.1854 73.7188 78.8 73.3438C79.4146 72.9688 80.1177 72.7812 80.9094 72.7812C81.1594 72.7812 81.4146 72.8021 81.675 72.8438C81.9354 72.875 82.149 72.9219 82.3156 72.9844ZM92.0594 90.3125C90.7469 90.3125 89.5698 90.1042 88.5281 89.6875C87.4865 89.2604 86.601 88.6719 85.8719 87.9219C85.1531 87.1719 84.601 86.3021 84.2156 85.3125C83.8302 84.3125 83.6375 83.25 83.6375 82.125V81.5C83.6375 80.2188 83.8198 79.0469 84.1844 77.9844C84.549 76.9219 85.0698 76 85.7469 75.2188C86.4344 74.4375 87.2677 73.8385 88.2469 73.4219C89.226 72.9948 90.3302 72.7812 91.5594 72.7812C92.7573 72.7812 93.8198 72.9792 94.7469 73.375C95.674 73.7708 96.45 74.3333 97.075 75.0625C97.7104 75.7917 98.1896 76.6667 98.5125 77.6875C98.8354 78.6979 98.9969 79.8229 98.9969 81.0625V82.9375H85.5594V79.9375H94.575V79.5938C94.575 78.9688 94.4604 78.4115 94.2312 77.9219C94.0125 77.4219 93.6792 77.026 93.2312 76.7344C92.7833 76.4427 92.2104 76.2969 91.5125 76.2969C90.9187 76.2969 90.4083 76.4271 89.9812 76.6875C89.5542 76.9479 89.2052 77.3125 88.9344 77.7812C88.674 78.25 88.476 78.8021 88.3406 79.4375C88.2156 80.0625 88.1531 80.75 88.1531 81.5V82.125C88.1531 82.8021 88.2469 83.4271 88.4344 84C88.6323 84.5729 88.9083 85.0677 89.2625 85.4844C89.6271 85.901 90.0646 86.224 90.575 86.4531C91.0958 86.6823 91.6844 86.7969 92.3406 86.7969C93.1531 86.7969 93.9083 86.6406 94.6062 86.3281C95.3146 86.0052 95.924 85.5208 96.4344 84.875L98.6219 87.25C98.2677 87.7604 97.7833 88.25 97.1687 88.7188C96.5646 89.1875 95.8354 89.5729 94.9812 89.875C94.1271 90.1667 93.1531 90.3125 92.0594 90.3125ZM106.116 76.7031V90H101.616V73.0938H105.834L106.116 76.7031ZM105.459 80.9531H104.241C104.241 79.7031 104.402 78.5781 104.725 77.5781C105.048 76.5677 105.501 75.7083 106.084 75C106.668 74.2812 107.36 73.7344 108.162 73.3594C108.975 72.974 109.881 72.7812 110.881 72.7812C111.673 72.7812 112.397 72.8958 113.053 73.125C113.709 73.3542 114.272 73.7188 114.741 74.2188C115.22 74.7188 115.584 75.3802 115.834 76.2031C116.095 77.026 116.225 78.0312 116.225 79.2188V90H111.694V79.2031C111.694 78.4531 111.59 77.8698 111.381 77.4531C111.173 77.0365 110.866 76.7448 110.459 76.5781C110.064 76.401 109.574 76.3125 108.991 76.3125C108.386 76.3125 107.86 76.4323 107.412 76.6719C106.975 76.9115 106.61 77.2448 106.319 77.6719C106.037 78.0885 105.824 78.5781 105.678 79.1406C105.532 79.7031 105.459 80.3073 105.459 80.9531ZM128.078 73.0938V76.2812H118.234V73.0938H128.078ZM120.672 68.9219H125.172V84.9062C125.172 85.3958 125.234 85.7708 125.359 86.0312C125.495 86.2917 125.693 86.474 125.953 86.5781C126.214 86.6719 126.542 86.7188 126.938 86.7188C127.219 86.7188 127.469 86.7083 127.688 86.6875C127.917 86.6562 128.109 86.625 128.266 86.5938L128.281 89.9062C127.896 90.0312 127.479 90.1302 127.031 90.2031C126.583 90.276 126.089 90.3125 125.547 90.3125C124.557 90.3125 123.693 90.151 122.953 89.8281C122.224 89.4948 121.661 88.9635 121.266 88.2344C120.87 87.5052 120.672 86.5469 120.672 85.3594V68.9219Z" fill="white"/>
</svg>
