<svg width="393" height="338" viewBox="0 0 363 338" fill="none" xmlns="http://www.w3.org/2000/svg">
<g filter="url(#filter0_d_912_183)">
<rect x="10" y="10" width="363" height="308" rx="17" fill="#D12A2A"/>
<path d="M170.562 128.596V136.484C170.253 136.858 169.774 137.264 169.127 137.701C168.48 138.13 167.646 138.499 166.625 138.809C165.604 139.118 164.369 139.273 162.92 139.273C161.635 139.273 160.464 139.064 159.406 138.645C158.349 138.216 157.438 137.592 156.672 136.771C155.915 135.951 155.332 134.949 154.922 133.764C154.512 132.57 154.307 131.207 154.307 129.676V128.432C154.307 126.9 154.503 125.538 154.895 124.344C155.296 123.15 155.865 122.143 156.604 121.322C157.342 120.502 158.221 119.878 159.242 119.449C160.263 119.021 161.398 118.807 162.646 118.807C164.378 118.807 165.8 119.089 166.912 119.654C168.024 120.21 168.872 120.985 169.455 121.979C170.048 122.963 170.412 124.093 170.549 125.369H166.57C166.47 124.695 166.279 124.107 165.996 123.605C165.714 123.104 165.308 122.712 164.779 122.43C164.26 122.147 163.585 122.006 162.756 122.006C162.072 122.006 161.462 122.147 160.924 122.43C160.395 122.703 159.949 123.109 159.584 123.646C159.219 124.184 158.941 124.85 158.75 125.643C158.559 126.436 158.463 127.356 158.463 128.404V129.676C158.463 130.715 158.563 131.635 158.764 132.438C158.964 133.23 159.26 133.9 159.652 134.447C160.053 134.985 160.546 135.391 161.129 135.664C161.712 135.938 162.391 136.074 163.166 136.074C163.813 136.074 164.351 136.02 164.779 135.91C165.217 135.801 165.568 135.669 165.832 135.514C166.105 135.35 166.315 135.195 166.461 135.049V131.521H162.715V128.596H170.562ZM177.712 127.434V139H173.775V124.207H177.48L177.712 127.434ZM182.17 124.111L182.101 127.762C181.91 127.734 181.677 127.712 181.404 127.693C181.14 127.666 180.898 127.652 180.679 127.652C180.123 127.652 179.64 127.725 179.23 127.871C178.829 128.008 178.492 128.213 178.218 128.486C177.954 128.76 177.754 129.092 177.617 129.484C177.489 129.876 177.416 130.323 177.398 130.824L176.605 130.578C176.605 129.621 176.701 128.742 176.892 127.939C177.084 127.128 177.362 126.422 177.726 125.82C178.1 125.219 178.556 124.754 179.093 124.426C179.631 124.098 180.246 123.934 180.939 123.934C181.158 123.934 181.381 123.952 181.609 123.988C181.837 124.016 182.024 124.057 182.17 124.111ZM190.714 139.273C189.566 139.273 188.536 139.091 187.624 138.727C186.713 138.353 185.938 137.838 185.3 137.182C184.671 136.525 184.188 135.764 183.851 134.898C183.514 134.023 183.345 133.094 183.345 132.109V131.562C183.345 130.441 183.504 129.416 183.823 128.486C184.142 127.557 184.598 126.75 185.191 126.066C185.792 125.383 186.521 124.859 187.378 124.494C188.235 124.12 189.201 123.934 190.277 123.934C191.325 123.934 192.254 124.107 193.066 124.453C193.877 124.799 194.556 125.292 195.103 125.93C195.659 126.568 196.078 127.333 196.361 128.227C196.643 129.111 196.784 130.095 196.784 131.18V132.82H185.027V130.195H192.915V129.895C192.915 129.348 192.815 128.86 192.614 128.432C192.423 127.994 192.131 127.648 191.739 127.393C191.348 127.137 190.846 127.01 190.236 127.01C189.716 127.01 189.269 127.124 188.896 127.352C188.522 127.579 188.217 127.898 187.98 128.309C187.752 128.719 187.579 129.202 187.46 129.758C187.351 130.305 187.296 130.906 187.296 131.562V132.109C187.296 132.702 187.378 133.249 187.542 133.75C187.715 134.251 187.957 134.684 188.267 135.049C188.586 135.413 188.969 135.696 189.415 135.896C189.871 136.097 190.386 136.197 190.96 136.197C191.671 136.197 192.332 136.061 192.943 135.787C193.562 135.505 194.096 135.081 194.542 134.516L196.456 136.594C196.146 137.04 195.723 137.469 195.185 137.879C194.656 138.289 194.018 138.626 193.271 138.891C192.523 139.146 191.671 139.273 190.714 139.273ZM207.161 135.664V129.074C207.161 128.6 207.083 128.195 206.929 127.857C206.774 127.511 206.532 127.242 206.204 127.051C205.885 126.859 205.47 126.764 204.96 126.764C204.522 126.764 204.144 126.841 203.825 126.996C203.506 127.142 203.26 127.356 203.087 127.639C202.914 127.912 202.827 128.236 202.827 128.609H198.889C198.889 127.98 199.035 127.383 199.327 126.818C199.619 126.253 200.042 125.757 200.598 125.328C201.154 124.891 201.815 124.549 202.581 124.303C203.356 124.057 204.221 123.934 205.179 123.934C206.327 123.934 207.348 124.125 208.241 124.508C209.134 124.891 209.836 125.465 210.346 126.23C210.866 126.996 211.126 127.953 211.126 129.102V135.432C211.126 136.243 211.176 136.908 211.276 137.428C211.376 137.938 211.522 138.385 211.714 138.768V139H207.735C207.544 138.599 207.398 138.098 207.298 137.496C207.207 136.885 207.161 136.275 207.161 135.664ZM207.68 129.99L207.708 132.219H205.507C204.987 132.219 204.536 132.278 204.153 132.396C203.77 132.515 203.456 132.684 203.21 132.902C202.964 133.112 202.781 133.358 202.663 133.641C202.554 133.923 202.499 134.233 202.499 134.57C202.499 134.908 202.576 135.213 202.731 135.486C202.886 135.751 203.11 135.96 203.401 136.115C203.693 136.261 204.035 136.334 204.427 136.334C205.019 136.334 205.534 136.215 205.971 135.979C206.409 135.742 206.746 135.45 206.983 135.104C207.229 134.757 207.357 134.429 207.366 134.119L208.405 135.787C208.259 136.161 208.059 136.548 207.804 136.949C207.557 137.35 207.243 137.729 206.86 138.084C206.477 138.43 206.017 138.717 205.479 138.945C204.942 139.164 204.304 139.273 203.565 139.273C202.626 139.273 201.774 139.087 201.009 138.713C200.252 138.33 199.651 137.806 199.204 137.141C198.766 136.466 198.548 135.701 198.548 134.844C198.548 134.069 198.693 133.381 198.985 132.779C199.277 132.178 199.705 131.672 200.27 131.262C200.845 130.842 201.56 130.528 202.417 130.318C203.274 130.1 204.267 129.99 205.397 129.99H207.68ZM221.557 124.207V126.996H212.944V124.207H221.557ZM215.077 120.557H219.014V134.543C219.014 134.971 219.069 135.299 219.178 135.527C219.297 135.755 219.47 135.915 219.698 136.006C219.926 136.088 220.213 136.129 220.559 136.129C220.805 136.129 221.024 136.12 221.215 136.102C221.416 136.074 221.584 136.047 221.721 136.02L221.735 138.918C221.398 139.027 221.033 139.114 220.641 139.178C220.249 139.242 219.816 139.273 219.342 139.273C218.476 139.273 217.72 139.132 217.073 138.85C216.435 138.558 215.942 138.093 215.596 137.455C215.25 136.817 215.077 135.979 215.077 134.939V120.557ZM228.393 119.094L227.941 132.916H224.66L224.195 119.094H228.393ZM224.086 137.195C224.086 136.612 224.286 136.129 224.688 135.746C225.098 135.354 225.635 135.158 226.301 135.158C226.975 135.158 227.513 135.354 227.914 135.746C228.315 136.129 228.516 136.612 228.516 137.195C228.516 137.76 228.315 138.239 227.914 138.631C227.513 139.023 226.975 139.219 226.301 139.219C225.635 139.219 225.098 139.023 224.688 138.631C224.286 138.239 224.086 137.76 224.086 137.195ZM39.4184 167.094L43.5746 176.172L47.7309 167.094H52.2016L45.6527 179.754V187H41.4965V179.754L34.934 167.094H39.4184ZM52.3926 179.754V179.467C52.3926 178.382 52.5475 177.384 52.8574 176.473C53.1673 175.552 53.6185 174.755 54.2109 174.08C54.8034 173.406 55.5326 172.882 56.3984 172.508C57.2643 172.125 58.2578 171.934 59.3789 171.934C60.5 171.934 61.4981 172.125 62.3731 172.508C63.2481 172.882 63.9818 173.406 64.5742 174.08C65.1758 174.755 65.6315 175.552 65.9414 176.473C66.2513 177.384 66.4063 178.382 66.4063 179.467V179.754C66.4063 180.829 66.2513 181.827 65.9414 182.748C65.6315 183.66 65.1758 184.457 64.5742 185.141C63.9818 185.815 63.2526 186.339 62.3867 186.713C61.5208 187.087 60.5274 187.273 59.4063 187.273C58.2852 187.273 57.2871 187.087 56.4121 186.713C55.5462 186.339 54.8125 185.815 54.2109 185.141C53.6185 184.457 53.1673 183.66 52.8574 182.748C52.5475 181.827 52.3926 180.829 52.3926 179.754ZM56.3301 179.467V179.754C56.3301 180.374 56.3848 180.952 56.4941 181.49C56.6035 182.028 56.7767 182.502 57.0137 182.912C57.2598 183.313 57.5788 183.628 57.9707 183.855C58.3626 184.083 58.8412 184.197 59.4063 184.197C59.9531 184.197 60.4225 184.083 60.8145 183.855C61.2064 183.628 61.5208 183.313 61.7578 182.912C61.9948 182.502 62.168 182.028 62.2774 181.49C62.3958 180.952 62.4551 180.374 62.4551 179.754V179.467C62.4551 178.865 62.3958 178.3 62.2774 177.771C62.168 177.234 61.9902 176.76 61.7441 176.35C61.5072 175.93 61.1927 175.602 60.8008 175.365C60.4089 175.128 59.9349 175.01 59.3789 175.01C58.8229 175.01 58.349 175.128 57.957 175.365C57.5742 175.602 57.2598 175.93 57.0137 176.35C56.7767 176.76 56.6035 177.234 56.4941 177.771C56.3848 178.3 56.3301 178.865 56.3301 179.467ZM77.7262 183.459V172.207H81.6637V187H77.9586L77.7262 183.459ZM78.1637 180.424L79.3258 180.396C79.3258 181.381 79.2119 182.297 78.984 183.145C78.7561 183.983 78.4143 184.712 77.9586 185.332C77.5029 185.943 76.9287 186.421 76.2359 186.768C75.5432 187.105 74.7275 187.273 73.7887 187.273C73.0686 187.273 72.4033 187.173 71.7926 186.973C71.191 186.763 70.6715 186.439 70.234 186.002C69.8056 185.555 69.4684 184.986 69.2223 184.293C68.9853 183.591 68.8668 182.748 68.8668 181.764V172.207H72.8043V181.791C72.8043 182.229 72.8544 182.598 72.9547 182.898C73.0641 183.199 73.2145 183.445 73.4059 183.637C73.5973 183.828 73.8206 183.965 74.0758 184.047C74.3401 184.129 74.6318 184.17 74.9508 184.17C75.762 184.17 76.4 184.006 76.8648 183.678C77.3388 183.35 77.6715 182.903 77.8629 182.338C78.0634 181.764 78.1637 181.126 78.1637 180.424ZM88.759 175.434V187H84.8215V172.207H88.5266L88.759 175.434ZM93.216 172.111L93.1477 175.762C92.9563 175.734 92.7238 175.712 92.4504 175.693C92.1861 175.666 91.9445 175.652 91.7258 175.652C91.1698 175.652 90.6867 175.725 90.2766 175.871C89.8755 176.008 89.5383 176.213 89.2648 176.486C89.0005 176.76 88.8 177.092 88.6633 177.484C88.5357 177.876 88.4628 178.323 88.4445 178.824L87.6516 178.578C87.6516 177.621 87.7473 176.742 87.9387 175.939C88.1301 175.128 88.4081 174.422 88.7727 173.82C89.1464 173.219 89.6021 172.754 90.1398 172.426C90.6776 172.098 91.2928 171.934 91.9855 171.934C92.2043 171.934 92.4276 171.952 92.6555 171.988C92.8833 172.016 93.0702 172.057 93.216 172.111ZM106.286 175.051V192.688H102.348V172.207H105.998L106.286 175.051ZM115.651 179.439V179.727C115.651 180.802 115.523 181.8 115.268 182.721C115.022 183.641 114.657 184.443 114.174 185.127C113.691 185.801 113.09 186.33 112.37 186.713C111.659 187.087 110.838 187.273 109.909 187.273C109.006 187.273 108.222 187.091 107.557 186.727C106.892 186.362 106.331 185.852 105.875 185.195C105.429 184.53 105.069 183.76 104.795 182.885C104.522 182.01 104.312 181.071 104.166 180.068V179.316C104.312 178.241 104.522 177.257 104.795 176.363C105.069 175.461 105.429 174.682 105.875 174.025C106.331 173.36 106.887 172.845 107.543 172.48C108.209 172.116 108.988 171.934 109.881 171.934C110.82 171.934 111.645 172.111 112.356 172.467C113.076 172.822 113.677 173.333 114.161 173.998C114.653 174.663 115.022 175.456 115.268 176.377C115.523 177.298 115.651 178.318 115.651 179.439ZM111.7 179.727V179.439C111.7 178.811 111.645 178.232 111.536 177.703C111.435 177.165 111.271 176.696 111.043 176.295C110.825 175.894 110.533 175.584 110.168 175.365C109.813 175.137 109.38 175.023 108.87 175.023C108.332 175.023 107.871 175.11 107.489 175.283C107.115 175.456 106.81 175.707 106.573 176.035C106.336 176.363 106.158 176.755 106.039 177.211C105.921 177.667 105.848 178.182 105.821 178.756V180.656C105.866 181.331 105.994 181.937 106.204 182.475C106.413 183.003 106.737 183.423 107.174 183.732C107.612 184.042 108.186 184.197 108.897 184.197C109.416 184.197 109.854 184.083 110.209 183.855C110.565 183.618 110.852 183.295 111.071 182.885C111.299 182.475 111.458 182.001 111.549 181.463C111.649 180.925 111.7 180.346 111.7 179.727ZM122.09 166V187H118.152V166H122.09ZM121.529 179.084H120.449C120.458 178.054 120.595 177.106 120.859 176.24C121.124 175.365 121.502 174.609 121.994 173.971C122.486 173.324 123.074 172.822 123.758 172.467C124.451 172.111 125.216 171.934 126.055 171.934C126.784 171.934 127.445 172.038 128.037 172.248C128.639 172.449 129.154 172.777 129.582 173.232C130.02 173.679 130.357 174.267 130.594 174.996C130.831 175.725 130.949 176.609 130.949 177.648V187H126.984V177.621C126.984 176.965 126.889 176.45 126.697 176.076C126.515 175.693 126.246 175.424 125.891 175.27C125.544 175.105 125.116 175.023 124.605 175.023C124.04 175.023 123.557 175.128 123.156 175.338C122.764 175.548 122.45 175.839 122.213 176.213C121.976 176.577 121.803 177.006 121.693 177.498C121.584 177.99 121.529 178.519 121.529 179.084ZM133.464 179.754V179.467C133.464 178.382 133.619 177.384 133.929 176.473C134.239 175.552 134.69 174.755 135.283 174.08C135.875 173.406 136.604 172.882 137.47 172.508C138.336 172.125 139.33 171.934 140.451 171.934C141.572 171.934 142.57 172.125 143.445 172.508C144.32 172.882 145.054 173.406 145.646 174.08C146.248 174.755 146.703 175.552 147.013 176.473C147.323 177.384 147.478 178.382 147.478 179.467V179.754C147.478 180.829 147.323 181.827 147.013 182.748C146.703 183.66 146.248 184.457 145.646 185.141C145.054 185.815 144.324 186.339 143.459 186.713C142.593 187.087 141.599 187.273 140.478 187.273C139.357 187.273 138.359 187.087 137.484 186.713C136.618 186.339 135.884 185.815 135.283 185.141C134.69 184.457 134.239 183.66 133.929 182.748C133.619 181.827 133.464 180.829 133.464 179.754ZM137.402 179.467V179.754C137.402 180.374 137.457 180.952 137.566 181.49C137.675 182.028 137.849 182.502 138.086 182.912C138.332 183.313 138.651 183.628 139.043 183.855C139.435 184.083 139.913 184.197 140.478 184.197C141.025 184.197 141.494 184.083 141.886 183.855C142.278 183.628 142.593 183.313 142.83 182.912C143.067 182.502 143.24 182.028 143.349 181.49C143.468 180.952 143.527 180.374 143.527 179.754V179.467C143.527 178.865 143.468 178.3 143.349 177.771C143.24 177.234 143.062 176.76 142.816 176.35C142.579 175.93 142.265 175.602 141.873 175.365C141.481 175.128 141.007 175.01 140.451 175.01C139.895 175.01 139.421 175.128 139.029 175.365C138.646 175.602 138.332 175.93 138.086 176.35C137.849 176.76 137.675 177.234 137.566 177.771C137.457 178.3 137.402 178.865 137.402 179.467ZM153.904 175.365V187H149.966V172.207H153.657L153.904 175.365ZM153.329 179.084H152.263C152.263 177.99 152.404 177.006 152.687 176.131C152.969 175.247 153.366 174.495 153.876 173.875C154.387 173.246 154.993 172.768 155.695 172.439C156.405 172.102 157.198 171.934 158.073 171.934C158.766 171.934 159.4 172.034 159.974 172.234C160.548 172.435 161.04 172.754 161.45 173.191C161.87 173.629 162.189 174.208 162.407 174.928C162.635 175.648 162.749 176.527 162.749 177.566V187H158.784V177.553C158.784 176.896 158.693 176.386 158.511 176.021C158.329 175.657 158.06 175.402 157.704 175.256C157.358 175.101 156.93 175.023 156.419 175.023C155.89 175.023 155.43 175.128 155.038 175.338C154.655 175.548 154.336 175.839 154.081 176.213C153.835 176.577 153.648 177.006 153.521 177.498C153.393 177.99 153.329 178.519 153.329 179.084ZM172.702 187.273C171.554 187.273 170.524 187.091 169.612 186.727C168.701 186.353 167.926 185.838 167.288 185.182C166.659 184.525 166.176 183.764 165.839 182.898C165.501 182.023 165.333 181.094 165.333 180.109V179.562C165.333 178.441 165.492 177.416 165.811 176.486C166.13 175.557 166.586 174.75 167.179 174.066C167.78 173.383 168.509 172.859 169.366 172.494C170.223 172.12 171.189 171.934 172.264 171.934C173.313 171.934 174.242 172.107 175.054 172.453C175.865 172.799 176.544 173.292 177.091 173.93C177.647 174.568 178.066 175.333 178.348 176.227C178.631 177.111 178.772 178.095 178.772 179.18V180.82H167.014V178.195H174.903V177.895C174.903 177.348 174.803 176.86 174.602 176.432C174.411 175.994 174.119 175.648 173.727 175.393C173.335 175.137 172.834 175.01 172.223 175.01C171.704 175.01 171.257 175.124 170.884 175.352C170.51 175.579 170.205 175.898 169.968 176.309C169.74 176.719 169.567 177.202 169.448 177.758C169.339 178.305 169.284 178.906 169.284 179.562V180.109C169.284 180.702 169.366 181.249 169.53 181.75C169.703 182.251 169.945 182.684 170.255 183.049C170.574 183.413 170.957 183.696 171.403 183.896C171.859 184.097 172.374 184.197 172.948 184.197C173.659 184.197 174.32 184.061 174.93 183.787C175.55 183.505 176.083 183.081 176.53 182.516L178.444 184.594C178.134 185.04 177.71 185.469 177.173 185.879C176.644 186.289 176.006 186.626 175.259 186.891C174.511 187.146 173.659 187.273 172.702 187.273ZM192.129 166V187H188.191V166H192.129ZM191.568 179.084H190.488C190.497 178.054 190.634 177.106 190.898 176.24C191.163 175.365 191.541 174.609 192.033 173.971C192.525 173.324 193.113 172.822 193.797 172.467C194.49 172.111 195.255 171.934 196.094 171.934C196.823 171.934 197.484 172.038 198.076 172.248C198.678 172.449 199.193 172.777 199.621 173.232C200.059 173.679 200.396 174.267 200.633 174.996C200.87 175.725 200.988 176.609 200.988 177.648V187H197.023V177.621C197.023 176.965 196.928 176.45 196.736 176.076C196.554 175.693 196.285 175.424 195.93 175.27C195.583 175.105 195.155 175.023 194.645 175.023C194.079 175.023 193.596 175.128 193.195 175.338C192.803 175.548 192.489 175.839 192.252 176.213C192.015 176.577 191.842 177.006 191.732 177.498C191.623 177.99 191.568 178.519 191.568 179.084ZM212.117 183.664V177.074C212.117 176.6 212.039 176.195 211.884 175.857C211.729 175.511 211.488 175.242 211.16 175.051C210.841 174.859 210.426 174.764 209.916 174.764C209.478 174.764 209.1 174.841 208.781 174.996C208.462 175.142 208.216 175.356 208.043 175.639C207.869 175.912 207.783 176.236 207.783 176.609H203.845C203.845 175.98 203.991 175.383 204.283 174.818C204.574 174.253 204.998 173.757 205.554 173.328C206.11 172.891 206.771 172.549 207.537 172.303C208.311 172.057 209.177 171.934 210.134 171.934C211.283 171.934 212.304 172.125 213.197 172.508C214.09 172.891 214.792 173.465 215.302 174.23C215.822 174.996 216.082 175.953 216.082 177.102V183.432C216.082 184.243 216.132 184.908 216.232 185.428C216.332 185.938 216.478 186.385 216.67 186.768V187H212.691C212.5 186.599 212.354 186.098 212.254 185.496C212.162 184.885 212.117 184.275 212.117 183.664ZM212.636 177.99L212.664 180.219H210.463C209.943 180.219 209.492 180.278 209.109 180.396C208.726 180.515 208.412 180.684 208.166 180.902C207.92 181.112 207.737 181.358 207.619 181.641C207.509 181.923 207.455 182.233 207.455 182.57C207.455 182.908 207.532 183.213 207.687 183.486C207.842 183.751 208.065 183.96 208.357 184.115C208.649 184.261 208.991 184.334 209.382 184.334C209.975 184.334 210.49 184.215 210.927 183.979C211.365 183.742 211.702 183.45 211.939 183.104C212.185 182.757 212.313 182.429 212.322 182.119L213.361 183.787C213.215 184.161 213.015 184.548 212.759 184.949C212.513 185.35 212.199 185.729 211.816 186.084C211.433 186.43 210.973 186.717 210.435 186.945C209.897 187.164 209.259 187.273 208.521 187.273C207.582 187.273 206.73 187.087 205.964 186.713C205.208 186.33 204.606 185.806 204.16 185.141C203.722 184.466 203.504 183.701 203.504 182.844C203.504 182.069 203.649 181.381 203.941 180.779C204.233 180.178 204.661 179.672 205.226 179.262C205.8 178.842 206.516 178.528 207.373 178.318C208.229 178.1 209.223 177.99 210.353 177.99H212.636ZM227.265 182.912C227.265 182.63 227.183 182.374 227.019 182.146C226.855 181.919 226.549 181.709 226.103 181.518C225.665 181.317 225.032 181.135 224.202 180.971C223.455 180.807 222.758 180.602 222.111 180.355C221.473 180.1 220.917 179.795 220.443 179.439C219.978 179.084 219.613 178.665 219.349 178.182C219.085 177.689 218.952 177.129 218.952 176.5C218.952 175.88 219.085 175.297 219.349 174.75C219.622 174.203 220.01 173.72 220.511 173.301C221.021 172.872 221.641 172.54 222.37 172.303C223.109 172.057 223.938 171.934 224.859 171.934C226.144 171.934 227.247 172.139 228.167 172.549C229.097 172.959 229.808 173.524 230.3 174.244C230.801 174.955 231.052 175.766 231.052 176.678H227.114C227.114 176.295 227.032 175.953 226.868 175.652C226.713 175.342 226.467 175.101 226.13 174.928C225.802 174.745 225.374 174.654 224.845 174.654C224.407 174.654 224.029 174.732 223.71 174.887C223.391 175.033 223.145 175.233 222.972 175.488C222.808 175.734 222.726 176.008 222.726 176.309C222.726 176.536 222.771 176.742 222.863 176.924C222.963 177.097 223.122 177.257 223.341 177.402C223.56 177.548 223.842 177.685 224.189 177.812C224.544 177.931 224.982 178.04 225.501 178.141C226.568 178.359 227.52 178.646 228.359 179.002C229.197 179.348 229.863 179.822 230.355 180.424C230.847 181.016 231.093 181.796 231.093 182.762C231.093 183.418 230.947 184.02 230.655 184.566C230.364 185.113 229.945 185.592 229.398 186.002C228.851 186.403 228.195 186.717 227.429 186.945C226.672 187.164 225.82 187.273 224.872 187.273C223.496 187.273 222.329 187.027 221.372 186.535C220.424 186.043 219.704 185.419 219.212 184.662C218.729 183.896 218.488 183.113 218.488 182.311H222.22C222.238 182.848 222.375 183.281 222.63 183.609C222.894 183.938 223.227 184.174 223.628 184.32C224.038 184.466 224.48 184.539 224.954 184.539C225.465 184.539 225.889 184.471 226.226 184.334C226.563 184.188 226.818 183.997 226.991 183.76C227.174 183.514 227.265 183.231 227.265 182.912ZM240.922 166H244.86V183.609L244.463 187H240.922V166ZM254.225 179.453V179.74C254.225 180.843 254.107 181.855 253.87 182.775C253.642 183.696 253.286 184.493 252.803 185.168C252.32 185.833 251.718 186.353 250.998 186.727C250.288 187.091 249.449 187.273 248.483 187.273C247.58 187.273 246.797 187.091 246.131 186.727C245.475 186.362 244.924 185.847 244.477 185.182C244.03 184.516 243.67 183.737 243.397 182.844C243.123 181.951 242.918 180.975 242.782 179.918V179.289C242.918 178.232 243.123 177.257 243.397 176.363C243.67 175.47 244.03 174.691 244.477 174.025C244.924 173.36 245.475 172.845 246.131 172.48C246.788 172.116 247.562 171.934 248.455 171.934C249.431 171.934 250.278 172.12 250.998 172.494C251.728 172.859 252.329 173.378 252.803 174.053C253.286 174.718 253.642 175.511 253.87 176.432C254.107 177.343 254.225 178.35 254.225 179.453ZM250.288 179.74V179.453C250.288 178.852 250.242 178.286 250.151 177.758C250.069 177.22 249.923 176.751 249.713 176.35C249.504 175.939 249.217 175.616 248.852 175.379C248.496 175.142 248.036 175.023 247.471 175.023C246.933 175.023 246.478 175.115 246.104 175.297C245.73 175.479 245.42 175.734 245.174 176.062C244.937 176.391 244.76 176.783 244.641 177.238C244.523 177.685 244.45 178.177 244.422 178.715V180.506C244.45 181.226 244.568 181.864 244.778 182.42C244.996 182.967 245.325 183.4 245.762 183.719C246.209 184.029 246.788 184.184 247.498 184.184C248.054 184.184 248.515 184.074 248.879 183.855C249.244 183.637 249.526 183.327 249.727 182.926C249.937 182.525 250.082 182.055 250.164 181.518C250.246 180.971 250.288 180.378 250.288 179.74ZM263.631 187.273C262.482 187.273 261.452 187.091 260.541 186.727C259.63 186.353 258.855 185.838 258.217 185.182C257.588 184.525 257.105 183.764 256.768 182.898C256.43 182.023 256.262 181.094 256.262 180.109V179.562C256.262 178.441 256.421 177.416 256.74 176.486C257.059 175.557 257.515 174.75 258.107 174.066C258.709 173.383 259.438 172.859 260.295 172.494C261.152 172.12 262.118 171.934 263.193 171.934C264.242 171.934 265.171 172.107 265.982 172.453C266.794 172.799 267.473 173.292 268.02 173.93C268.576 174.568 268.995 175.333 269.277 176.227C269.56 177.111 269.701 178.095 269.701 179.18V180.82H257.943V178.195H265.832V177.895C265.832 177.348 265.732 176.86 265.531 176.432C265.34 175.994 265.048 175.648 264.656 175.393C264.264 175.137 263.763 175.01 263.152 175.01C262.633 175.01 262.186 175.124 261.812 175.352C261.439 175.579 261.133 175.898 260.896 176.309C260.669 176.719 260.495 177.202 260.377 177.758C260.268 178.305 260.213 178.906 260.213 179.562V180.109C260.213 180.702 260.295 181.249 260.459 181.75C260.632 182.251 260.874 182.684 261.184 183.049C261.503 183.413 261.885 183.696 262.332 183.896C262.788 184.097 263.303 184.197 263.877 184.197C264.588 184.197 265.249 184.061 265.859 183.787C266.479 183.505 267.012 183.081 267.459 182.516L269.373 184.594C269.063 185.04 268.639 185.469 268.102 185.879C267.573 186.289 266.935 186.626 266.188 186.891C265.44 187.146 264.588 187.273 263.631 187.273ZM278.902 187.273C277.754 187.273 276.724 187.091 275.812 186.727C274.901 186.353 274.126 185.838 273.488 185.182C272.859 184.525 272.376 183.764 272.039 182.898C271.701 182.023 271.533 181.094 271.533 180.109V179.562C271.533 178.441 271.692 177.416 272.011 176.486C272.33 175.557 272.786 174.75 273.379 174.066C273.98 173.383 274.709 172.859 275.566 172.494C276.423 172.12 277.389 171.934 278.464 171.934C279.513 171.934 280.442 172.107 281.254 172.453C282.065 172.799 282.744 173.292 283.291 173.93C283.847 174.568 284.266 175.333 284.548 176.227C284.831 177.111 284.972 178.095 284.972 179.18V180.82H273.214V178.195H281.103V177.895C281.103 177.348 281.003 176.86 280.802 176.432C280.611 175.994 280.319 175.648 279.927 175.393C279.535 175.137 279.034 175.01 278.423 175.01C277.904 175.01 277.457 175.124 277.084 175.352C276.71 175.579 276.405 175.898 276.168 176.309C275.94 176.719 275.767 177.202 275.648 177.758C275.539 178.305 275.484 178.906 275.484 179.562V180.109C275.484 180.702 275.566 181.249 275.73 181.75C275.903 182.251 276.145 182.684 276.455 183.049C276.774 183.413 277.157 183.696 277.603 183.896C278.059 184.097 278.574 184.197 279.148 184.197C279.859 184.197 280.52 184.061 281.13 183.787C281.75 183.505 282.283 183.081 282.73 182.516L284.644 184.594C284.334 185.04 283.91 185.469 283.373 185.879C282.844 186.289 282.206 186.626 281.459 186.891C280.711 187.146 279.859 187.273 278.902 187.273ZM291.22 175.365V187H287.282V172.207H290.974L291.22 175.365ZM290.646 179.084H289.579C289.579 177.99 289.721 177.006 290.003 176.131C290.286 175.247 290.682 174.495 291.193 173.875C291.703 173.246 292.309 172.768 293.011 172.439C293.722 172.102 294.515 171.934 295.39 171.934C296.083 171.934 296.716 172.034 297.29 172.234C297.864 172.435 298.357 172.754 298.767 173.191C299.186 173.629 299.505 174.208 299.724 174.928C299.952 175.648 300.066 176.527 300.066 177.566V187H296.101V177.553C296.101 176.896 296.01 176.386 295.827 176.021C295.645 175.657 295.376 175.402 295.021 175.256C294.674 175.101 294.246 175.023 293.736 175.023C293.207 175.023 292.747 175.128 292.355 175.338C291.972 175.548 291.653 175.839 291.398 176.213C291.152 176.577 290.965 177.006 290.837 177.498C290.709 177.99 290.646 178.519 290.646 179.084ZM318.33 182.912C318.33 182.63 318.248 182.374 318.084 182.146C317.92 181.919 317.615 181.709 317.168 181.518C316.731 181.317 316.097 181.135 315.268 180.971C314.521 180.807 313.823 180.602 313.176 180.355C312.538 180.1 311.982 179.795 311.508 179.439C311.043 179.084 310.679 178.665 310.414 178.182C310.15 177.689 310.018 177.129 310.018 176.5C310.018 175.88 310.15 175.297 310.414 174.75C310.688 174.203 311.075 173.72 311.577 173.301C312.087 172.872 312.707 172.54 313.436 172.303C314.174 172.057 315.004 171.934 315.924 171.934C317.209 171.934 318.312 172.139 319.233 172.549C320.163 172.959 320.873 173.524 321.366 174.244C321.867 174.955 322.118 175.766 322.118 176.678H318.18C318.18 176.295 318.098 175.953 317.934 175.652C317.779 175.342 317.533 175.101 317.196 174.928C316.868 174.745 316.439 174.654 315.911 174.654C315.473 174.654 315.095 174.732 314.776 174.887C314.457 175.033 314.211 175.233 314.038 175.488C313.873 175.734 313.791 176.008 313.791 176.309C313.791 176.536 313.837 176.742 313.928 176.924C314.028 177.097 314.188 177.257 314.407 177.402C314.625 177.548 314.908 177.685 315.254 177.812C315.61 177.931 316.047 178.04 316.567 178.141C317.633 178.359 318.586 178.646 319.424 179.002C320.263 179.348 320.928 179.822 321.42 180.424C321.913 181.016 322.159 181.796 322.159 182.762C322.159 183.418 322.013 184.02 321.721 184.566C321.429 185.113 321.01 185.592 320.463 186.002C319.916 186.403 319.26 186.717 318.495 186.945C317.738 187.164 316.886 187.273 315.938 187.273C314.562 187.273 313.395 187.027 312.438 186.535C311.49 186.043 310.77 185.419 310.278 184.662C309.795 183.896 309.553 183.113 309.553 182.311H313.286C313.304 182.848 313.441 183.281 313.696 183.609C313.96 183.938 314.293 184.174 314.694 184.32C315.104 184.466 315.546 184.539 316.02 184.539C316.53 184.539 316.954 184.471 317.291 184.334C317.629 184.188 317.884 183.997 318.057 183.76C318.239 183.514 318.33 183.231 318.33 182.912ZM331.674 187.273C330.525 187.273 329.495 187.091 328.584 186.727C327.673 186.353 326.898 185.838 326.26 185.182C325.631 184.525 325.148 183.764 324.811 182.898C324.473 182.023 324.305 181.094 324.305 180.109V179.562C324.305 178.441 324.464 177.416 324.783 176.486C325.102 175.557 325.558 174.75 326.15 174.066C326.752 173.383 327.481 172.859 328.338 172.494C329.195 172.12 330.161 171.934 331.236 171.934C332.285 171.934 333.214 172.107 334.025 172.453C334.837 172.799 335.516 173.292 336.062 173.93C336.618 174.568 337.038 175.333 337.32 176.227C337.603 177.111 337.744 178.095 337.744 179.18V180.82H325.986V178.195H333.875V177.895C333.875 177.348 333.775 176.86 333.574 176.432C333.383 175.994 333.091 175.648 332.699 175.393C332.307 175.137 331.806 175.01 331.195 175.01C330.676 175.01 330.229 175.124 329.855 175.352C329.482 175.579 329.176 175.898 328.939 176.309C328.712 176.719 328.538 177.202 328.42 177.758C328.311 178.305 328.256 178.906 328.256 179.562V180.109C328.256 180.702 328.338 181.249 328.502 181.75C328.675 182.251 328.917 182.684 329.227 183.049C329.546 183.413 329.928 183.696 330.375 183.896C330.831 184.097 331.346 184.197 331.92 184.197C332.631 184.197 333.292 184.061 333.902 183.787C334.522 183.505 335.055 183.081 335.502 182.516L337.416 184.594C337.106 185.04 336.682 185.469 336.145 185.879C335.616 186.289 334.978 186.626 334.23 186.891C333.483 187.146 332.631 187.273 331.674 187.273ZM347.382 172.207V174.996H338.769V172.207H347.382ZM340.902 168.557H344.839V182.543C344.839 182.971 344.894 183.299 345.004 183.527C345.122 183.755 345.295 183.915 345.523 184.006C345.751 184.088 346.038 184.129 346.384 184.129C346.63 184.129 346.849 184.12 347.041 184.102C347.241 184.074 347.41 184.047 347.546 184.02L347.56 186.918C347.223 187.027 346.858 187.114 346.466 187.178C346.074 187.242 345.642 187.273 345.168 187.273C344.302 187.273 343.545 187.132 342.898 186.85C342.26 186.558 341.768 186.093 341.421 185.455C341.075 184.817 340.902 183.979 340.902 182.939V168.557ZM83.5844 207.459V196.207H87.5219V211H83.8168L83.5844 207.459ZM84.0219 204.424L85.184 204.396C85.184 205.381 85.0701 206.297 84.8422 207.145C84.6143 207.983 84.2725 208.712 83.8168 209.332C83.3611 209.943 82.7868 210.421 82.0941 210.768C81.4014 211.105 80.5857 211.273 79.6469 211.273C78.9268 211.273 78.2615 211.173 77.6508 210.973C77.0492 210.763 76.5297 210.439 76.0922 210.002C75.6638 209.555 75.3266 208.986 75.0805 208.293C74.8435 207.591 74.725 206.748 74.725 205.764V196.207H78.6625V205.791C78.6625 206.229 78.7126 206.598 78.8129 206.898C78.9223 207.199 79.0727 207.445 79.2641 207.637C79.4555 207.828 79.6788 207.965 79.934 208.047C80.1983 208.129 80.49 208.17 80.809 208.17C81.6202 208.17 82.2582 208.006 82.723 207.678C83.197 207.35 83.5297 206.903 83.7211 206.338C83.9216 205.764 84.0219 205.126 84.0219 204.424ZM94.6172 199.051V216.688H90.6797V196.207H94.3301L94.6172 199.051ZM103.982 203.439V203.727C103.982 204.802 103.855 205.8 103.6 206.721C103.354 207.641 102.989 208.443 102.506 209.127C102.023 209.801 101.421 210.33 100.701 210.713C99.9902 211.087 99.1699 211.273 98.2402 211.273C97.3379 211.273 96.554 211.091 95.8887 210.727C95.2233 210.362 94.6628 209.852 94.207 209.195C93.7604 208.53 93.4004 207.76 93.127 206.885C92.8535 206.01 92.6439 205.071 92.498 204.068V203.316C92.6439 202.241 92.8535 201.257 93.127 200.363C93.4004 199.461 93.7604 198.682 94.207 198.025C94.6628 197.36 95.2188 196.845 95.875 196.48C96.5404 196.116 97.3197 195.934 98.2129 195.934C99.1517 195.934 99.9766 196.111 100.688 196.467C101.408 196.822 102.009 197.333 102.492 197.998C102.984 198.663 103.354 199.456 103.6 200.377C103.855 201.298 103.982 202.318 103.982 203.439ZM100.031 203.727V203.439C100.031 202.811 99.9766 202.232 99.8672 201.703C99.7669 201.165 99.6029 200.696 99.375 200.295C99.1562 199.894 98.8646 199.584 98.5 199.365C98.1445 199.137 97.7116 199.023 97.2012 199.023C96.6634 199.023 96.2031 199.11 95.8203 199.283C95.4466 199.456 95.1413 199.707 94.9043 200.035C94.6673 200.363 94.4896 200.755 94.3711 201.211C94.2526 201.667 94.1797 202.182 94.1523 202.756V204.656C94.1979 205.331 94.3255 205.937 94.5352 206.475C94.7448 207.003 95.0684 207.423 95.5059 207.732C95.9434 208.042 96.5176 208.197 97.2285 208.197C97.748 208.197 98.1855 208.083 98.541 207.855C98.8965 207.618 99.1836 207.295 99.4023 206.885C99.6302 206.475 99.7897 206.001 99.8809 205.463C99.9811 204.925 100.031 204.346 100.031 203.727ZM118.72 211H114.755V194.895C114.755 193.773 114.974 192.83 115.411 192.064C115.858 191.29 116.482 190.706 117.284 190.314C118.096 189.913 119.057 189.713 120.169 189.713C120.534 189.713 120.885 189.74 121.222 189.795C121.559 189.84 121.887 189.9 122.206 189.973L122.165 192.939C121.992 192.894 121.81 192.862 121.618 192.844C121.427 192.826 121.204 192.816 120.948 192.816C120.474 192.816 120.069 192.898 119.732 193.062C119.404 193.217 119.153 193.45 118.98 193.76C118.807 194.07 118.72 194.448 118.72 194.895V211ZM121.673 196.207V198.996H112.554V196.207H121.673ZM123.259 203.754V203.467C123.259 202.382 123.414 201.384 123.723 200.473C124.033 199.552 124.485 198.755 125.077 198.08C125.669 197.406 126.399 196.882 127.264 196.508C128.13 196.125 129.124 195.934 130.245 195.934C131.366 195.934 132.364 196.125 133.239 196.508C134.114 196.882 134.848 197.406 135.44 198.08C136.042 198.755 136.498 199.552 136.807 200.473C137.117 201.384 137.272 202.382 137.272 203.467V203.754C137.272 204.829 137.117 205.827 136.807 206.748C136.498 207.66 136.042 208.457 135.44 209.141C134.848 209.815 134.119 210.339 133.253 210.713C132.387 211.087 131.393 211.273 130.272 211.273C129.151 211.273 128.153 211.087 127.278 210.713C126.412 210.339 125.679 209.815 125.077 209.141C124.485 208.457 124.033 207.66 123.723 206.748C123.414 205.827 123.259 204.829 123.259 203.754ZM127.196 203.467V203.754C127.196 204.374 127.251 204.952 127.36 205.49C127.47 206.028 127.643 206.502 127.88 206.912C128.126 207.313 128.445 207.628 128.837 207.855C129.229 208.083 129.707 208.197 130.272 208.197C130.819 208.197 131.289 208.083 131.68 207.855C132.072 207.628 132.387 207.313 132.624 206.912C132.861 206.502 133.034 206.028 133.143 205.49C133.262 204.952 133.321 204.374 133.321 203.754V203.467C133.321 202.865 133.262 202.3 133.143 201.771C133.034 201.234 132.856 200.76 132.61 200.35C132.373 199.93 132.059 199.602 131.667 199.365C131.275 199.128 130.801 199.01 130.245 199.01C129.689 199.01 129.215 199.128 128.823 199.365C128.44 199.602 128.126 199.93 127.88 200.35C127.643 200.76 127.47 201.234 127.36 201.771C127.251 202.3 127.196 202.865 127.196 203.467ZM143.78 199.434V211H139.842V196.207H143.547L143.78 199.434ZM148.237 196.111L148.168 199.762C147.977 199.734 147.745 199.712 147.471 199.693C147.207 199.666 146.965 199.652 146.746 199.652C146.191 199.652 145.707 199.725 145.297 199.871C144.896 200.008 144.559 200.213 144.286 200.486C144.021 200.76 143.821 201.092 143.684 201.484C143.556 201.876 143.483 202.323 143.465 202.824L142.672 202.578C142.672 201.621 142.768 200.742 142.959 199.939C143.151 199.128 143.429 198.422 143.793 197.82C144.167 197.219 144.623 196.754 145.161 196.426C145.698 196.098 146.314 195.934 147.006 195.934C147.225 195.934 147.448 195.952 147.676 195.988C147.904 196.016 148.091 196.057 148.237 196.111ZM173.392 200.596V208.484C173.082 208.858 172.604 209.264 171.957 209.701C171.309 210.13 170.476 210.499 169.455 210.809C168.434 211.118 167.199 211.273 165.75 211.273C164.464 211.273 163.293 211.064 162.236 210.645C161.179 210.216 160.267 209.592 159.502 208.771C158.745 207.951 158.162 206.949 157.752 205.764C157.341 204.57 157.136 203.207 157.136 201.676V200.432C157.136 198.9 157.332 197.538 157.724 196.344C158.125 195.15 158.695 194.143 159.433 193.322C160.171 192.502 161.051 191.878 162.072 191.449C163.093 191.021 164.227 190.807 165.476 190.807C167.208 190.807 168.63 191.089 169.742 191.654C170.854 192.21 171.701 192.985 172.285 193.979C172.877 194.963 173.242 196.093 173.379 197.369H169.4C169.3 196.695 169.108 196.107 168.826 195.605C168.543 195.104 168.138 194.712 167.609 194.43C167.089 194.147 166.415 194.006 165.586 194.006C164.902 194.006 164.291 194.147 163.754 194.43C163.225 194.703 162.778 195.109 162.414 195.646C162.049 196.184 161.771 196.85 161.58 197.643C161.388 198.436 161.293 199.356 161.293 200.404V201.676C161.293 202.715 161.393 203.635 161.593 204.438C161.794 205.23 162.09 205.9 162.482 206.447C162.883 206.985 163.375 207.391 163.959 207.664C164.542 207.938 165.221 208.074 165.996 208.074C166.643 208.074 167.181 208.02 167.609 207.91C168.046 207.801 168.397 207.669 168.662 207.514C168.935 207.35 169.145 207.195 169.291 207.049V203.521H165.545V200.596H173.392ZM183.413 211.273C182.265 211.273 181.235 211.091 180.323 210.727C179.412 210.353 178.637 209.838 177.999 209.182C177.37 208.525 176.887 207.764 176.55 206.898C176.213 206.023 176.044 205.094 176.044 204.109V203.562C176.044 202.441 176.204 201.416 176.523 200.486C176.842 199.557 177.297 198.75 177.89 198.066C178.491 197.383 179.221 196.859 180.077 196.494C180.934 196.12 181.9 195.934 182.976 195.934C184.024 195.934 184.954 196.107 185.765 196.453C186.576 196.799 187.255 197.292 187.802 197.93C188.358 198.568 188.777 199.333 189.06 200.227C189.342 201.111 189.484 202.095 189.484 203.18V204.82H177.726V202.195H185.614V201.895C185.614 201.348 185.514 200.86 185.314 200.432C185.122 199.994 184.831 199.648 184.439 199.393C184.047 199.137 183.545 199.01 182.935 199.01C182.415 199.01 181.969 199.124 181.595 199.352C181.221 199.579 180.916 199.898 180.679 200.309C180.451 200.719 180.278 201.202 180.159 201.758C180.05 202.305 179.995 202.906 179.995 203.562V204.109C179.995 204.702 180.077 205.249 180.241 205.75C180.415 206.251 180.656 206.684 180.966 207.049C181.285 207.413 181.668 207.696 182.114 207.896C182.57 208.097 183.085 208.197 183.659 208.197C184.37 208.197 185.031 208.061 185.642 207.787C186.262 207.505 186.795 207.081 187.241 206.516L189.155 208.594C188.846 209.04 188.422 209.469 187.884 209.879C187.355 210.289 186.717 210.626 185.97 210.891C185.223 211.146 184.37 211.273 183.413 211.273ZM191.247 203.754V203.467C191.247 202.382 191.402 201.384 191.712 200.473C192.022 199.552 192.473 198.755 193.065 198.08C193.658 197.406 194.387 196.882 195.253 196.508C196.119 196.125 197.112 195.934 198.233 195.934C199.354 195.934 200.352 196.125 201.227 196.508C202.102 196.882 202.836 197.406 203.429 198.08C204.03 198.755 204.486 199.552 204.796 200.473C205.106 201.384 205.261 202.382 205.261 203.467V203.754C205.261 204.829 205.106 205.827 204.796 206.748C204.486 207.66 204.03 208.457 203.429 209.141C202.836 209.815 202.107 210.339 201.241 210.713C200.375 211.087 199.382 211.273 198.261 211.273C197.139 211.273 196.141 211.087 195.266 210.713C194.401 210.339 193.667 209.815 193.065 209.141C192.473 208.457 192.022 207.66 191.712 206.748C191.402 205.827 191.247 204.829 191.247 203.754ZM195.184 203.467V203.754C195.184 204.374 195.239 204.952 195.348 205.49C195.458 206.028 195.631 206.502 195.868 206.912C196.114 207.313 196.433 207.628 196.825 207.855C197.217 208.083 197.695 208.197 198.261 208.197C198.807 208.197 199.277 208.083 199.669 207.855C200.061 207.628 200.375 207.313 200.612 206.912C200.849 206.502 201.022 206.028 201.132 205.49C201.25 204.952 201.309 204.374 201.309 203.754V203.467C201.309 202.865 201.25 202.3 201.132 201.771C201.022 201.234 200.845 200.76 200.598 200.35C200.361 199.93 200.047 199.602 199.655 199.365C199.263 199.128 198.789 199.01 198.233 199.01C197.677 199.01 197.203 199.128 196.811 199.365C196.429 199.602 196.114 199.93 195.868 200.35C195.631 200.76 195.458 201.234 195.348 201.771C195.239 202.3 195.184 202.865 195.184 203.467ZM212.848 211H208.883V194.895C208.883 193.773 209.102 192.83 209.539 192.064C209.986 191.29 210.61 190.706 211.413 190.314C212.224 189.913 213.185 189.713 214.297 189.713C214.662 189.713 215.013 189.74 215.35 189.795C215.687 189.84 216.015 189.9 216.334 189.973L216.293 192.939C216.12 192.894 215.938 192.862 215.746 192.844C215.555 192.826 215.332 192.816 215.077 192.816C214.603 192.816 214.197 192.898 213.86 193.062C213.532 193.217 213.281 193.45 213.108 193.76C212.935 194.07 212.848 194.448 212.848 194.895V211ZM215.801 196.207V198.996H206.682V196.207H215.801ZM224.496 211.273C223.348 211.273 222.318 211.091 221.406 210.727C220.495 210.353 219.72 209.838 219.082 209.182C218.453 208.525 217.97 207.764 217.633 206.898C217.296 206.023 217.127 205.094 217.127 204.109V203.562C217.127 202.441 217.286 201.416 217.605 200.486C217.924 199.557 218.38 198.75 218.973 198.066C219.574 197.383 220.303 196.859 221.16 196.494C222.017 196.12 222.983 195.934 224.059 195.934C225.107 195.934 226.036 196.107 226.848 196.453C227.659 196.799 228.338 197.292 228.885 197.93C229.441 198.568 229.86 199.333 230.143 200.227C230.425 201.111 230.566 202.095 230.566 203.18V204.82H218.809V202.195H226.697V201.895C226.697 201.348 226.597 200.86 226.396 200.432C226.205 199.994 225.913 199.648 225.521 199.393C225.13 199.137 224.628 199.01 224.018 199.01C223.498 199.01 223.051 199.124 222.678 199.352C222.304 199.579 221.999 199.898 221.762 200.309C221.534 200.719 221.361 201.202 221.242 201.758C221.133 202.305 221.078 202.906 221.078 203.562V204.109C221.078 204.702 221.16 205.249 221.324 205.75C221.497 206.251 221.739 206.684 222.049 207.049C222.368 207.413 222.751 207.696 223.197 207.896C223.653 208.097 224.168 208.197 224.742 208.197C225.453 208.197 226.114 208.061 226.725 207.787C227.344 207.505 227.878 207.081 228.324 206.516L230.238 208.594C229.928 209.04 229.505 209.469 228.967 209.879C228.438 210.289 227.8 210.626 227.053 210.891C226.305 211.146 225.453 211.273 224.496 211.273ZM236.814 199.365V211H232.877V196.207H236.568L236.814 199.365ZM236.24 203.084H235.173C235.173 201.99 235.315 201.006 235.597 200.131C235.88 199.247 236.276 198.495 236.787 197.875C237.297 197.246 237.903 196.768 238.605 196.439C239.316 196.102 240.109 195.934 240.984 195.934C241.677 195.934 242.31 196.034 242.884 196.234C243.459 196.435 243.951 196.754 244.361 197.191C244.78 197.629 245.099 198.208 245.318 198.928C245.546 199.648 245.66 200.527 245.66 201.566V211H241.695V201.553C241.695 200.896 241.604 200.386 241.421 200.021C241.239 199.657 240.97 199.402 240.615 199.256C240.268 199.101 239.84 199.023 239.33 199.023C238.801 199.023 238.341 199.128 237.949 199.338C237.566 199.548 237.247 199.839 236.992 200.213C236.746 200.577 236.559 201.006 236.431 201.498C236.304 201.99 236.24 202.519 236.24 203.084ZM254.915 208.197C255.398 208.197 255.827 208.106 256.2 207.924C256.574 207.732 256.866 207.468 257.075 207.131C257.294 206.785 257.408 206.379 257.417 205.914H261.122C261.113 206.953 260.835 207.878 260.288 208.689C259.741 209.492 259.008 210.125 258.087 210.59C257.167 211.046 256.137 211.273 254.997 211.273C253.849 211.273 252.846 211.082 251.989 210.699C251.142 210.316 250.435 209.788 249.87 209.113C249.305 208.43 248.881 207.637 248.599 206.734C248.316 205.823 248.175 204.848 248.175 203.809V203.412C248.175 202.364 248.316 201.389 248.599 200.486C248.881 199.575 249.305 198.782 249.87 198.107C250.435 197.424 251.142 196.891 251.989 196.508C252.837 196.125 253.831 195.934 254.97 195.934C256.182 195.934 257.244 196.166 258.155 196.631C259.076 197.096 259.796 197.761 260.316 198.627C260.844 199.484 261.113 200.5 261.122 201.676H257.417C257.408 201.184 257.303 200.737 257.103 200.336C256.911 199.935 256.629 199.616 256.255 199.379C255.89 199.133 255.439 199.01 254.902 199.01C254.327 199.01 253.858 199.133 253.493 199.379C253.129 199.616 252.846 199.944 252.646 200.363C252.445 200.773 252.304 201.243 252.222 201.771C252.149 202.291 252.112 202.838 252.112 203.412V203.809C252.112 204.383 252.149 204.934 252.222 205.463C252.295 205.992 252.431 206.461 252.632 206.871C252.842 207.281 253.129 207.605 253.493 207.842C253.858 208.079 254.332 208.197 254.915 208.197ZM267.712 196.207V211H263.761V196.207H267.712ZM263.514 192.352C263.514 191.777 263.715 191.303 264.116 190.93C264.517 190.556 265.055 190.369 265.729 190.369C266.395 190.369 266.928 190.556 267.329 190.93C267.739 191.303 267.944 191.777 267.944 192.352C267.944 192.926 267.739 193.4 267.329 193.773C266.928 194.147 266.395 194.334 265.729 194.334C265.055 194.334 264.517 194.147 264.116 193.773C263.715 193.4 263.514 192.926 263.514 192.352ZM274.971 199.365V211H271.034V196.207H274.725L274.971 199.365ZM274.397 203.084H273.33C273.33 201.99 273.472 201.006 273.754 200.131C274.037 199.247 274.433 198.495 274.944 197.875C275.454 197.246 276.06 196.768 276.762 196.439C277.473 196.102 278.266 195.934 279.141 195.934C279.834 195.934 280.467 196.034 281.041 196.234C281.616 196.435 282.108 196.754 282.518 197.191C282.937 197.629 283.256 198.208 283.475 198.928C283.703 199.648 283.817 200.527 283.817 201.566V211H279.852V201.553C279.852 200.896 279.761 200.386 279.579 200.021C279.396 199.657 279.127 199.402 278.772 199.256C278.426 199.101 277.997 199.023 277.487 199.023C276.958 199.023 276.498 199.128 276.106 199.338C275.723 199.548 275.404 199.839 275.149 200.213C274.903 200.577 274.716 201.006 274.588 201.498C274.461 201.99 274.397 202.519 274.397 203.084ZM296.326 196.207H299.895V210.508C299.895 211.857 299.594 213.001 298.992 213.939C298.4 214.887 297.57 215.603 296.504 216.086C295.438 216.578 294.198 216.824 292.785 216.824C292.165 216.824 291.509 216.742 290.816 216.578C290.133 216.414 289.477 216.159 288.848 215.812C288.228 215.466 287.708 215.029 287.289 214.5L289.025 212.176C289.481 212.704 290.01 213.115 290.611 213.406C291.213 213.707 291.878 213.857 292.607 213.857C293.318 213.857 293.92 213.725 294.412 213.461C294.904 213.206 295.283 212.827 295.547 212.326C295.811 211.834 295.943 211.237 295.943 210.535V199.625L296.326 196.207ZM286.373 203.781V203.494C286.373 202.364 286.51 201.339 286.783 200.418C287.066 199.488 287.462 198.691 287.973 198.025C288.492 197.36 289.121 196.845 289.859 196.48C290.598 196.116 291.432 195.934 292.361 195.934C293.346 195.934 294.171 196.116 294.836 196.48C295.501 196.845 296.048 197.365 296.477 198.039C296.905 198.704 297.238 199.493 297.475 200.404C297.721 201.307 297.912 202.296 298.049 203.371V204C297.912 205.03 297.707 205.987 297.434 206.871C297.16 207.755 296.8 208.53 296.354 209.195C295.907 209.852 295.351 210.362 294.686 210.727C294.029 211.091 293.245 211.273 292.334 211.273C291.423 211.273 290.598 211.087 289.859 210.713C289.13 210.339 288.506 209.815 287.986 209.141C287.467 208.466 287.066 207.673 286.783 206.762C286.51 205.85 286.373 204.857 286.373 203.781ZM290.311 203.494V203.781C290.311 204.392 290.37 204.962 290.488 205.49C290.607 206.019 290.789 206.488 291.035 206.898C291.29 207.299 291.605 207.614 291.979 207.842C292.361 208.061 292.812 208.17 293.332 208.17C294.052 208.17 294.64 208.02 295.096 207.719C295.551 207.409 295.893 206.985 296.121 206.447C296.349 205.91 296.481 205.29 296.518 204.588V202.797C296.499 202.223 296.422 201.708 296.285 201.252C296.148 200.787 295.957 200.391 295.711 200.062C295.465 199.734 295.146 199.479 294.754 199.297C294.362 199.115 293.897 199.023 293.359 199.023C292.84 199.023 292.389 199.142 292.006 199.379C291.632 199.607 291.318 199.921 291.062 200.322C290.816 200.723 290.63 201.197 290.502 201.744C290.374 202.282 290.311 202.865 290.311 203.494ZM303.298 209.1C303.298 208.516 303.499 208.029 303.9 207.637C304.31 207.245 304.852 207.049 305.527 207.049C306.201 207.049 306.739 207.245 307.14 207.637C307.55 208.029 307.755 208.516 307.755 209.1C307.755 209.683 307.55 210.171 307.14 210.562C306.739 210.954 306.201 211.15 305.527 211.15C304.852 211.15 304.31 210.954 303.9 210.562C303.499 210.171 303.298 209.683 303.298 209.1Z" fill="white"/>
<rect x="10.5" y="10.5" width="362" height="307" rx="16.5" stroke="#020202"/>
</g>
<defs>
<filter id="filter0_d_912_183" x="0" y="0" width="393" height="338" filterUnits="userSpaceOnUse" color-interpolation-filters="sRGB">
<feFlood flood-opacity="0" result="BackgroundImageFix"/>
<feColorMatrix in="SourceAlpha" type="matrix" values="0 0 0 0 0 0 0 0 0 0 0 0 0 0 0 0 0 0 127 0" result="hardAlpha"/>
<feOffset dx="5" dy="5"/>
<feGaussianBlur stdDeviation="7.5"/>
<feColorMatrix type="matrix" values="0 0 0 0 0 0 0 0 0 0 0 0 0 0 0 0 0 0 0.25 0"/>
<feBlend mode="normal" in2="BackgroundImageFix" result="effect1_dropShadow_912_183"/>
<feBlend mode="normal" in="SourceGraphic" in2="effect1_dropShadow_912_183" result="shape"/>
</filter>
</defs>
</svg>
