<svg width="162" height="131" viewBox="0 0 162 131" fill="none" xmlns="http://www.w3.org/2000/svg">
<rect width="162" height="131" rx="12" fill="#C01DDA"/>
<path d="M56.1854 54.6953L61.0423 38.3828H65.7718L58.5926 59H55.4773L56.1854 54.6953ZM51.7107 38.3828L56.5535 54.6953L57.2898 59H54.1463L47.0096 38.3828H51.7107ZM71.8974 43.6787V59H67.8051V43.6787H71.8974ZM67.5502 39.6855C67.5502 39.0908 67.7579 38.5999 68.1732 38.2129C68.5886 37.8258 69.1456 37.6323 69.8441 37.6323C70.5333 37.6323 71.0855 37.8258 71.5009 38.2129C71.9257 38.5999 72.1381 39.0908 72.1381 39.6855C72.1381 40.2803 71.9257 40.7712 71.5009 41.1582C71.0855 41.5452 70.5333 41.7388 69.8441 41.7388C69.1456 41.7388 68.5886 41.5452 68.1732 41.1582C67.7579 40.7712 67.5502 40.2803 67.5502 39.6855ZM82.4692 59.2832C81.2798 59.2832 80.2131 59.0944 79.269 58.7168C78.325 58.3298 77.5226 57.7964 76.8618 57.1167C76.2104 56.437 75.7101 55.6488 75.3608 54.752C75.0116 53.8457 74.8369 52.8828 74.8369 51.8633V51.2969C74.8369 50.1357 75.0021 49.0737 75.3325 48.1108C75.6629 47.1479 76.1349 46.3125 76.7485 45.6045C77.3716 44.8965 78.1268 44.3537 79.0142 43.9761C79.9015 43.589 80.9022 43.3955 82.0161 43.3955C83.1017 43.3955 84.0646 43.5749 84.9048 43.9336C85.745 44.2923 86.4482 44.8021 87.0146 45.4629C87.5905 46.1237 88.0247 46.9167 88.3174 47.8418C88.61 48.7575 88.7563 49.777 88.7563 50.9004V52.5996H76.5786V49.8809H84.749V49.5693C84.749 49.0029 84.6452 48.4979 84.4375 48.0542C84.2393 47.6011 83.9372 47.2424 83.5312 46.978C83.1253 46.7137 82.6061 46.5815 81.9736 46.5815C81.4355 46.5815 80.973 46.6995 80.5859 46.9355C80.1989 47.1715 79.8826 47.502 79.6372 47.9268C79.4012 48.3516 79.2218 48.8519 79.0991 49.4277C78.9858 49.9941 78.9292 50.6172 78.9292 51.2969V51.8633C78.9292 52.4769 79.0142 53.0433 79.1841 53.5625C79.3634 54.0817 79.6136 54.5301 79.9346 54.9077C80.265 55.2853 80.6615 55.578 81.124 55.7856C81.596 55.9933 82.1294 56.0972 82.7241 56.0972C83.4604 56.0972 84.1449 55.9556 84.7773 55.6724C85.4193 55.3797 85.9715 54.9408 86.4341 54.3555L88.4165 56.5078C88.0955 56.9704 87.6566 57.4141 87.0996 57.8389C86.5521 58.2637 85.8913 58.613 85.1172 58.8867C84.3431 59.151 83.4604 59.2832 82.4692 59.2832ZM95.6041 55.0352L98.7901 43.6787H101.381L100.546 48.1392L97.36 59H95.1935L95.6041 55.0352ZM93.9898 43.6787L96.2696 55.021L96.482 59H93.9332L90.0533 43.6787H93.9898ZM104.298 54.8369L106.522 43.6787H110.472L106.592 59H104.058L104.298 54.8369ZM101.735 43.6787L104.907 54.9502L105.346 59H103.166L99.9796 48.1533L99.1725 43.6787H101.735ZM37.1557 86.6865V90H26.7763V86.6865H37.1557ZM28.1498 69.3828V90H23.9018V69.3828H28.1498ZM38.835 82.4951V82.1978C38.835 81.0744 38.9954 80.0407 39.3164 79.0967C39.6374 78.1432 40.1047 77.3172 40.7183 76.6187C41.3319 75.9201 42.0871 75.3773 42.9839 74.9902C43.8807 74.5938 44.9097 74.3955 46.0708 74.3955C47.2319 74.3955 48.2656 74.5938 49.1719 74.9902C50.0781 75.3773 50.8381 75.9201 51.4517 76.6187C52.0747 77.3172 52.5467 78.1432 52.8677 79.0967C53.1886 80.0407 53.3491 81.0744 53.3491 82.1978V82.4951C53.3491 83.609 53.1886 84.6427 52.8677 85.5962C52.5467 86.5402 52.0747 87.3662 51.4517 88.0742C50.8381 88.7728 50.0828 89.3156 49.186 89.7026C48.2892 90.0897 47.2603 90.2832 46.0991 90.2832C44.938 90.2832 43.9043 90.0897 42.998 89.7026C42.1012 89.3156 41.3413 88.7728 40.7183 88.0742C40.1047 87.3662 39.6374 86.5402 39.3164 85.5962C38.9954 84.6427 38.835 83.609 38.835 82.4951ZM42.9131 82.1978V82.4951C42.9131 83.137 42.9697 83.7365 43.083 84.2935C43.1963 84.8504 43.3756 85.3413 43.6211 85.7661C43.876 86.1815 44.2064 86.5072 44.6123 86.7432C45.0182 86.9792 45.5138 87.0972 46.0991 87.0972C46.6655 87.0972 47.1517 86.9792 47.5576 86.7432C47.9635 86.5072 48.2892 86.1815 48.5347 85.7661C48.7801 85.3413 48.9595 84.8504 49.0728 84.2935C49.1955 83.7365 49.2568 83.137 49.2568 82.4951V82.1978C49.2568 81.5747 49.1955 80.9894 49.0728 80.4419C48.9595 79.8849 48.7754 79.394 48.5205 78.9692C48.2751 78.535 47.9494 78.1951 47.5435 77.9497C47.1375 77.7043 46.6466 77.5815 46.0708 77.5815C45.495 77.5815 45.0041 77.7043 44.5981 77.9497C44.2017 78.1951 43.876 78.535 43.6211 78.9692C43.3756 79.394 43.1963 79.8849 43.083 80.4419C42.9697 80.9894 42.9131 81.5747 42.9131 82.1978ZM62.3351 87.0972C62.8354 87.0972 63.2791 87.0028 63.6661 86.814C64.0532 86.6157 64.3552 86.342 64.5724 85.9927C64.7989 85.634 64.9169 85.2139 64.9264 84.7324H68.7638C68.7543 85.8086 68.4664 86.7668 67.9 87.6069C67.3336 88.4377 66.5737 89.0938 65.6202 89.5752C64.6668 90.0472 63.6 90.2832 62.42 90.2832C61.2306 90.2832 60.1922 90.085 59.3048 89.6885C58.4269 89.292 57.6952 88.7445 57.11 88.0459C56.5247 87.3379 56.0857 86.5166 55.7931 85.582C55.5004 84.638 55.3541 83.6279 55.3541 82.5518V82.1411C55.3541 81.0555 55.5004 80.0454 55.7931 79.1108C56.0857 78.1668 56.5247 77.3455 57.11 76.647C57.6952 75.939 58.4269 75.3867 59.3048 74.9902C60.1827 74.5938 61.2117 74.3955 62.3917 74.3955C63.6472 74.3955 64.747 74.6362 65.691 75.1177C66.6445 75.5991 67.3902 76.2882 67.9283 77.1851C68.4758 78.0724 68.7543 79.125 68.7638 80.3428H64.9264C64.9169 79.833 64.8084 79.3704 64.6007 78.9551C64.4024 78.5397 64.1098 78.2093 63.7228 77.9639C63.3451 77.709 62.8779 77.5815 62.3209 77.5815C61.7262 77.5815 61.24 77.709 60.8624 77.9639C60.4848 78.2093 60.1922 78.5492 59.9845 78.9834C59.7768 79.4082 59.6305 79.8944 59.5455 80.4419C59.47 80.98 59.4322 81.5464 59.4322 82.1411V82.5518C59.4322 83.1465 59.47 83.7176 59.5455 84.2651C59.621 84.8127 59.7626 85.2988 59.9703 85.7236C60.1874 86.1484 60.4848 86.4836 60.8624 86.729C61.24 86.9744 61.7309 87.0972 62.3351 87.0972ZM79.548 86.5449V79.7197C79.548 79.2288 79.4678 78.8088 79.3073 78.4595C79.1468 78.1007 78.8967 77.8223 78.5568 77.624C78.2264 77.4258 77.7969 77.3267 77.2683 77.3267C76.8151 77.3267 76.4234 77.4069 76.093 77.5674C75.7626 77.7184 75.5077 77.9403 75.3283 78.2329C75.149 78.5161 75.0593 78.8512 75.0593 79.2383H70.9812C70.9812 78.5869 71.1322 77.9686 71.4343 77.3833C71.7364 76.798 72.1753 76.2835 72.7512 75.8398C73.327 75.3867 74.0114 75.0327 74.8044 74.7778C75.6068 74.5229 76.5036 74.3955 77.4948 74.3955C78.6843 74.3955 79.7416 74.5938 80.6667 74.9902C81.5918 75.3867 82.3187 75.9814 82.8474 76.7744C83.3854 77.5674 83.6545 78.5586 83.6545 79.748V86.3042C83.6545 87.1444 83.7064 87.8335 83.8103 88.3716C83.9141 88.9002 84.0651 89.3628 84.2634 89.7593V90H80.1428C79.9445 89.5846 79.7935 89.0654 79.6896 88.4424C79.5952 87.8099 79.548 87.1774 79.548 86.5449ZM80.0861 80.6685L80.1145 82.9766H77.8347C77.2966 82.9766 76.8293 83.0379 76.4328 83.1606C76.0363 83.2834 75.7106 83.458 75.4558 83.6846C75.2009 83.9017 75.0121 84.1566 74.8894 84.4492C74.7761 84.7419 74.7194 85.0628 74.7194 85.4121C74.7194 85.7614 74.7997 86.0776 74.9602 86.3608C75.1206 86.6346 75.3519 86.8517 75.654 87.0122C75.9561 87.1632 76.3101 87.2388 76.716 87.2388C77.3296 87.2388 77.863 87.116 78.3161 86.8706C78.7692 86.6252 79.1185 86.3231 79.364 85.9644C79.6188 85.6056 79.751 85.2658 79.7604 84.9448L80.8366 86.6724C80.6856 87.0594 80.4779 87.4606 80.2136 87.876C79.9587 88.2913 79.633 88.6831 79.2365 89.0513C78.84 89.41 78.3633 89.7074 77.8063 89.9434C77.2494 90.1699 76.5886 90.2832 75.8239 90.2832C74.8516 90.2832 73.9689 90.0897 73.176 89.7026C72.3924 89.3062 71.7694 88.7633 71.3068 88.0742C70.8537 87.3757 70.6271 86.5827 70.6271 85.6953C70.6271 84.8929 70.7782 84.1802 71.0803 83.5571C71.3824 82.9341 71.826 82.4102 72.4113 81.9854C73.0061 81.5511 73.7471 81.2254 74.6345 81.0083C75.5218 80.7817 76.5508 80.6685 77.7214 80.6685H80.0861ZM94.4529 74.6787V77.5674H85.532V74.6787H94.4529ZM87.741 70.8979H91.8191V85.3838C91.8191 85.8275 91.8758 86.1673 91.9891 86.4033C92.1118 86.6393 92.2911 86.8045 92.5271 86.8989C92.7631 86.9839 93.0605 87.0264 93.4192 87.0264C93.6741 87.0264 93.9007 87.0169 94.0989 86.998C94.3066 86.9697 94.4812 86.9414 94.6228 86.9131L94.637 89.915C94.2877 90.0283 93.9101 90.118 93.5042 90.1841C93.0983 90.2502 92.6499 90.2832 92.159 90.2832C91.2622 90.2832 90.4786 90.1369 89.8084 89.8442C89.1476 89.5422 88.6378 89.0607 88.2791 88.3999C87.9204 87.7391 87.741 86.8706 87.741 85.7944V70.8979ZM101.23 74.6787V90H97.1376V74.6787H101.23ZM96.8827 70.6855C96.8827 70.0908 97.0904 69.5999 97.5058 69.2129C97.9211 68.8258 98.4781 68.6323 99.1767 68.6323C99.8658 68.6323 100.418 68.8258 100.833 69.2129C101.258 69.5999 101.471 70.0908 101.471 70.6855C101.471 71.2803 101.258 71.7712 100.833 72.1582C100.418 72.5452 99.8658 72.7388 99.1767 72.7388C98.4781 72.7388 97.9211 72.5452 97.5058 72.1582C97.0904 71.7712 96.8827 71.2803 96.8827 70.6855ZM104.099 82.4951V82.1978C104.099 81.0744 104.259 80.0407 104.58 79.0967C104.901 78.1432 105.368 77.3172 105.982 76.6187C106.596 75.9201 107.351 75.3773 108.248 74.9902C109.144 74.5938 110.173 74.3955 111.334 74.3955C112.496 74.3955 113.529 74.5938 114.436 74.9902C115.342 75.3773 116.102 75.9201 116.715 76.6187C117.338 77.3172 117.81 78.1432 118.131 79.0967C118.452 80.0407 118.613 81.0744 118.613 82.1978V82.4951C118.613 83.609 118.452 84.6427 118.131 85.5962C117.81 86.5402 117.338 87.3662 116.715 88.0742C116.102 88.7728 115.347 89.3156 114.45 89.7026C113.553 90.0897 112.524 90.2832 111.363 90.2832C110.202 90.2832 109.168 90.0897 108.262 89.7026C107.365 89.3156 106.605 88.7728 105.982 88.0742C105.368 87.3662 104.901 86.5402 104.58 85.5962C104.259 84.6427 104.099 83.609 104.099 82.4951ZM108.177 82.1978V82.4951C108.177 83.137 108.233 83.7365 108.347 84.2935C108.46 84.8504 108.639 85.3413 108.885 85.7661C109.14 86.1815 109.47 86.5072 109.876 86.7432C110.282 86.9792 110.778 87.0972 111.363 87.0972C111.929 87.0972 112.415 86.9792 112.821 86.7432C113.227 86.5072 113.553 86.1815 113.798 85.7661C114.044 85.3413 114.223 84.8504 114.336 84.2935C114.459 83.7365 114.521 83.137 114.521 82.4951V82.1978C114.521 81.5747 114.459 80.9894 114.336 80.4419C114.223 79.8849 114.039 79.394 113.784 78.9692C113.539 78.535 113.213 78.1951 112.807 77.9497C112.401 77.7043 111.91 77.5815 111.334 77.5815C110.759 77.5815 110.268 77.7043 109.862 77.9497C109.465 78.1951 109.14 78.535 108.885 78.9692C108.639 79.394 108.46 79.8849 108.347 80.4419C108.233 80.9894 108.177 81.5747 108.177 82.1978ZM125.262 77.9497V90H121.184V74.6787H125.007L125.262 77.9497ZM124.668 81.8013H123.563C123.563 80.6685 123.709 79.6489 124.002 78.7427C124.295 77.827 124.705 77.0482 125.234 76.4062C125.763 75.7549 126.39 75.2593 127.117 74.9194C127.854 74.5701 128.675 74.3955 129.581 74.3955C130.299 74.3955 130.955 74.4993 131.549 74.707C132.144 74.9147 132.654 75.2451 133.079 75.6982C133.513 76.1514 133.843 76.7508 134.07 77.4966C134.306 78.2424 134.424 79.1533 134.424 80.2295V90H130.317V80.2153C130.317 79.5356 130.223 79.007 130.034 78.6294C129.845 78.2518 129.567 77.9875 129.199 77.8364C128.84 77.6759 128.396 77.5957 127.868 77.5957C127.32 77.5957 126.844 77.7043 126.438 77.9214C126.041 78.1385 125.711 78.4406 125.446 78.8276C125.192 79.2052 124.998 79.6489 124.866 80.1587C124.734 80.6685 124.668 81.216 124.668 81.8013Z" fill="white"/>
</svg>
