<svg width="162" height="131" viewBox="0 0 162 131" fill="none" xmlns="http://www.w3.org/2000/svg">
<rect width="162" height="131" rx="12" fill="#C01DDA"/>
<path d="M56.2604 40.6953L61.1173 24.3828H65.8468L58.6676 45H55.5523L56.2604 40.6953ZM51.7857 24.3828L56.6285 40.6953L57.3648 45H54.2213L47.0846 24.3828H51.7857ZM71.9724 29.6787V45H67.8801V29.6787H71.9724ZM67.6252 25.6855C67.6252 25.0908 67.8329 24.5999 68.2482 24.2129C68.6636 23.8258 69.2206 23.6323 69.9191 23.6323C70.6083 23.6323 71.1605 23.8258 71.5759 24.2129C72.0007 24.5999 72.2131 25.0908 72.2131 25.6855C72.2131 26.2803 72.0007 26.7712 71.5759 27.1582C71.1605 27.5452 70.6083 27.7388 69.9191 27.7388C69.2206 27.7388 68.6636 27.5452 68.2482 27.1582C67.8329 26.7712 67.6252 26.2803 67.6252 25.6855ZM82.5442 45.2832C81.3548 45.2832 80.2881 45.0944 79.344 44.7168C78.4 44.3298 77.5976 43.7964 76.9368 43.1167C76.2854 42.437 75.7851 41.6488 75.4358 40.752C75.0866 39.8457 74.9119 38.8828 74.9119 37.8633V37.2969C74.9119 36.1357 75.0771 35.0737 75.4075 34.1108C75.7379 33.1479 76.2099 32.3125 76.8235 31.6045C77.4466 30.8965 78.2018 30.3537 79.0892 29.9761C79.9765 29.589 80.9772 29.3955 82.0911 29.3955C83.1767 29.3955 84.1396 29.5749 84.9798 29.9336C85.82 30.2923 86.5232 30.8021 87.0896 31.4629C87.6655 32.1237 88.0997 32.9167 88.3924 33.8418C88.685 34.7575 88.8313 35.777 88.8313 36.9004V38.5996H76.6536V35.8809H84.824V35.5693C84.824 35.0029 84.7202 34.4979 84.5125 34.0542C84.3143 33.6011 84.0122 33.2424 83.6063 32.978C83.2003 32.7137 82.6811 32.5815 82.0486 32.5815C81.5105 32.5815 81.048 32.6995 80.6609 32.9355C80.2739 33.1715 79.9577 33.502 79.7122 33.9268C79.4762 34.3516 79.2968 34.8519 79.1741 35.4277C79.0608 35.9941 79.0042 36.6172 79.0042 37.2969V37.8633C79.0042 38.4769 79.0892 39.0433 79.2591 39.5625C79.4384 40.0817 79.6886 40.5301 80.0096 40.9077C80.34 41.2853 80.7365 41.578 81.199 41.7856C81.671 41.9933 82.2044 42.0972 82.7991 42.0972C83.5354 42.0972 84.2199 41.9556 84.8523 41.6724C85.4943 41.3797 86.0465 40.9408 86.5091 40.3555L88.4915 42.5078C88.1705 42.9704 87.7316 43.4141 87.1746 43.8389C86.6271 44.2637 85.9663 44.613 85.1922 44.8867C84.4181 45.151 83.5354 45.2832 82.5442 45.2832ZM95.6791 41.0352L98.8651 29.6787H101.456L100.621 34.1392L97.435 45H95.2685L95.6791 41.0352ZM94.0648 29.6787L96.3446 41.021L96.557 45H94.0082L90.1283 29.6787H94.0648ZM104.373 40.8369L106.597 29.6787H110.547L106.667 45H104.133L104.373 40.8369ZM101.81 29.6787L104.982 40.9502L105.421 45H103.241L100.055 34.1533L99.2475 29.6787H101.81ZM40.0302 70.605C40.0302 70.2368 39.9735 69.9064 39.8603 69.6138C39.7564 69.3117 39.5582 69.0379 39.2655 68.7925C38.9729 68.5376 38.5622 68.2874 38.0336 68.042C37.5049 67.7965 36.8205 67.5417 35.9804 67.2773C35.0458 66.9753 34.1584 66.6354 33.3183 66.2578C32.4875 65.8802 31.7512 65.4412 31.1093 64.9409C30.4768 64.4312 29.9765 63.8411 29.6083 63.1709C29.2496 62.5007 29.0702 61.7218 29.0702 60.8345C29.0702 59.9754 29.259 59.1966 29.6366 58.498C30.0142 57.79 30.5429 57.1859 31.2226 56.6855C31.9022 56.1758 32.7047 55.784 33.6298 55.5103C34.5644 55.2365 35.5886 55.0996 36.7025 55.0996C38.2224 55.0996 39.5487 55.3734 40.6815 55.9209C41.8144 56.4684 42.6923 57.2189 43.3153 58.1724C43.9478 59.1258 44.2641 60.2161 44.2641 61.4434H40.0443C40.0443 60.8392 39.9169 60.3105 39.662 59.8574C39.4166 59.3949 39.039 59.0314 38.5292 58.7671C38.0289 58.5028 37.3964 58.3706 36.6317 58.3706C35.8954 58.3706 35.2818 58.4839 34.7909 58.7104C34.3 58.9276 33.9319 59.2249 33.6864 59.6025C33.441 59.9707 33.3183 60.3861 33.3183 60.8486C33.3183 61.1979 33.4032 61.5142 33.5731 61.7974C33.7525 62.0806 34.0168 62.3449 34.3661 62.5903C34.7154 62.8358 35.1449 63.0671 35.6547 63.2842C36.1645 63.5013 36.7545 63.7137 37.4247 63.9214C38.5481 64.2612 39.5346 64.6436 40.3842 65.0684C41.2432 65.4932 41.9607 65.9699 42.5365 66.4985C43.1124 67.0272 43.5466 67.6266 43.8393 68.2969C44.1319 68.9671 44.2782 69.7271 44.2782 70.5767C44.2782 71.4735 44.1036 72.2759 43.7543 72.9839C43.405 73.6919 42.9 74.2913 42.2392 74.7822C41.5784 75.2731 40.7901 75.646 39.8744 75.9009C38.9587 76.1558 37.9345 76.2832 36.8017 76.2832C35.7821 76.2832 34.7768 76.151 33.7855 75.8867C32.7943 75.613 31.8928 75.2023 31.081 74.6548C30.2785 74.1073 29.6366 73.4087 29.1552 72.5591C28.6737 71.7095 28.433 70.7041 28.433 69.543H32.6952C32.6952 70.1849 32.7943 70.7277 32.9926 71.1714C33.1908 71.6151 33.4693 71.9738 33.828 72.2476C34.1962 72.5213 34.6304 72.7196 35.1308 72.8423C35.6405 72.965 36.1975 73.0264 36.8017 73.0264C37.538 73.0264 38.1422 72.9225 38.6142 72.7148C39.0956 72.5072 39.4496 72.2192 39.6762 71.8511C39.9122 71.4829 40.0302 71.0675 40.0302 70.605ZM54.5669 60.6787V63.5674H45.646V60.6787H54.5669ZM47.855 56.8979H51.9331V71.3838C51.9331 71.8275 51.9897 72.1673 52.103 72.4033C52.2257 72.6393 52.4051 72.8045 52.6411 72.8989C52.8771 72.9839 53.1745 73.0264 53.5332 73.0264C53.7881 73.0264 54.0146 73.0169 54.2129 72.998C54.4206 72.9697 54.5952 72.9414 54.7368 72.9131L54.751 75.915C54.4017 76.0283 54.0241 76.118 53.6182 76.1841C53.2122 76.2502 52.7638 76.2832 52.2729 76.2832C51.3761 76.2832 50.5926 76.1369 49.9224 75.8442C49.2616 75.5422 48.7518 75.0607 48.3931 74.3999C48.0343 73.7391 47.855 72.8706 47.855 71.7944V56.8979ZM66.1017 72.3325V60.6787H70.1798V76H66.3424L66.1017 72.3325ZM66.5548 69.189L67.7584 69.1606C67.7584 70.1802 67.6404 71.1289 67.4044 72.0068C67.1684 72.8753 66.8144 73.6305 66.3424 74.2725C65.8704 74.9049 65.2756 75.4006 64.5582 75.7593C63.8408 76.1086 62.9959 76.2832 62.0235 76.2832C61.2778 76.2832 60.5886 76.1794 59.9562 75.9717C59.3331 75.7546 58.795 75.4194 58.3419 74.9663C57.8982 74.5037 57.5489 73.9137 57.294 73.1963C57.0486 72.4694 56.9259 71.5962 56.9259 70.5767V60.6787H61.004V70.605C61.004 71.0581 61.0559 71.4404 61.1598 71.752C61.273 72.0635 61.4288 72.3184 61.627 72.5166C61.8253 72.7148 62.0566 72.8564 62.3209 72.9414C62.5947 73.0264 62.8967 73.0688 63.2271 73.0688C64.0673 73.0688 64.7281 72.8989 65.2096 72.5591C65.7005 72.2192 66.045 71.7567 66.2433 71.1714C66.4509 70.5767 66.5548 69.9159 66.5548 69.189ZM82.4934 72.6582V54.25H86.5998V76H82.904L82.4934 72.6582ZM72.8078 68.5234V68.2261C72.8078 67.0555 72.94 65.9935 73.2043 65.04C73.4686 64.0771 73.8557 63.2511 74.3654 62.562C74.8752 61.8729 75.503 61.3395 76.2487 60.9619C76.9945 60.5843 77.8441 60.3955 78.7976 60.3955C79.6944 60.3955 80.4779 60.5843 81.1481 60.9619C81.8278 61.3395 82.4037 61.8776 82.8757 62.5762C83.3571 63.2653 83.7442 64.0819 84.0368 65.0259C84.3295 65.9604 84.5419 66.9847 84.674 68.0986V68.75C84.5419 69.8167 84.3295 70.8079 84.0368 71.7236C83.7442 72.6393 83.3571 73.4417 82.8757 74.1309C82.4037 74.8105 81.8278 75.3392 81.1481 75.7168C80.4685 76.0944 79.6755 76.2832 78.7692 76.2832C77.8158 76.2832 76.9662 76.0897 76.2204 75.7026C75.4841 75.3156 74.861 74.7728 74.3513 74.0742C73.8509 73.3757 73.4686 72.5544 73.2043 71.6104C72.94 70.6663 72.8078 69.6374 72.8078 68.5234ZM76.8859 68.2261V68.5234C76.8859 69.1559 76.9331 69.7459 77.0275 70.2935C77.1314 70.841 77.2966 71.3271 77.5231 71.752C77.7591 72.1673 78.0612 72.493 78.4294 72.729C78.807 72.9556 79.2648 73.0688 79.8029 73.0688C80.5015 73.0688 81.0773 72.9131 81.5305 72.6016C81.9836 72.2806 82.3282 71.8416 82.5642 71.2847C82.8096 70.7277 82.9512 70.0858 82.989 69.3589V67.5039C82.9606 66.9092 82.8757 66.3758 82.7341 65.9038C82.6019 65.4224 82.4037 65.0117 82.1394 64.6719C81.8845 64.332 81.5635 64.0677 81.1765 63.8789C80.7989 63.6901 80.3505 63.5957 79.8312 63.5957C79.3026 63.5957 78.8495 63.7184 78.4719 63.9639C78.0943 64.1999 77.7875 64.5256 77.5515 64.9409C77.3249 65.3563 77.155 65.8472 77.0417 66.4136C76.9379 66.9705 76.8859 67.5747 76.8859 68.2261ZM96.9876 76.2832C95.7981 76.2832 94.7314 76.0944 93.7874 75.7168C92.8434 75.3298 92.041 74.7964 91.3802 74.1167C90.7288 73.437 90.2285 72.6488 89.8792 71.752C89.5299 70.8457 89.3553 69.8828 89.3553 68.8633V68.2969C89.3553 67.1357 89.5205 66.0737 89.8509 65.1108C90.1813 64.1479 90.6533 63.3125 91.2669 62.6045C91.8899 61.8965 92.6451 61.3537 93.5325 60.9761C94.4199 60.589 95.4205 60.3955 96.5345 60.3955C97.6201 60.3955 98.583 60.5749 99.4231 60.9336C100.263 61.2923 100.967 61.8021 101.533 62.4629C102.109 63.1237 102.543 63.9167 102.836 64.8418C103.128 65.7575 103.275 66.777 103.275 67.9004V69.5996H91.097V66.8809H99.2674V66.5693C99.2674 66.0029 99.1635 65.4979 98.9559 65.0542C98.7576 64.6011 98.4555 64.2424 98.0496 63.978C97.6437 63.7137 97.1245 63.5815 96.492 63.5815C95.9539 63.5815 95.4913 63.6995 95.1043 63.9355C94.7172 64.1715 94.401 64.502 94.1556 64.9268C93.9196 65.3516 93.7402 65.8519 93.6175 66.4277C93.5042 66.9941 93.4476 67.6172 93.4476 68.2969V68.8633C93.4476 69.4769 93.5325 70.0433 93.7024 70.5625C93.8818 71.0817 94.132 71.5301 94.4529 71.9077C94.7833 72.2853 95.1798 72.578 95.6424 72.7856C96.1144 72.9933 96.6478 73.0972 97.2425 73.0972C97.9788 73.0972 98.6632 72.9556 99.2957 72.6724C99.9376 72.3797 100.49 71.9408 100.952 71.3555L102.935 73.5078C102.614 73.9704 102.175 74.4141 101.618 74.8389C101.07 75.2637 100.41 75.613 99.6355 75.8867C98.8615 76.151 97.9788 76.2832 96.9876 76.2832ZM109.74 63.9497V76H105.662V60.6787H109.485L109.74 63.9497ZM109.145 67.8013H108.041C108.041 66.6685 108.187 65.6489 108.48 64.7427C108.773 63.827 109.183 63.0482 109.712 62.4062C110.24 61.7549 110.868 61.2593 111.595 60.9194C112.331 60.5701 113.153 60.3955 114.059 60.3955C114.776 60.3955 115.433 60.4993 116.027 60.707C116.622 60.9147 117.132 61.2451 117.557 61.6982C117.991 62.1514 118.321 62.7508 118.548 63.4966C118.784 64.2424 118.902 65.1533 118.902 66.2295V76H114.795V66.2153C114.795 65.5356 114.701 65.007 114.512 64.6294C114.323 64.2518 114.045 63.9875 113.677 63.8364C113.318 63.6759 112.874 63.5957 112.346 63.5957C111.798 63.5957 111.321 63.7043 110.915 63.9214C110.519 64.1385 110.189 64.4406 109.924 64.8276C109.669 65.2052 109.476 65.6489 109.344 66.1587C109.211 66.6685 109.145 67.216 109.145 67.8013ZM129.658 60.6787V63.5674H120.737V60.6787H129.658ZM122.946 56.8979H127.024V71.3838C127.024 71.8275 127.081 72.1673 127.194 72.4033C127.317 72.6393 127.496 72.8045 127.732 72.8989C127.968 72.9839 128.265 73.0264 128.624 73.0264C128.879 73.0264 129.105 73.0169 129.304 72.998C129.511 72.9697 129.686 72.9414 129.828 72.9131L129.842 75.915C129.493 76.0283 129.115 76.118 128.709 76.1841C128.303 76.2502 127.855 76.2832 127.364 76.2832C126.467 76.2832 125.683 76.1369 125.013 75.8442C124.352 75.5422 123.843 75.0607 123.484 74.3999C123.125 73.7391 122.946 72.8706 122.946 71.7944V56.8979ZM37.1557 103.687V107H26.7763V103.687H37.1557ZM28.1498 86.3828V107H23.9018V86.3828H28.1498ZM38.835 99.4951V99.1978C38.835 98.0744 38.9954 97.0407 39.3164 96.0967C39.6374 95.1432 40.1047 94.3172 40.7183 93.6187C41.3319 92.9201 42.0871 92.3773 42.9839 91.9902C43.8807 91.5938 44.9097 91.3955 46.0708 91.3955C47.2319 91.3955 48.2656 91.5938 49.1719 91.9902C50.0781 92.3773 50.8381 92.9201 51.4517 93.6187C52.0747 94.3172 52.5467 95.1432 52.8677 96.0967C53.1886 97.0407 53.3491 98.0744 53.3491 99.1978V99.4951C53.3491 100.609 53.1886 101.643 52.8677 102.596C52.5467 103.54 52.0747 104.366 51.4517 105.074C50.8381 105.773 50.0828 106.316 49.186 106.703C48.2892 107.09 47.2603 107.283 46.0991 107.283C44.938 107.283 43.9043 107.09 42.998 106.703C42.1012 106.316 41.3413 105.773 40.7183 105.074C40.1047 104.366 39.6374 103.54 39.3164 102.596C38.9954 101.643 38.835 100.609 38.835 99.4951ZM42.9131 99.1978V99.4951C42.9131 100.137 42.9697 100.736 43.083 101.293C43.1963 101.85 43.3756 102.341 43.6211 102.766C43.876 103.181 44.2064 103.507 44.6123 103.743C45.0182 103.979 45.5138 104.097 46.0991 104.097C46.6655 104.097 47.1517 103.979 47.5576 103.743C47.9635 103.507 48.2892 103.181 48.5347 102.766C48.7801 102.341 48.9595 101.85 49.0728 101.293C49.1955 100.736 49.2568 100.137 49.2568 99.4951V99.1978C49.2568 98.5747 49.1955 97.9894 49.0728 97.4419C48.9595 96.8849 48.7754 96.394 48.5205 95.9692C48.2751 95.535 47.9494 95.1951 47.5435 94.9497C47.1375 94.7043 46.6466 94.5815 46.0708 94.5815C45.495 94.5815 45.0041 94.7043 44.5981 94.9497C44.2017 95.1951 43.876 95.535 43.6211 95.9692C43.3756 96.394 43.1963 96.8849 43.083 97.4419C42.9697 97.9894 42.9131 98.5747 42.9131 99.1978ZM62.3351 104.097C62.8354 104.097 63.2791 104.003 63.6661 103.814C64.0532 103.616 64.3552 103.342 64.5724 102.993C64.7989 102.634 64.9169 102.214 64.9264 101.732H68.7638C68.7543 102.809 68.4664 103.767 67.9 104.607C67.3336 105.438 66.5737 106.094 65.6202 106.575C64.6668 107.047 63.6 107.283 62.42 107.283C61.2306 107.283 60.1922 107.085 59.3048 106.688C58.4269 106.292 57.6952 105.744 57.11 105.046C56.5247 104.338 56.0857 103.517 55.7931 102.582C55.5004 101.638 55.3541 100.628 55.3541 99.5518V99.1411C55.3541 98.0555 55.5004 97.0454 55.7931 96.1108C56.0857 95.1668 56.5247 94.3455 57.11 93.647C57.6952 92.939 58.4269 92.3867 59.3048 91.9902C60.1827 91.5938 61.2117 91.3955 62.3917 91.3955C63.6472 91.3955 64.747 91.6362 65.691 92.1177C66.6445 92.5991 67.3902 93.2882 67.9283 94.1851C68.4758 95.0724 68.7543 96.125 68.7638 97.3428H64.9264C64.9169 96.833 64.8084 96.3704 64.6007 95.9551C64.4024 95.5397 64.1098 95.2093 63.7228 94.9639C63.3451 94.709 62.8779 94.5815 62.3209 94.5815C61.7262 94.5815 61.24 94.709 60.8624 94.9639C60.4848 95.2093 60.1922 95.5492 59.9845 95.9834C59.7768 96.4082 59.6305 96.8944 59.5455 97.4419C59.47 97.98 59.4322 98.5464 59.4322 99.1411V99.5518C59.4322 100.146 59.47 100.718 59.5455 101.265C59.621 101.813 59.7626 102.299 59.9703 102.724C60.1874 103.148 60.4848 103.484 60.8624 103.729C61.24 103.974 61.7309 104.097 62.3351 104.097ZM79.548 103.545V96.7197C79.548 96.2288 79.4678 95.8088 79.3073 95.4595C79.1468 95.1007 78.8967 94.8223 78.5568 94.624C78.2264 94.4258 77.7969 94.3267 77.2683 94.3267C76.8151 94.3267 76.4234 94.4069 76.093 94.5674C75.7626 94.7184 75.5077 94.9403 75.3283 95.2329C75.149 95.5161 75.0593 95.8512 75.0593 96.2383H70.9812C70.9812 95.5869 71.1322 94.9686 71.4343 94.3833C71.7364 93.798 72.1753 93.2835 72.7512 92.8398C73.327 92.3867 74.0114 92.0327 74.8044 91.7778C75.6068 91.5229 76.5036 91.3955 77.4948 91.3955C78.6843 91.3955 79.7416 91.5938 80.6667 91.9902C81.5918 92.3867 82.3187 92.9814 82.8474 93.7744C83.3854 94.5674 83.6545 95.5586 83.6545 96.748V103.304C83.6545 104.144 83.7064 104.833 83.8103 105.372C83.9141 105.9 84.0651 106.363 84.2634 106.759V107H80.1428C79.9445 106.585 79.7935 106.065 79.6896 105.442C79.5952 104.81 79.548 104.177 79.548 103.545ZM80.0861 97.6685L80.1145 99.9766H77.8347C77.2966 99.9766 76.8293 100.038 76.4328 100.161C76.0363 100.283 75.7106 100.458 75.4558 100.685C75.2009 100.902 75.0121 101.157 74.8894 101.449C74.7761 101.742 74.7194 102.063 74.7194 102.412C74.7194 102.761 74.7997 103.078 74.9602 103.361C75.1206 103.635 75.3519 103.852 75.654 104.012C75.9561 104.163 76.3101 104.239 76.716 104.239C77.3296 104.239 77.863 104.116 78.3161 103.871C78.7692 103.625 79.1185 103.323 79.364 102.964C79.6188 102.606 79.751 102.266 79.7604 101.945L80.8366 103.672C80.6856 104.059 80.4779 104.461 80.2136 104.876C79.9587 105.291 79.633 105.683 79.2365 106.051C78.84 106.41 78.3633 106.707 77.8063 106.943C77.2494 107.17 76.5886 107.283 75.8239 107.283C74.8516 107.283 73.9689 107.09 73.176 106.703C72.3924 106.306 71.7694 105.763 71.3068 105.074C70.8537 104.376 70.6271 103.583 70.6271 102.695C70.6271 101.893 70.7782 101.18 71.0803 100.557C71.3824 99.9341 71.826 99.4102 72.4113 98.9854C73.0061 98.5511 73.7471 98.2254 74.6345 98.0083C75.5218 97.7817 76.5508 97.6685 77.7214 97.6685H80.0861ZM94.4529 91.6787V94.5674H85.532V91.6787H94.4529ZM87.741 87.8979H91.8191V102.384C91.8191 102.827 91.8758 103.167 91.9891 103.403C92.1118 103.639 92.2911 103.805 92.5271 103.899C92.7631 103.984 93.0605 104.026 93.4192 104.026C93.6741 104.026 93.9007 104.017 94.0989 103.998C94.3066 103.97 94.4812 103.941 94.6228 103.913L94.637 106.915C94.2877 107.028 93.9101 107.118 93.5042 107.184C93.0983 107.25 92.6499 107.283 92.159 107.283C91.2622 107.283 90.4786 107.137 89.8084 106.844C89.1476 106.542 88.6378 106.061 88.2791 105.4C87.9204 104.739 87.741 103.871 87.741 102.794V87.8979ZM101.23 91.6787V107H97.1376V91.6787H101.23ZM96.8827 87.6855C96.8827 87.0908 97.0904 86.5999 97.5058 86.2129C97.9211 85.8258 98.4781 85.6323 99.1767 85.6323C99.8658 85.6323 100.418 85.8258 100.833 86.2129C101.258 86.5999 101.471 87.0908 101.471 87.6855C101.471 88.2803 101.258 88.7712 100.833 89.1582C100.418 89.5452 99.8658 89.7388 99.1767 89.7388C98.4781 89.7388 97.9211 89.5452 97.5058 89.1582C97.0904 88.7712 96.8827 88.2803 96.8827 87.6855ZM104.099 99.4951V99.1978C104.099 98.0744 104.259 97.0407 104.58 96.0967C104.901 95.1432 105.368 94.3172 105.982 93.6187C106.596 92.9201 107.351 92.3773 108.248 91.9902C109.144 91.5938 110.173 91.3955 111.334 91.3955C112.496 91.3955 113.529 91.5938 114.436 91.9902C115.342 92.3773 116.102 92.9201 116.715 93.6187C117.338 94.3172 117.81 95.1432 118.131 96.0967C118.452 97.0407 118.613 98.0744 118.613 99.1978V99.4951C118.613 100.609 118.452 101.643 118.131 102.596C117.81 103.54 117.338 104.366 116.715 105.074C116.102 105.773 115.347 106.316 114.45 106.703C113.553 107.09 112.524 107.283 111.363 107.283C110.202 107.283 109.168 107.09 108.262 106.703C107.365 106.316 106.605 105.773 105.982 105.074C105.368 104.366 104.901 103.54 104.58 102.596C104.259 101.643 104.099 100.609 104.099 99.4951ZM108.177 99.1978V99.4951C108.177 100.137 108.233 100.736 108.347 101.293C108.46 101.85 108.639 102.341 108.885 102.766C109.14 103.181 109.47 103.507 109.876 103.743C110.282 103.979 110.778 104.097 111.363 104.097C111.929 104.097 112.415 103.979 112.821 103.743C113.227 103.507 113.553 103.181 113.798 102.766C114.044 102.341 114.223 101.85 114.336 101.293C114.459 100.736 114.521 100.137 114.521 99.4951V99.1978C114.521 98.5747 114.459 97.9894 114.336 97.4419C114.223 96.8849 114.039 96.394 113.784 95.9692C113.539 95.535 113.213 95.1951 112.807 94.9497C112.401 94.7043 111.91 94.5815 111.334 94.5815C110.759 94.5815 110.268 94.7043 109.862 94.9497C109.465 95.1951 109.14 95.535 108.885 95.9692C108.639 96.394 108.46 96.8849 108.347 97.4419C108.233 97.9894 108.177 98.5747 108.177 99.1978ZM125.262 94.9497V107H121.184V91.6787H125.007L125.262 94.9497ZM124.668 98.8013H123.563C123.563 97.6685 123.709 96.6489 124.002 95.7427C124.295 94.827 124.705 94.0482 125.234 93.4062C125.763 92.7549 126.39 92.2593 127.117 91.9194C127.854 91.5701 128.675 91.3955 129.581 91.3955C130.299 91.3955 130.955 91.4993 131.549 91.707C132.144 91.9147 132.654 92.2451 133.079 92.6982C133.513 93.1514 133.843 93.7508 134.07 94.4966C134.306 95.2424 134.424 96.1533 134.424 97.2295V107H130.317V97.2153C130.317 96.5356 130.223 96.007 130.034 95.6294C129.845 95.2518 129.567 94.9875 129.199 94.8364C128.84 94.6759 128.396 94.5957 127.868 94.5957C127.32 94.5957 126.844 94.7043 126.438 94.9214C126.041 95.1385 125.711 95.4406 125.446 95.8276C125.192 96.2052 124.998 96.6489 124.866 97.1587C124.734 97.6685 124.668 98.216 124.668 98.8013Z" fill="white"/>
</svg>
