<svg width="348" height="69" viewBox="0 0 348 69" fill="none" xmlns="http://www.w3.org/2000/svg">
<rect width="348" height="69" rx="12" fill="#DA251D"/>
<path d="M145.013 38.1436V41H136.065V38.1436H145.013ZM137.249 23.2266V41H133.587V23.2266H137.249ZM146.481 34.5303V34.2739C146.481 33.3055 146.619 32.4144 146.896 31.6006C147.173 30.7786 147.576 30.0666 148.105 29.4644C148.634 28.8621 149.285 28.3942 150.058 28.0605C150.831 27.7188 151.718 27.5479 152.719 27.5479C153.72 27.5479 154.611 27.7188 155.392 28.0605C156.173 28.3942 156.829 28.8621 157.358 29.4644C157.895 30.0666 158.302 30.7786 158.578 31.6006C158.855 32.4144 158.993 33.3055 158.993 34.2739V34.5303C158.993 35.4906 158.855 36.3817 158.578 37.2036C158.302 38.0174 157.895 38.7295 157.358 39.3398C156.829 39.9421 156.178 40.41 155.404 40.7437C154.631 41.0773 153.744 41.2441 152.743 41.2441C151.742 41.2441 150.851 41.0773 150.07 40.7437C149.297 40.41 148.642 39.9421 148.105 39.3398C147.576 38.7295 147.173 38.0174 146.896 37.2036C146.619 36.3817 146.481 35.4906 146.481 34.5303ZM149.997 34.2739V34.5303C149.997 35.0837 150.046 35.6004 150.143 36.0806C150.241 36.5607 150.395 36.9839 150.607 37.3501C150.827 37.7082 151.112 37.9889 151.462 38.1924C151.811 38.3958 152.239 38.4976 152.743 38.4976C153.232 38.4976 153.651 38.3958 154.001 38.1924C154.351 37.9889 154.631 37.7082 154.843 37.3501C155.054 36.9839 155.209 36.5607 155.307 36.0806C155.413 35.6004 155.465 35.0837 155.465 34.5303V34.2739C155.465 33.7368 155.413 33.2323 155.307 32.7603C155.209 32.2801 155.05 31.8569 154.831 31.4907C154.619 31.1164 154.338 30.8234 153.988 30.6118C153.638 30.4002 153.215 30.2944 152.719 30.2944C152.222 30.2944 151.799 30.4002 151.449 30.6118C151.108 30.8234 150.827 31.1164 150.607 31.4907C150.395 31.8569 150.241 32.2801 150.143 32.7603C150.046 33.2323 149.997 33.7368 149.997 34.2739ZM169.666 27.792H172.852V40.5605C172.852 41.765 172.583 42.7863 172.046 43.6245C171.517 44.4709 170.777 45.1097 169.824 45.541C168.872 45.9805 167.765 46.2002 166.504 46.2002C165.951 46.2002 165.365 46.127 164.746 45.9805C164.136 45.834 163.55 45.6061 162.988 45.2969C162.435 44.9876 161.971 44.597 161.597 44.125L163.147 42.0498C163.554 42.5218 164.026 42.888 164.563 43.1484C165.1 43.417 165.694 43.5513 166.345 43.5513C166.98 43.5513 167.517 43.4333 167.957 43.1973C168.396 42.9694 168.734 42.6317 168.97 42.1841C169.206 41.7446 169.324 41.2116 169.324 40.585V30.8438L169.666 27.792ZM160.779 34.5547V34.2983C160.779 33.2892 160.901 32.3737 161.145 31.5518C161.397 30.7217 161.751 30.0096 162.207 29.4155C162.671 28.8215 163.233 28.3617 163.892 28.0361C164.551 27.7106 165.296 27.5479 166.126 27.5479C167.005 27.5479 167.741 27.7106 168.335 28.0361C168.929 28.3617 169.418 28.8255 169.8 29.4277C170.182 30.0218 170.48 30.7257 170.691 31.5396C170.911 32.3452 171.082 33.2282 171.204 34.1885V34.75C171.082 35.6696 170.899 36.5241 170.654 37.3135C170.41 38.1029 170.089 38.7946 169.69 39.3887C169.291 39.9746 168.795 40.4303 168.201 40.7559C167.615 41.0814 166.915 41.2441 166.101 41.2441C165.287 41.2441 164.551 41.0773 163.892 40.7437C163.241 40.41 162.683 39.9421 162.219 39.3398C161.756 38.7376 161.397 38.0296 161.145 37.2158C160.901 36.402 160.779 35.515 160.779 34.5547ZM164.295 34.2983V34.5547C164.295 35.0999 164.348 35.6086 164.453 36.0806C164.559 36.5526 164.722 36.9717 164.942 37.3379C165.169 37.696 165.45 37.9767 165.784 38.1802C166.126 38.3755 166.529 38.4731 166.992 38.4731C167.635 38.4731 168.16 38.3389 168.567 38.0703C168.974 37.7936 169.279 37.4152 169.483 36.9351C169.686 36.4549 169.804 35.9015 169.837 35.2749V33.6758C169.82 33.1631 169.751 32.7033 169.629 32.2964C169.507 31.8813 169.336 31.5273 169.116 31.2344C168.897 30.9414 168.612 30.7135 168.262 30.5508C167.912 30.388 167.497 30.3066 167.017 30.3066C166.553 30.3066 166.15 30.4124 165.808 30.624C165.475 30.8275 165.194 31.1082 164.966 31.4663C164.746 31.8244 164.579 32.2476 164.466 32.7358C164.352 33.216 164.295 33.7368 164.295 34.2983ZM175.175 34.5303V34.2739C175.175 33.3055 175.313 32.4144 175.59 31.6006C175.866 30.7786 176.269 30.0666 176.798 29.4644C177.327 28.8621 177.978 28.3942 178.751 28.0605C179.524 27.7188 180.411 27.5479 181.412 27.5479C182.413 27.5479 183.304 27.7188 184.086 28.0605C184.867 28.3942 185.522 28.8621 186.051 29.4644C186.588 30.0666 186.995 30.7786 187.272 31.6006C187.548 32.4144 187.687 33.3055 187.687 34.2739V34.5303C187.687 35.4906 187.548 36.3817 187.272 37.2036C186.995 38.0174 186.588 38.7295 186.051 39.3398C185.522 39.9421 184.871 40.41 184.098 40.7437C183.325 41.0773 182.438 41.2441 181.437 41.2441C180.436 41.2441 179.545 41.0773 178.763 40.7437C177.99 40.41 177.335 39.9421 176.798 39.3398C176.269 38.7295 175.866 38.0174 175.59 37.2036C175.313 36.3817 175.175 35.4906 175.175 34.5303ZM178.69 34.2739V34.5303C178.69 35.0837 178.739 35.6004 178.837 36.0806C178.934 36.5607 179.089 36.9839 179.301 37.3501C179.52 37.7082 179.805 37.9889 180.155 38.1924C180.505 38.3958 180.932 38.4976 181.437 38.4976C181.925 38.4976 182.344 38.3958 182.694 38.1924C183.044 37.9889 183.325 37.7082 183.536 37.3501C183.748 36.9839 183.903 36.5607 184 36.0806C184.106 35.6004 184.159 35.0837 184.159 34.5303V34.2739C184.159 33.7368 184.106 33.2323 184 32.7603C183.903 32.2801 183.744 31.8569 183.524 31.4907C183.313 31.1164 183.032 30.8234 182.682 30.6118C182.332 30.4002 181.909 30.2944 181.412 30.2944C180.916 30.2944 180.493 30.4002 180.143 30.6118C179.801 30.8234 179.52 31.1164 179.301 31.4907C179.089 31.8569 178.934 32.2801 178.837 32.7603C178.739 33.2323 178.69 33.7368 178.69 34.2739ZM197.81 37.8384V27.792H201.326V41H198.017L197.81 37.8384ZM198.201 35.1284L199.238 35.104C199.238 35.9829 199.136 36.8008 198.933 37.5576C198.73 38.3063 198.424 38.9574 198.017 39.5107C197.611 40.056 197.098 40.4832 196.479 40.7925C195.861 41.0936 195.133 41.2441 194.294 41.2441C193.651 41.2441 193.057 41.1546 192.512 40.9756C191.975 40.7884 191.511 40.4995 191.121 40.1089C190.738 39.7101 190.437 39.2015 190.217 38.583C190.006 37.9564 189.9 37.2036 189.9 36.3247V27.792H193.415V36.3491C193.415 36.7397 193.46 37.0693 193.55 37.3379C193.647 37.6064 193.782 37.8262 193.953 37.9971C194.123 38.168 194.323 38.29 194.551 38.3633C194.787 38.4365 195.047 38.4731 195.332 38.4731C196.056 38.4731 196.626 38.3267 197.041 38.0337C197.464 37.7407 197.761 37.342 197.932 36.8374C198.111 36.3247 198.201 35.755 198.201 35.1284ZM210.631 27.792V30.2822H202.94V27.792H210.631ZM204.845 24.5327H208.36V37.0205C208.36 37.403 208.409 37.696 208.507 37.8994C208.613 38.1029 208.767 38.2453 208.971 38.3267C209.174 38.3999 209.431 38.4365 209.74 38.4365C209.959 38.4365 210.155 38.4284 210.326 38.4121C210.505 38.3877 210.655 38.3633 210.777 38.3389L210.79 40.9268C210.488 41.0244 210.163 41.1017 209.813 41.1587C209.463 41.2157 209.076 41.2441 208.653 41.2441C207.88 41.2441 207.205 41.118 206.627 40.8657C206.057 40.6053 205.618 40.1903 205.309 39.6206C204.999 39.0509 204.845 38.3022 204.845 37.3745V24.5327Z" fill="white"/>
</svg>
