<svg width="162" height="131" viewBox="0 0 162 131" fill="none" xmlns="http://www.w3.org/2000/svg">
<rect width="162" height="131" rx="12" fill="#0027F4" fill-opacity="0.83"/>
<path d="M45.4151 55.1436V58H36.4674V55.1436H45.4151ZM37.6515 40.2266V58H33.9894V40.2266H37.6515ZM46.8835 51.5303V51.2739C46.8835 50.3055 47.0218 49.4144 47.2985 48.6006C47.5752 47.7786 47.9781 47.0666 48.507 46.4644C49.036 45.8621 49.687 45.3942 50.4602 45.0605C51.2333 44.7188 52.1203 44.5479 53.1213 44.5479C54.1223 44.5479 55.0134 44.7188 55.7946 45.0605C56.5759 45.3942 57.231 45.8621 57.76 46.4644C58.2971 47.0666 58.704 47.7786 58.9807 48.6006C59.2574 49.4144 59.3957 50.3055 59.3957 51.2739V51.5303C59.3957 52.4906 59.2574 53.3817 58.9807 54.2036C58.704 55.0174 58.2971 55.7295 57.76 56.3398C57.231 56.9421 56.5799 57.41 55.8068 57.7437C55.0337 58.0773 54.1467 58.2441 53.1457 58.2441C52.1447 58.2441 51.2536 58.0773 50.4724 57.7437C49.6993 57.41 49.0441 56.9421 48.507 56.3398C47.9781 55.7295 47.5752 55.0174 47.2985 54.2036C47.0218 53.3817 46.8835 52.4906 46.8835 51.5303ZM50.3991 51.2739V51.5303C50.3991 52.0837 50.448 52.6004 50.5456 53.0806C50.6433 53.5607 50.7979 53.9839 51.0095 54.3501C51.2292 54.7082 51.514 54.9889 51.864 55.1924C52.2139 55.3958 52.6411 55.4976 53.1457 55.4976C53.634 55.4976 54.0531 55.3958 54.403 55.1924C54.753 54.9889 55.0337 54.7082 55.2453 54.3501C55.4569 53.9839 55.6115 53.5607 55.7092 53.0806C55.815 52.6004 55.8679 52.0837 55.8679 51.5303V51.2739C55.8679 50.7368 55.815 50.2323 55.7092 49.7603C55.6115 49.2801 55.4528 48.8569 55.2331 48.4907C55.0215 48.1164 54.7408 47.8234 54.3908 47.6118C54.0409 47.4002 53.6177 47.2944 53.1213 47.2944C52.6249 47.2944 52.2017 47.4002 51.8518 47.6118C51.51 47.8234 51.2292 48.1164 51.0095 48.4907C50.7979 48.8569 50.6433 49.2801 50.5456 49.7603C50.448 50.2323 50.3991 50.7368 50.3991 51.2739ZM70.0682 44.792H73.2542V57.5605C73.2542 58.765 72.9856 59.7863 72.4485 60.6245C71.9196 61.4709 71.179 62.1097 70.2269 62.541C69.2747 62.9805 68.1679 63.2002 66.9065 63.2002C66.3532 63.2002 65.7672 63.127 65.1487 62.9805C64.5384 62.834 63.9524 62.6061 63.3909 62.2969C62.8375 61.9876 62.3737 61.597 61.9993 61.125L63.5496 59.0498C63.9565 59.5218 64.4285 59.888 64.9656 60.1484C65.5027 60.417 66.0968 60.5513 66.7479 60.5513C67.3826 60.5513 67.9197 60.4333 68.3592 60.1973C68.7986 59.9694 69.1364 59.6317 69.3724 59.1841C69.6084 58.7446 69.7264 58.2116 69.7264 57.585V47.8438L70.0682 44.792ZM61.1814 51.5547V51.2983C61.1814 50.2892 61.3035 49.3737 61.5477 48.5518C61.7999 47.7217 62.1539 47.0096 62.6097 46.4155C63.0735 45.8215 63.6351 45.3617 64.2942 45.0361C64.9534 44.7106 65.698 44.5479 66.5281 44.5479C67.407 44.5479 68.1435 44.7106 68.7376 45.0361C69.3317 45.3617 69.82 45.8255 70.2024 46.4277C70.5849 47.0218 70.882 47.7257 71.0936 48.5396C71.3133 49.3452 71.4842 50.2282 71.6063 51.1885V51.75C71.4842 52.6696 71.3011 53.5241 71.0569 54.3135C70.8128 55.1029 70.4913 55.7946 70.0926 56.3887C69.6938 56.9746 69.1974 57.4303 68.6033 57.7559C68.0174 58.0814 67.3175 58.2441 66.5037 58.2441C65.6899 58.2441 64.9534 58.0773 64.2942 57.7437C63.6432 57.41 63.0857 56.9421 62.6219 56.3398C62.158 55.7376 61.7999 55.0296 61.5477 54.2158C61.3035 53.402 61.1814 52.515 61.1814 51.5547ZM64.6971 51.2983V51.5547C64.6971 52.0999 64.75 52.6086 64.8558 53.0806C64.9616 53.5526 65.1243 53.9717 65.344 54.3379C65.5719 54.696 65.8527 54.9767 66.1863 55.1802C66.5281 55.3755 66.931 55.4731 67.3948 55.4731C68.0377 55.4731 68.5626 55.3389 68.9695 55.0703C69.3764 54.7936 69.6816 54.4152 69.8851 53.9351C70.0885 53.4549 70.2065 52.9015 70.2391 52.2749V50.6758C70.2228 50.1631 70.1536 49.7033 70.0315 49.2964C69.9095 48.8813 69.7386 48.5273 69.5188 48.2344C69.2991 47.9414 69.0143 47.7135 68.6644 47.5508C68.3144 47.388 67.8994 47.3066 67.4192 47.3066C66.9554 47.3066 66.5525 47.4124 66.2107 47.624C65.8771 47.8275 65.5963 48.1082 65.3685 48.4663C65.1487 48.8244 64.9819 49.2476 64.868 49.7358C64.754 50.216 64.6971 50.7368 64.6971 51.2983ZM79.8495 44.792V58H76.3217V44.792H79.8495ZM76.102 41.3496C76.102 40.8369 76.281 40.4137 76.6391 40.0801C76.9971 39.7464 77.4773 39.5796 78.0795 39.5796C78.6736 39.5796 79.1496 39.7464 79.5077 40.0801C79.8739 40.4137 80.057 40.8369 80.057 41.3496C80.057 41.8623 79.8739 42.2855 79.5077 42.6191C79.1496 42.9528 78.6736 43.1196 78.0795 43.1196C77.4773 43.1196 76.9971 42.9528 76.6391 42.6191C76.281 42.2855 76.102 41.8623 76.102 41.3496ZM86.3472 47.6118V58H82.8315V44.792H86.1274L86.3472 47.6118ZM85.8345 50.9321H84.8823C84.8823 49.9556 85.0085 49.0767 85.2607 48.2954C85.513 47.506 85.867 46.8346 86.3228 46.2812C86.7785 45.7197 87.3197 45.2925 87.9463 44.9995C88.5811 44.6984 89.2891 44.5479 90.0703 44.5479C90.6888 44.5479 91.2544 44.6374 91.7671 44.8164C92.2798 44.9954 92.7192 45.2803 93.0854 45.6709C93.4598 46.0615 93.7446 46.5783 93.9399 47.2212C94.1434 47.8641 94.2451 48.6494 94.2451 49.5771V58H90.7051V49.5649C90.7051 48.979 90.6237 48.5233 90.4609 48.1978C90.2982 47.8722 90.0581 47.6444 89.7407 47.5142C89.4315 47.3758 89.049 47.3066 88.5933 47.3066C88.1213 47.3066 87.7103 47.4002 87.3604 47.5874C87.0186 47.7746 86.7337 48.035 86.5059 48.3687C86.2861 48.6942 86.1193 49.0767 86.0054 49.5161C85.8914 49.9556 85.8345 50.4276 85.8345 50.9321ZM110.573 55.0215V49.1377C110.573 48.7145 110.504 48.3524 110.365 48.0513C110.227 47.742 110.011 47.502 109.718 47.3311C109.434 47.1602 109.063 47.0747 108.608 47.0747C108.217 47.0747 107.879 47.1439 107.594 47.2822C107.31 47.4124 107.09 47.6037 106.935 47.856C106.781 48.1001 106.703 48.389 106.703 48.7227H103.188C103.188 48.1611 103.318 47.6281 103.578 47.1235C103.839 46.619 104.217 46.1755 104.714 45.793C105.21 45.4023 105.8 45.0972 106.484 44.8774C107.175 44.6577 107.948 44.5479 108.803 44.5479C109.828 44.5479 110.74 44.7188 111.537 45.0605C112.335 45.4023 112.961 45.915 113.417 46.5986C113.881 47.2822 114.113 48.1367 114.113 49.1621V54.814C114.113 55.5382 114.158 56.1323 114.247 56.5962C114.337 57.0519 114.467 57.4507 114.638 57.7925V58H111.086C110.915 57.6419 110.785 57.1943 110.695 56.6572C110.614 56.112 110.573 55.5667 110.573 55.0215ZM111.037 49.9556L111.061 51.9453H109.096C108.632 51.9453 108.229 51.9982 107.887 52.104C107.546 52.2098 107.265 52.3604 107.045 52.5557C106.825 52.7428 106.663 52.9626 106.557 53.2148C106.459 53.4671 106.41 53.7438 106.41 54.0449C106.41 54.346 106.48 54.6187 106.618 54.8628C106.756 55.0988 106.956 55.286 107.216 55.4243C107.476 55.5545 107.782 55.6196 108.132 55.6196C108.661 55.6196 109.12 55.5138 109.511 55.3022C109.902 55.0907 110.203 54.8302 110.414 54.521C110.634 54.2118 110.748 53.9188 110.756 53.6421L111.684 55.1313C111.554 55.465 111.375 55.8109 111.147 56.1689C110.927 56.527 110.646 56.8647 110.304 57.1821C109.963 57.4914 109.552 57.7477 109.071 57.9512C108.591 58.1465 108.022 58.2441 107.363 58.2441C106.524 58.2441 105.763 58.0773 105.08 57.7437C104.404 57.4019 103.867 56.9339 103.468 56.3398C103.078 55.7376 102.883 55.054 102.883 54.2891C102.883 53.5973 103.013 52.9829 103.273 52.4458C103.534 51.9087 103.916 51.457 104.421 51.0908C104.933 50.7165 105.572 50.4357 106.337 50.2485C107.102 50.0532 107.989 49.9556 108.998 49.9556H111.037ZM124.114 54.3501C124.114 54.0978 124.041 53.87 123.894 53.6665C123.748 53.4631 123.475 53.2759 123.076 53.105C122.686 52.9259 122.12 52.7632 121.38 52.6167C120.712 52.4702 120.09 52.2871 119.512 52.0674C118.942 51.8395 118.446 51.5669 118.023 51.2495C117.608 50.9321 117.282 50.5578 117.046 50.1265C116.81 49.687 116.692 49.1865 116.692 48.625C116.692 48.0716 116.81 47.5508 117.046 47.0625C117.29 46.5742 117.636 46.1429 118.084 45.7686C118.54 45.3861 119.093 45.089 119.744 44.8774C120.403 44.6577 121.144 44.5479 121.966 44.5479C123.113 44.5479 124.098 44.731 124.92 45.0972C125.75 45.4634 126.385 45.9679 126.824 46.6108C127.272 47.2456 127.495 47.9699 127.495 48.7837H123.98C123.98 48.4419 123.907 48.1367 123.76 47.8682C123.622 47.5915 123.402 47.3758 123.101 47.2212C122.808 47.0584 122.425 46.9771 121.953 46.9771C121.563 46.9771 121.225 47.0462 120.94 47.1846C120.655 47.3148 120.436 47.4938 120.281 47.7217C120.135 47.9414 120.061 48.1855 120.061 48.4541C120.061 48.6576 120.102 48.8407 120.183 49.0034C120.273 49.158 120.415 49.3005 120.611 49.4307C120.806 49.5609 121.058 49.6829 121.367 49.7969C121.685 49.9027 122.075 50.0003 122.539 50.0898C123.492 50.2852 124.342 50.5415 125.091 50.8589C125.839 51.1681 126.433 51.5913 126.873 52.1284C127.312 52.6574 127.532 53.3532 127.532 54.2158C127.532 54.8018 127.402 55.3389 127.141 55.8271C126.881 56.3154 126.507 56.7427 126.018 57.1089C125.53 57.467 124.944 57.7477 124.261 57.9512C123.585 58.1465 122.824 58.2441 121.978 58.2441C120.749 58.2441 119.707 58.0244 118.853 57.585C118.006 57.1455 117.364 56.5881 116.924 55.9126C116.493 55.229 116.277 54.5291 116.277 53.813H119.61C119.626 54.2931 119.748 54.6797 119.976 54.9727C120.212 55.2656 120.509 55.4772 120.867 55.6074C121.233 55.7376 121.628 55.8027 122.051 55.8027C122.507 55.8027 122.885 55.7417 123.186 55.6196C123.487 55.4894 123.715 55.3185 123.87 55.1069C124.033 54.8872 124.114 54.6349 124.114 54.3501ZM51.5117 82.6646H46.9829V79.8081H51.5117C52.2116 79.8081 52.7812 79.6942 53.2207 79.4663C53.6602 79.2303 53.9816 78.9048 54.1851 78.4897C54.3885 78.0747 54.4902 77.6068 54.4902 77.0859C54.4902 76.557 54.3885 76.0646 54.1851 75.6089C53.9816 75.1532 53.6602 74.7869 53.2207 74.5103C52.7812 74.2336 52.2116 74.0952 51.5117 74.0952H48.2524V89H44.5903V71.2266H51.5117C52.9033 71.2266 54.0955 71.4788 55.0884 71.9834C56.0894 72.4798 56.8543 73.1675 57.3833 74.0464C57.9123 74.9253 58.1768 75.9303 58.1768 77.0615C58.1768 78.209 57.9123 79.2018 57.3833 80.04C56.8543 80.8783 56.0894 81.5252 55.0884 81.981C54.0955 82.4367 52.9033 82.6646 51.5117 82.6646ZM67.6163 86.0215V80.1377C67.6163 79.7145 67.5471 79.3524 67.4088 79.0513C67.2704 78.742 67.0548 78.502 66.7618 78.3311C66.477 78.1602 66.1067 78.0747 65.651 78.0747C65.2604 78.0747 64.9226 78.1439 64.6378 78.2822C64.353 78.4124 64.1332 78.6037 63.9786 78.856C63.824 79.1001 63.7467 79.389 63.7467 79.7227H60.2311C60.2311 79.1611 60.3613 78.6281 60.6217 78.1235C60.8821 77.619 61.2605 77.1755 61.7569 76.793C62.2534 76.4023 62.8434 76.0972 63.527 75.8774C64.2187 75.6577 64.9918 75.5479 65.8463 75.5479C66.8717 75.5479 67.7831 75.7188 68.5807 76.0605C69.3782 76.4023 70.0048 76.915 70.4605 77.5986C70.9244 78.2822 71.1563 79.1367 71.1563 80.1621V85.814C71.1563 86.5382 71.2011 87.1323 71.2906 87.5962C71.3801 88.0519 71.5104 88.4507 71.6813 88.7925V89H68.129C67.9581 88.6419 67.8279 88.1943 67.7384 87.6572C67.657 87.112 67.6163 86.5667 67.6163 86.0215ZM68.0802 80.9556L68.1046 82.9453H66.1393C65.6754 82.9453 65.2726 82.9982 64.9308 83.104C64.589 83.2098 64.3082 83.3604 64.0885 83.5557C63.8688 83.7428 63.706 83.9626 63.6002 84.2148C63.5025 84.4671 63.4537 84.7438 63.4537 85.0449C63.4537 85.346 63.5229 85.6187 63.6612 85.8628C63.7996 86.0988 63.999 86.286 64.2594 86.4243C64.5198 86.5545 64.825 86.6196 65.1749 86.6196C65.7039 86.6196 66.1637 86.5138 66.5543 86.3022C66.9449 86.0907 67.246 85.8302 67.4576 85.521C67.6773 85.2118 67.7913 84.9188 67.7994 84.6421L68.7271 86.1313C68.5969 86.465 68.4179 86.8109 68.19 87.1689C67.9703 87.527 67.6896 87.8647 67.3478 88.1821C67.006 88.4914 66.595 88.7477 66.1148 88.9512C65.6347 89.1465 65.065 89.2441 64.4059 89.2441C63.5676 89.2441 62.8067 89.0773 62.1231 88.7437C61.4477 88.4019 60.9106 87.9339 60.5118 87.3398C60.1212 86.7376 59.9259 86.054 59.9259 85.2891C59.9259 84.5973 60.0561 83.9829 60.3165 83.4458C60.5769 82.9087 60.9594 82.457 61.464 82.0908C61.9767 81.7165 62.6155 81.4357 63.3805 81.2485C64.1454 81.0532 65.0325 80.9556 66.0416 80.9556H68.0802ZM77.5319 78.6729V89H74.0163V75.792H77.3244L77.5319 78.6729ZM81.5114 75.7065L81.4504 78.9658C81.2795 78.9414 81.072 78.9211 80.8278 78.9048C80.5918 78.8804 80.3762 78.8682 80.1809 78.8682C79.6844 78.8682 79.2531 78.9333 78.8869 79.0635C78.5288 79.1855 78.2277 79.3687 77.9836 79.6128C77.7476 79.8569 77.5686 80.154 77.4465 80.5039C77.3326 80.8538 77.2674 81.2526 77.2512 81.7002L76.5432 81.4805C76.5432 80.626 76.6286 79.8407 76.7995 79.1245C76.9704 78.4002 77.2186 77.7695 77.5441 77.2324C77.8778 76.6953 78.2847 76.2803 78.7648 75.9873C79.245 75.6943 79.7943 75.5479 80.4128 75.5479C80.6081 75.5479 80.8075 75.5641 81.0109 75.5967C81.2144 75.6211 81.3812 75.6577 81.5114 75.7065ZM89.1565 89.2441C88.1311 89.2441 87.2116 89.0814 86.3978 88.7559C85.5839 88.4222 84.8922 87.9624 84.3226 87.3765C83.761 86.7905 83.3297 86.111 83.0286 85.3379C82.7275 84.5566 82.577 83.7266 82.577 82.8477V82.3594C82.577 81.3584 82.7194 80.4429 83.0042 79.6128C83.289 78.7827 83.6959 78.0625 84.2249 77.4521C84.762 76.8418 85.4131 76.3739 86.178 76.0483C86.943 75.7147 87.8056 75.5479 88.7659 75.5479C89.7018 75.5479 90.5319 75.7025 91.2561 76.0117C91.9804 76.321 92.5867 76.7604 93.075 77.3301C93.5714 77.8997 93.9458 78.5833 94.198 79.3809C94.4503 80.1702 94.5765 81.0492 94.5765 82.0176V83.4824H84.0784V81.1387H91.1219V80.8701C91.1219 80.3818 91.0324 79.9465 90.8533 79.564C90.6824 79.1733 90.422 78.8641 90.0721 78.6362C89.7221 78.4084 89.2745 78.2944 88.7293 78.2944C88.2654 78.2944 87.8667 78.3962 87.533 78.5996C87.1993 78.8031 86.9267 79.0879 86.7151 79.4541C86.5117 79.8203 86.3571 80.2516 86.2513 80.748C86.1536 81.2363 86.1048 81.7734 86.1048 82.3594V82.8477C86.1048 83.3766 86.178 83.8649 86.3245 84.3125C86.4791 84.7601 86.6948 85.1466 86.9715 85.4722C87.2563 85.7977 87.5981 86.05 87.9969 86.229C88.4038 86.408 88.8636 86.4976 89.3763 86.4976C90.011 86.4976 90.601 86.3755 91.1463 86.1313C91.6997 85.8791 92.1757 85.5007 92.5745 84.9961L94.2835 86.8516C94.0068 87.2503 93.6284 87.6328 93.1482 87.999C92.6762 88.3652 92.1066 88.6663 91.4393 88.9023C90.7719 89.1302 90.011 89.2441 89.1565 89.2441ZM100.171 78.6118V89H96.6552V75.792H99.9511L100.171 78.6118ZM99.6581 81.9321H98.706C98.706 80.9556 98.8321 80.0767 99.0844 79.2954C99.3367 78.506 99.6907 77.8346 100.146 77.2812C100.602 76.7197 101.143 76.2925 101.77 75.9995C102.405 75.6984 103.113 75.5479 103.894 75.5479C104.512 75.5479 105.078 75.6374 105.591 75.8164C106.103 75.9954 106.543 76.2803 106.909 76.6709C107.283 77.0615 107.568 77.5783 107.764 78.2212C107.967 78.8641 108.069 79.6494 108.069 80.5771V89H104.529V80.5649C104.529 79.979 104.447 79.5233 104.285 79.1978C104.122 78.8722 103.882 78.6444 103.564 78.5142C103.255 78.3758 102.873 78.3066 102.417 78.3066C101.945 78.3066 101.534 78.4002 101.184 78.5874C100.842 78.7746 100.557 79.035 100.329 79.3687C100.11 79.6942 99.9429 80.0767 99.829 80.5161C99.7151 80.9556 99.6581 81.4276 99.6581 81.9321ZM117.362 75.792V78.2822H109.671V75.792H117.362ZM111.576 72.5327H115.091V85.0205C115.091 85.403 115.14 85.696 115.238 85.8994C115.344 86.1029 115.498 86.2453 115.702 86.3267C115.905 86.3999 116.161 86.4365 116.471 86.4365C116.69 86.4365 116.886 86.4284 117.057 86.4121C117.236 86.3877 117.386 86.3633 117.508 86.3389L117.521 88.9268C117.219 89.0244 116.894 89.1017 116.544 89.1587C116.194 89.2157 115.807 89.2441 115.384 89.2441C114.611 89.2441 113.936 89.118 113.358 88.8657C112.788 88.6053 112.349 88.1903 112.04 87.6206C111.73 87.0509 111.576 86.3022 111.576 85.3745V72.5327Z" fill="white"/>
</svg>
