<svg width="162" height="131" viewBox="0 0 162 131" fill="none" xmlns="http://www.w3.org/2000/svg">
<rect width="162" height="131" rx="12" fill="#DA1D1D"/>
<path d="M45.9901 55.1436V58H37.0424V55.1436H45.9901ZM38.2265 40.2266V58H34.5644V40.2266H38.2265ZM47.4585 51.5303V51.2739C47.4585 50.3055 47.5968 49.4144 47.8735 48.6006C48.1502 47.7786 48.5531 47.0666 49.082 46.4644C49.611 45.8621 50.262 45.3942 51.0352 45.0605C51.8083 44.7188 52.6953 44.5479 53.6963 44.5479C54.6973 44.5479 55.5884 44.7188 56.3696 45.0605C57.1509 45.3942 57.806 45.8621 58.335 46.4644C58.8721 47.0666 59.279 47.7786 59.5557 48.6006C59.8324 49.4144 59.9707 50.3055 59.9707 51.2739V51.5303C59.9707 52.4906 59.8324 53.3817 59.5557 54.2036C59.279 55.0174 58.8721 55.7295 58.335 56.3398C57.806 56.9421 57.1549 57.41 56.3818 57.7437C55.6087 58.0773 54.7217 58.2441 53.7207 58.2441C52.7197 58.2441 51.8286 58.0773 51.0474 57.7437C50.2742 57.41 49.6191 56.9421 49.082 56.3398C48.5531 55.7295 48.1502 55.0174 47.8735 54.2036C47.5968 53.3817 47.4585 52.4906 47.4585 51.5303ZM50.9741 51.2739V51.5303C50.9741 52.0837 51.0229 52.6004 51.1206 53.0806C51.2183 53.5607 51.3729 53.9839 51.5845 54.3501C51.8042 54.7082 52.089 54.9889 52.439 55.1924C52.7889 55.3958 53.2161 55.4976 53.7207 55.4976C54.209 55.4976 54.6281 55.3958 54.978 55.1924C55.328 54.9889 55.6087 54.7082 55.8203 54.3501C56.0319 53.9839 56.1865 53.5607 56.2842 53.0806C56.39 52.6004 56.4429 52.0837 56.4429 51.5303V51.2739C56.4429 50.7368 56.39 50.2323 56.2842 49.7603C56.1865 49.2801 56.0278 48.8569 55.8081 48.4907C55.5965 48.1164 55.3158 47.8234 54.9658 47.6118C54.6159 47.4002 54.1927 47.2944 53.6963 47.2944C53.1999 47.2944 52.7767 47.4002 52.4268 47.6118C52.085 47.8234 51.8042 48.1164 51.5845 48.4907C51.3729 48.8569 51.2183 49.2801 51.1206 49.7603C51.0229 50.2323 50.9741 50.7368 50.9741 51.2739ZM70.6432 44.792H73.8292V57.5605C73.8292 58.765 73.5606 59.7863 73.0235 60.6245C72.4946 61.4709 71.754 62.1097 70.8019 62.541C69.8497 62.9805 68.7429 63.2002 67.4815 63.2002C66.9282 63.2002 66.3422 63.127 65.7237 62.9805C65.1134 62.834 64.5274 62.6061 63.9659 62.2969C63.4125 61.9876 62.9487 61.597 62.5743 61.125L64.1246 59.0498C64.5315 59.5218 65.0035 59.888 65.5406 60.1484C66.0777 60.417 66.6718 60.5513 67.3228 60.5513C67.9576 60.5513 68.4947 60.4333 68.9342 60.1973C69.3736 59.9694 69.7114 59.6317 69.9474 59.1841C70.1834 58.7446 70.3014 58.2116 70.3014 57.585V47.8438L70.6432 44.792ZM61.7564 51.5547V51.2983C61.7564 50.2892 61.8785 49.3737 62.1227 48.5518C62.3749 47.7217 62.7289 47.0096 63.1847 46.4155C63.6485 45.8215 64.2101 45.3617 64.8692 45.0361C65.5284 44.7106 66.273 44.5479 67.1031 44.5479C67.982 44.5479 68.7185 44.7106 69.3126 45.0361C69.9067 45.3617 70.395 45.8255 70.7774 46.4277C71.1599 47.0218 71.457 47.7257 71.6686 48.5396C71.8883 49.3452 72.0592 50.2282 72.1812 51.1885V51.75C72.0592 52.6696 71.8761 53.5241 71.6319 54.3135C71.3878 55.1029 71.0663 55.7946 70.6676 56.3887C70.2688 56.9746 69.7724 57.4303 69.1783 57.7559C68.5924 58.0814 67.8925 58.2441 67.0787 58.2441C66.2649 58.2441 65.5284 58.0773 64.8692 57.7437C64.2182 57.41 63.6607 56.9421 63.1969 56.3398C62.733 55.7376 62.3749 55.0296 62.1227 54.2158C61.8785 53.402 61.7564 52.515 61.7564 51.5547ZM65.2721 51.2983V51.5547C65.2721 52.0999 65.325 52.6086 65.4308 53.0806C65.5366 53.5526 65.6993 53.9717 65.919 54.3379C66.1469 54.696 66.4277 54.9767 66.7613 55.1802C67.1031 55.3755 67.506 55.4731 67.9698 55.4731C68.6127 55.4731 69.1376 55.3389 69.5445 55.0703C69.9514 54.7936 70.2566 54.4152 70.4601 53.9351C70.6635 53.4549 70.7815 52.9015 70.8141 52.2749V50.6758C70.7978 50.1631 70.7286 49.7033 70.6065 49.2964C70.4845 48.8813 70.3136 48.5273 70.0938 48.2344C69.8741 47.9414 69.5893 47.7135 69.2394 47.5508C68.8894 47.388 68.4744 47.3066 67.9942 47.3066C67.5304 47.3066 67.1275 47.4124 66.7857 47.624C66.4521 47.8275 66.1713 48.1082 65.9435 48.4663C65.7237 48.8244 65.5569 49.2476 65.443 49.7358C65.329 50.216 65.2721 50.7368 65.2721 51.2983ZM80.4245 44.792V58H76.8967V44.792H80.4245ZM76.677 41.3496C76.677 40.8369 76.856 40.4137 77.2141 40.0801C77.5721 39.7464 78.0523 39.5796 78.6545 39.5796C79.2486 39.5796 79.7246 39.7464 80.0827 40.0801C80.4489 40.4137 80.632 40.8369 80.632 41.3496C80.632 41.8623 80.4489 42.2855 80.0827 42.6191C79.7246 42.9528 79.2486 43.1196 78.6545 43.1196C78.0523 43.1196 77.5721 42.9528 77.2141 42.6191C76.856 42.2855 76.677 41.8623 76.677 41.3496ZM86.9222 47.6118V58H83.4065V44.792H86.7024L86.9222 47.6118ZM86.4095 50.9321H85.4573C85.4573 49.9556 85.5835 49.0767 85.8357 48.2954C86.088 47.506 86.442 46.8346 86.8978 46.2812C87.3535 45.7197 87.8947 45.2925 88.5213 44.9995C89.1561 44.6984 89.8641 44.5479 90.6453 44.5479C91.2638 44.5479 91.8294 44.6374 92.3421 44.8164C92.8548 44.9954 93.2942 45.2803 93.6604 45.6709C94.0348 46.0615 94.3196 46.5783 94.5149 47.2212C94.7184 47.8641 94.8201 48.6494 94.8201 49.5771V58H91.2801V49.5649C91.2801 48.979 91.1987 48.5233 91.0359 48.1978C90.8732 47.8722 90.6331 47.6444 90.3157 47.5142C90.0065 47.3758 89.624 47.3066 89.1683 47.3066C88.6963 47.3066 88.2853 47.4002 87.9353 47.5874C87.5936 47.7746 87.3087 48.035 87.0809 48.3687C86.8611 48.6942 86.6943 49.0767 86.5804 49.5161C86.4664 49.9556 86.4095 50.4276 86.4095 50.9321ZM111.148 55.0215V49.1377C111.148 48.7145 111.079 48.3524 110.94 48.0513C110.802 47.742 110.586 47.502 110.293 47.3311C110.009 47.1602 109.638 47.0747 109.183 47.0747C108.792 47.0747 108.454 47.1439 108.169 47.2822C107.885 47.4124 107.665 47.6037 107.51 47.856C107.356 48.1001 107.278 48.389 107.278 48.7227H103.763C103.763 48.1611 103.893 47.6281 104.153 47.1235C104.414 46.619 104.792 46.1755 105.289 45.793C105.785 45.4023 106.375 45.0972 107.059 44.8774C107.75 44.6577 108.523 44.5479 109.378 44.5479C110.403 44.5479 111.315 44.7188 112.112 45.0605C112.91 45.4023 113.536 45.915 113.992 46.5986C114.456 47.2822 114.688 48.1367 114.688 49.1621V54.814C114.688 55.5382 114.733 56.1323 114.822 56.5962C114.912 57.0519 115.042 57.4507 115.213 57.7925V58H111.661C111.49 57.6419 111.36 57.1943 111.27 56.6572C111.189 56.112 111.148 55.5667 111.148 55.0215ZM111.612 49.9556L111.636 51.9453H109.671C109.207 51.9453 108.804 51.9982 108.462 52.104C108.121 52.2098 107.84 52.3604 107.62 52.5557C107.4 52.7428 107.238 52.9626 107.132 53.2148C107.034 53.4671 106.985 53.7438 106.985 54.0449C106.985 54.346 107.055 54.6187 107.193 54.8628C107.331 55.0988 107.531 55.286 107.791 55.4243C108.051 55.5545 108.357 55.6196 108.707 55.6196C109.236 55.6196 109.695 55.5138 110.086 55.3022C110.477 55.0907 110.778 54.8302 110.989 54.521C111.209 54.2118 111.323 53.9188 111.331 53.6421L112.259 55.1313C112.129 55.465 111.95 55.8109 111.722 56.1689C111.502 56.527 111.221 56.8647 110.879 57.1821C110.538 57.4914 110.127 57.7477 109.646 57.9512C109.166 58.1465 108.597 58.2441 107.938 58.2441C107.099 58.2441 106.338 58.0773 105.655 57.7437C104.979 57.4019 104.442 56.9339 104.043 56.3398C103.653 55.7376 103.458 55.054 103.458 54.2891C103.458 53.5973 103.588 52.9829 103.848 52.4458C104.109 51.9087 104.491 51.457 104.996 51.0908C105.508 50.7165 106.147 50.4357 106.912 50.2485C107.677 50.0532 108.564 49.9556 109.573 49.9556H111.612ZM124.689 54.3501C124.689 54.0978 124.616 53.87 124.469 53.6665C124.323 53.4631 124.05 53.2759 123.651 53.105C123.261 52.9259 122.695 52.7632 121.955 52.6167C121.287 52.4702 120.665 52.2871 120.087 52.0674C119.517 51.8395 119.021 51.5669 118.598 51.2495C118.183 50.9321 117.857 50.5578 117.621 50.1265C117.385 49.687 117.267 49.1865 117.267 48.625C117.267 48.0716 117.385 47.5508 117.621 47.0625C117.865 46.5742 118.211 46.1429 118.659 45.7686C119.115 45.3861 119.668 45.089 120.319 44.8774C120.978 44.6577 121.719 44.5479 122.541 44.5479C123.688 44.5479 124.673 44.731 125.495 45.0972C126.325 45.4634 126.96 45.9679 127.399 46.6108C127.847 47.2456 128.07 47.9699 128.07 48.7837H124.555C124.555 48.4419 124.482 48.1367 124.335 47.8682C124.197 47.5915 123.977 47.3758 123.676 47.2212C123.383 47.0584 123 46.9771 122.528 46.9771C122.138 46.9771 121.8 47.0462 121.515 47.1846C121.23 47.3148 121.011 47.4938 120.856 47.7217C120.71 47.9414 120.636 48.1855 120.636 48.4541C120.636 48.6576 120.677 48.8407 120.758 49.0034C120.848 49.158 120.99 49.3005 121.186 49.4307C121.381 49.5609 121.633 49.6829 121.942 49.7969C122.26 49.9027 122.65 50.0003 123.114 50.0898C124.067 50.2852 124.917 50.5415 125.666 50.8589C126.414 51.1681 127.008 51.5913 127.448 52.1284C127.887 52.6574 128.107 53.3532 128.107 54.2158C128.107 54.8018 127.977 55.3389 127.716 55.8271C127.456 56.3154 127.082 56.7427 126.593 57.1089C126.105 57.467 125.519 57.7477 124.836 57.9512C124.16 58.1465 123.399 58.2441 122.553 58.2441C121.324 58.2441 120.282 58.0244 119.428 57.585C118.581 57.1455 117.939 56.5881 117.499 55.9126C117.068 55.229 116.852 54.5291 116.852 53.813H120.185C120.201 54.2931 120.323 54.6797 120.551 54.9727C120.787 55.2656 121.084 55.4772 121.442 55.6074C121.808 55.7376 122.203 55.8027 122.626 55.8027C123.082 55.8027 123.46 55.7417 123.761 55.6196C124.062 55.4894 124.29 55.3185 124.445 55.1069C124.608 54.8872 124.689 54.6349 124.689 54.3501ZM47.4079 84.3491C47.4079 84.0317 47.3591 83.7469 47.2614 83.4946C47.1719 83.2342 47.001 82.9982 46.7487 82.7866C46.4965 82.5669 46.1424 82.3512 45.6867 82.1396C45.231 81.9281 44.641 81.7083 43.9167 81.4805C43.111 81.2201 42.3461 80.9271 41.6218 80.6016C40.9056 80.276 40.2709 79.8976 39.7175 79.4663C39.1722 79.0269 38.7409 78.5182 38.4235 77.9404C38.1143 77.3626 37.9597 76.6912 37.9597 75.9263C37.9597 75.1857 38.1224 74.5143 38.4479 73.9121C38.7735 73.3018 39.2292 72.7809 39.8151 72.3496C40.4011 71.9102 41.0928 71.5724 41.8903 71.3364C42.696 71.1004 43.579 70.9824 44.5393 70.9824C45.8495 70.9824 46.9929 71.2184 47.9694 71.6904C48.946 72.1624 49.7028 72.8094 50.2399 73.6313C50.7852 74.4533 51.0578 75.3932 51.0578 76.4512H47.4201C47.4201 75.9303 47.3103 75.4746 47.0905 75.084C46.8789 74.6852 46.5534 74.3719 46.114 74.144C45.6826 73.9162 45.1374 73.8022 44.4782 73.8022C43.8435 73.8022 43.3145 73.8999 42.8913 74.0952C42.4681 74.2824 42.1507 74.5387 41.9392 74.8643C41.7276 75.1816 41.6218 75.5397 41.6218 75.9385C41.6218 76.2396 41.695 76.5122 41.8415 76.7563C41.9961 77.0005 42.224 77.2284 42.5251 77.4399C42.8262 77.6515 43.1965 77.8509 43.6359 78.0381C44.0754 78.2253 44.584 78.4084 45.1618 78.5874C46.1302 78.8804 46.9807 79.21 47.7131 79.5762C48.4536 79.9424 49.0721 80.3534 49.5686 80.8091C50.065 81.2648 50.4393 81.7816 50.6916 82.3594C50.9439 82.9372 51.07 83.5923 51.07 84.3247C51.07 85.0978 50.9195 85.7896 50.6184 86.3999C50.3173 87.0103 49.8819 87.527 49.3122 87.9502C48.7425 88.3734 48.063 88.6948 47.2736 88.9146C46.4842 89.1343 45.6013 89.2441 44.6247 89.2441C43.7458 89.2441 42.8791 89.1302 42.0246 88.9023C41.1701 88.6663 40.3929 88.3123 39.6931 87.8403C39.0013 87.3683 38.4479 86.7661 38.0329 86.0337C37.6179 85.3013 37.4104 84.4346 37.4104 83.4336H41.0847C41.0847 83.987 41.1701 84.4549 41.341 84.8374C41.5119 85.2199 41.752 85.5291 42.0612 85.7651C42.3786 86.0011 42.753 86.172 43.1843 86.2778C43.6237 86.3836 44.1039 86.4365 44.6247 86.4365C45.2595 86.4365 45.7803 86.347 46.1872 86.168C46.6022 85.9889 46.9074 85.7407 47.1027 85.4233C47.3062 85.106 47.4079 84.7479 47.4079 84.3491ZM59.9603 75.792V78.2822H52.2698V75.792H59.9603ZM54.1741 72.5327H57.6897V85.0205C57.6897 85.403 57.7386 85.696 57.8362 85.8994C57.942 86.1029 58.0966 86.2453 58.3001 86.3267C58.5035 86.3999 58.7599 86.4365 59.0691 86.4365C59.2889 86.4365 59.4842 86.4284 59.6551 86.4121C59.8341 86.3877 59.9847 86.3633 60.1067 86.3389L60.1189 88.9268C59.8178 89.0244 59.4923 89.1017 59.1424 89.1587C58.7924 89.2157 58.4059 89.2441 57.9827 89.2441C57.2096 89.2441 56.5341 89.118 55.9563 88.8657C55.3867 88.6053 54.9472 88.1903 54.638 87.6206C54.3287 87.0509 54.1741 86.3022 54.1741 85.3745V72.5327ZM69.9247 85.8384V75.792H73.4403V89H70.1322L69.9247 85.8384ZM70.3153 83.1284L71.3529 83.104C71.3529 83.9829 71.2512 84.8008 71.0478 85.5576C70.8443 86.3063 70.5391 86.9574 70.1322 87.5107C69.7253 88.056 69.2126 88.4832 68.5941 88.7925C67.9756 89.0936 67.2473 89.2441 66.4091 89.2441C65.7662 89.2441 65.1721 89.1546 64.6269 88.9756C64.0897 88.7884 63.6259 88.4995 63.2353 88.1089C62.8528 87.7101 62.5517 87.2015 62.3319 86.583C62.1203 85.9564 62.0145 85.2036 62.0145 84.3247V75.792H65.5302V84.3491C65.5302 84.7397 65.5749 85.0693 65.6645 85.3379C65.7621 85.6064 65.8964 85.8262 66.0673 85.9971C66.2382 86.168 66.4376 86.29 66.6654 86.3633C66.9014 86.4365 67.1618 86.4731 67.4467 86.4731C68.171 86.4731 68.7406 86.3267 69.1557 86.0337C69.5788 85.7407 69.8759 85.342 70.0468 84.8374C70.2258 84.3247 70.3153 83.755 70.3153 83.1284ZM84.0762 86.1191V70.25H87.6162V89H84.4302L84.0762 86.1191ZM75.7266 82.5547V82.2983C75.7266 81.2892 75.8405 80.3737 76.0684 79.5518C76.2962 78.7217 76.6299 78.0096 77.0693 77.4155C77.5088 76.8215 78.05 76.3617 78.6929 76.0361C79.3358 75.7106 80.0682 75.5479 80.8901 75.5479C81.6632 75.5479 82.3387 75.7106 82.9165 76.0361C83.5024 76.3617 83.9989 76.8255 84.4058 77.4277C84.8208 78.0218 85.1545 78.7257 85.4067 79.5396C85.659 80.3452 85.8421 81.2282 85.9561 82.1885V82.75C85.8421 83.6696 85.659 84.5241 85.4067 85.3135C85.1545 86.1029 84.8208 86.7946 84.4058 87.3887C83.9989 87.9746 83.5024 88.4303 82.9165 88.7559C82.3306 89.0814 81.647 89.2441 80.8657 89.2441C80.0438 89.2441 79.3114 89.0773 78.6685 88.7437C78.0337 88.41 77.4966 87.9421 77.0571 87.3398C76.6258 86.7376 76.2962 86.0296 76.0684 85.2158C75.8405 84.402 75.7266 83.515 75.7266 82.5547ZM79.2422 82.2983V82.5547C79.2422 83.0999 79.2829 83.6086 79.3643 84.0806C79.4538 84.5526 79.5962 84.9717 79.7915 85.3379C79.995 85.696 80.2554 85.9767 80.5728 86.1802C80.8983 86.3755 81.293 86.4731 81.7568 86.4731C82.359 86.4731 82.8555 86.3389 83.2461 86.0703C83.6367 85.7936 83.9338 85.4152 84.1372 84.9351C84.3488 84.4549 84.4709 83.9015 84.5034 83.2749V81.6758C84.479 81.1631 84.4058 80.7033 84.2837 80.2964C84.1698 79.8813 83.9989 79.5273 83.771 79.2344C83.5513 78.9414 83.2746 78.7135 82.9409 78.5508C82.6154 78.388 82.2288 78.3066 81.7812 78.3066C81.3255 78.3066 80.9349 78.4124 80.6094 78.624C80.2839 78.8275 80.0194 79.1082 79.8159 79.4663C79.6206 79.8244 79.4741 80.2476 79.3765 80.7358C79.2869 81.216 79.2422 81.7368 79.2422 82.2983ZM96.5919 89.2441C95.5665 89.2441 94.6469 89.0814 93.8331 88.7559C93.0193 88.4222 92.3276 87.9624 91.7579 87.3765C91.1964 86.7905 90.7651 86.111 90.464 85.3379C90.1629 84.5566 90.0123 83.7266 90.0123 82.8477V82.3594C90.0123 81.3584 90.1547 80.4429 90.4395 79.6128C90.7244 78.7827 91.1313 78.0625 91.6603 77.4521C92.1974 76.8418 92.8484 76.3739 93.6134 76.0483C94.3784 75.7147 95.241 75.5479 96.2013 75.5479C97.1371 75.5479 97.9672 75.7025 98.6915 76.0117C99.4158 76.321 100.022 76.7604 100.51 77.3301C101.007 77.8997 101.381 78.5833 101.633 79.3809C101.886 80.1702 102.012 81.0492 102.012 82.0176V83.4824H91.5138V81.1387H98.5572V80.8701C98.5572 80.3818 98.4677 79.9465 98.2887 79.564C98.1178 79.1733 97.8574 78.8641 97.5074 78.6362C97.1575 78.4084 96.7099 78.2944 96.1646 78.2944C95.7008 78.2944 95.302 78.3962 94.9684 78.5996C94.6347 78.8031 94.3621 79.0879 94.1505 79.4541C93.947 79.8203 93.7924 80.2516 93.6866 80.748C93.589 81.2363 93.5401 81.7734 93.5401 82.3594V82.8477C93.5401 83.3766 93.6134 83.8649 93.7599 84.3125C93.9145 84.7601 94.1301 85.1466 94.4068 85.4722C94.6917 85.7977 95.0335 86.05 95.4322 86.229C95.8391 86.408 96.2989 86.4976 96.8116 86.4976C97.4464 86.4976 98.0364 86.3755 98.5816 86.1313C99.135 85.8791 99.6111 85.5007 100.01 84.9961L101.719 86.8516C101.442 87.2503 101.064 87.6328 100.584 87.999C100.112 88.3652 99.5419 88.6663 98.8746 88.9023C98.2073 89.1302 97.4464 89.2441 96.5919 89.2441ZM107.606 78.6118V89H104.091V75.792H107.386L107.606 78.6118ZM107.093 81.9321H106.141C106.141 80.9556 106.267 80.0767 106.52 79.2954C106.772 78.506 107.126 77.8346 107.582 77.2812C108.037 76.7197 108.579 76.2925 109.205 75.9995C109.84 75.6984 110.548 75.5479 111.329 75.5479C111.948 75.5479 112.513 75.6374 113.026 75.8164C113.539 75.9954 113.978 76.2803 114.344 76.6709C114.719 77.0615 115.004 77.5783 115.199 78.2212C115.402 78.8641 115.504 79.6494 115.504 80.5771V89H111.964V80.5649C111.964 79.979 111.883 79.5233 111.72 79.1978C111.557 78.8722 111.317 78.6444 111 78.5142C110.69 78.3758 110.308 78.3066 109.852 78.3066C109.38 78.3066 108.969 78.4002 108.619 78.5874C108.278 78.7746 107.993 79.035 107.765 79.3687C107.545 79.6942 107.378 80.0767 107.264 80.5161C107.15 80.9556 107.093 81.4276 107.093 81.9321ZM124.797 75.792V78.2822H117.107V75.792H124.797ZM119.011 72.5327H122.527V85.0205C122.527 85.403 122.575 85.696 122.673 85.8994C122.779 86.1029 122.934 86.2453 123.137 86.3267C123.34 86.3999 123.597 86.4365 123.906 86.4365C124.126 86.4365 124.321 86.4284 124.492 86.4121C124.671 86.3877 124.822 86.3633 124.944 86.3389L124.956 88.9268C124.655 89.0244 124.329 89.1017 123.979 89.1587C123.629 89.2157 123.243 89.2441 122.82 89.2441C122.047 89.2441 121.371 89.118 120.793 88.8657C120.224 88.6053 119.784 88.1903 119.475 87.6206C119.166 87.0509 119.011 86.3022 119.011 85.3745V72.5327Z" fill="white"/>
</svg>
