<svg width="162" height="131" viewBox="0 0 162 131" fill="none" xmlns="http://www.w3.org/2000/svg">
<rect width="162" height="131" rx="12" fill="#1EC624"/>
<path d="M23.0133 54.8418L26.9781 38.0938H29.193L29.6988 40.8828L25.4742 58H23.0953L23.0133 54.8418ZM20.9762 38.0938L24.2574 54.8418L23.984 58H21.3316L16.9156 38.0938H20.9762ZM33.1852 54.7734L36.4254 38.0938H40.4859L36.0836 58H33.4313L33.1852 54.7734ZM30.4371 38.0938L34.4293 54.9102L34.3199 58H31.941L27.6891 40.8691L28.2359 38.0938H30.4371ZM46.4602 37V58H42.5227V37H46.4602ZM45.8996 50.084H44.8195C44.8286 49.054 44.9654 48.1061 45.2297 47.2402C45.494 46.3652 45.8723 45.6087 46.3645 44.9707C46.8566 44.3236 47.4445 43.8223 48.1281 43.4668C48.8208 43.1113 49.5865 42.9336 50.425 42.9336C51.1542 42.9336 51.815 43.0384 52.4074 43.248C53.009 43.4486 53.524 43.7767 53.9523 44.2324C54.3898 44.679 54.7271 45.2669 54.9641 45.9961C55.201 46.7253 55.3195 47.6094 55.3195 48.6484V58H51.3547V48.6211C51.3547 47.9648 51.259 47.4499 51.0676 47.0762C50.8853 46.6934 50.6164 46.4245 50.2609 46.2695C49.9146 46.1055 49.4862 46.0234 48.9758 46.0234C48.4107 46.0234 47.9276 46.1283 47.5266 46.3379C47.1346 46.5475 46.8202 46.8392 46.5832 47.2129C46.3462 47.5775 46.173 48.0059 46.0637 48.498C45.9543 48.9902 45.8996 49.5189 45.8996 50.084ZM66.448 54.6641V48.0742C66.448 47.6003 66.3706 47.1947 66.2156 46.8574C66.0607 46.5111 65.8191 46.2422 65.491 46.0508C65.172 45.8594 64.7573 45.7637 64.2469 45.7637C63.8094 45.7637 63.4311 45.8411 63.1121 45.9961C62.7931 46.1419 62.547 46.3561 62.3738 46.6387C62.2007 46.9121 62.1141 47.2357 62.1141 47.6094H58.1766C58.1766 46.9805 58.3224 46.3835 58.6141 45.8184C58.9057 45.2533 59.3296 44.7565 59.8855 44.3281C60.4415 43.8906 61.1023 43.5488 61.868 43.3027C62.6427 43.0566 63.5086 42.9336 64.4656 42.9336C65.6141 42.9336 66.6349 43.125 67.5281 43.5078C68.4214 43.8906 69.1232 44.4648 69.6336 45.2305C70.1531 45.9961 70.4129 46.9531 70.4129 48.1016V54.4316C70.4129 55.2428 70.463 55.9082 70.5633 56.4277C70.6635 56.9382 70.8094 57.3848 71.0008 57.7676V58H67.0223C66.8309 57.599 66.685 57.0977 66.5848 56.4961C66.4936 55.8854 66.448 55.2747 66.448 54.6641ZM66.9676 48.9902L66.9949 51.2188H64.7938C64.2742 51.2188 63.823 51.278 63.4402 51.3965C63.0574 51.515 62.743 51.6836 62.4969 51.9023C62.2508 52.112 62.0685 52.3581 61.95 52.6406C61.8406 52.9232 61.7859 53.2331 61.7859 53.5703C61.7859 53.9076 61.8634 54.2129 62.0184 54.4863C62.1733 54.7507 62.3966 54.9603 62.6883 55.1152C62.9799 55.2611 63.3217 55.334 63.7137 55.334C64.3061 55.334 64.8211 55.2155 65.2586 54.9785C65.6961 54.7415 66.0333 54.4499 66.2703 54.1035C66.5164 53.7572 66.644 53.429 66.6531 53.1191L67.6922 54.7871C67.5464 55.1608 67.3458 55.5482 67.0906 55.9492C66.8445 56.3503 66.5301 56.7285 66.1473 57.084C65.7645 57.4303 65.3042 57.7174 64.7664 57.9453C64.2286 58.1641 63.5906 58.2734 62.8523 58.2734C61.9135 58.2734 61.0613 58.0866 60.2957 57.7129C59.5392 57.3301 58.9376 56.806 58.491 56.1406C58.0535 55.4661 57.8348 54.7005 57.8348 53.8438C57.8348 53.069 57.9806 52.3809 58.2723 51.7793C58.5639 51.1777 58.9923 50.6719 59.5574 50.2617C60.1316 49.8424 60.8471 49.528 61.7039 49.3184C62.5607 49.0996 63.5542 48.9902 64.6844 48.9902H66.9676ZM80.8441 43.207V45.9961H72.2309V43.207H80.8441ZM74.3637 39.5566H78.3012V53.543C78.3012 53.9714 78.3559 54.2995 78.4652 54.5273C78.5837 54.7552 78.7569 54.9147 78.9848 55.0059C79.2126 55.0879 79.4997 55.1289 79.8461 55.1289C80.0922 55.1289 80.3109 55.1198 80.5023 55.1016C80.7029 55.0742 80.8715 55.0469 81.0082 55.0195L81.0219 57.918C80.6846 58.0273 80.3201 58.1139 79.9281 58.1777C79.5362 58.2415 79.1033 58.2734 78.6293 58.2734C77.7634 58.2734 77.0069 58.1322 76.3598 57.8496C75.7218 57.5579 75.2296 57.0931 74.8832 56.4551C74.5369 55.8171 74.3637 54.9785 74.3637 53.9395V39.5566ZM91.2344 53.9121C91.2344 53.6296 91.1523 53.3743 90.9883 53.1465C90.8242 52.9186 90.5189 52.709 90.0723 52.5176C89.6348 52.3171 89.0013 52.1348 88.1719 51.9707C87.4245 51.8066 86.7272 51.6016 86.0801 51.3555C85.4421 51.1003 84.8861 50.7949 84.4121 50.4395C83.9473 50.084 83.5827 49.6647 83.3184 49.1816C83.054 48.6895 82.9219 48.1289 82.9219 47.5C82.9219 46.8802 83.054 46.2969 83.3184 45.75C83.5918 45.2031 83.9792 44.7201 84.4805 44.3008C84.9909 43.8724 85.6107 43.5397 86.3398 43.3027C87.0781 43.0566 87.9076 42.9336 88.8281 42.9336C90.1133 42.9336 91.2161 43.1387 92.1367 43.5488C93.0664 43.959 93.7773 44.5241 94.2695 45.2441C94.7708 45.9551 95.0215 46.7663 95.0215 47.6777H91.084C91.084 47.2949 91.002 46.9531 90.8379 46.6523C90.6829 46.3424 90.4368 46.1009 90.0996 45.9277C89.7715 45.7454 89.3431 45.6543 88.8145 45.6543C88.377 45.6543 87.9987 45.7318 87.6797 45.8867C87.3607 46.0326 87.1146 46.2331 86.9414 46.4883C86.7773 46.7344 86.6953 47.0078 86.6953 47.3086C86.6953 47.5365 86.7409 47.7415 86.832 47.9238C86.9323 48.097 87.0918 48.2565 87.3105 48.4023C87.5293 48.5482 87.8118 48.6849 88.1582 48.8125C88.5137 48.931 88.9512 49.0404 89.4707 49.1406C90.5371 49.3594 91.4896 49.6465 92.3281 50.002C93.1667 50.3483 93.832 50.8223 94.3242 51.4238C94.8164 52.0163 95.0625 52.7956 95.0625 53.7617C95.0625 54.418 94.9167 55.0195 94.625 55.5664C94.3333 56.1133 93.9141 56.5918 93.3672 57.002C92.8203 57.403 92.1641 57.7174 91.3984 57.9453C90.6419 58.1641 89.7897 58.2734 88.8418 58.2734C87.4655 58.2734 86.2988 58.0273 85.3418 57.5352C84.3939 57.043 83.6738 56.4186 83.1816 55.6621C82.6986 54.8965 82.457 54.1126 82.457 53.3105H86.1895C86.2077 53.8483 86.3444 54.2812 86.5996 54.6094C86.8639 54.9375 87.1966 55.1745 87.5977 55.3203C88.0078 55.4661 88.4499 55.5391 88.9238 55.5391C89.4342 55.5391 89.8581 55.4707 90.1953 55.334C90.5326 55.1882 90.7878 54.9967 90.9609 54.7598C91.1432 54.5137 91.2344 54.2311 91.2344 53.9121ZM106.109 41.498L100.695 58H96.3336L103.73 38.0938H106.505L106.109 41.498ZM110.607 58L105.179 41.498L104.742 38.0938H107.545L114.982 58H110.607ZM110.361 50.5898V53.8027H99.8473V50.5898H110.361ZM120.232 46.0508V63.6875H116.294V43.207H119.945L120.232 46.0508ZM129.597 50.4395V50.7266C129.597 51.8021 129.469 52.8001 129.214 53.7207C128.968 54.6413 128.603 55.4434 128.12 56.127C127.637 56.8014 127.036 57.3301 126.316 57.7129C125.605 58.0866 124.784 58.2734 123.855 58.2734C122.952 58.2734 122.168 58.0911 121.503 57.7266C120.838 57.362 120.277 56.8516 119.821 56.1953C119.375 55.5299 119.015 54.7598 118.741 53.8848C118.468 53.0098 118.258 52.071 118.113 51.0684V50.3164C118.258 49.2409 118.468 48.2565 118.741 47.3633C119.015 46.4609 119.375 45.6816 119.821 45.0254C120.277 44.36 120.833 43.8451 121.489 43.4805C122.155 43.1159 122.934 42.9336 123.827 42.9336C124.766 42.9336 125.591 43.1113 126.302 43.4668C127.022 43.8223 127.624 44.3327 128.107 44.998C128.599 45.6634 128.968 46.4564 129.214 47.377C129.469 48.2975 129.597 49.3184 129.597 50.4395ZM125.646 50.7266V50.4395C125.646 49.8105 125.591 49.2318 125.482 48.7031C125.381 48.1654 125.217 47.696 124.989 47.2949C124.771 46.8939 124.479 46.584 124.114 46.3652C123.759 46.1374 123.326 46.0234 122.816 46.0234C122.278 46.0234 121.818 46.11 121.435 46.2832C121.061 46.4564 120.756 46.707 120.519 47.0352C120.282 47.3633 120.104 47.7552 119.986 48.2109C119.867 48.6667 119.794 49.1816 119.767 49.7559V51.6562C119.812 52.3307 119.94 52.9368 120.15 53.4746C120.359 54.0033 120.683 54.4225 121.12 54.7324C121.558 55.0423 122.132 55.1973 122.843 55.1973C123.363 55.1973 123.8 55.0833 124.155 54.8555C124.511 54.6185 124.798 54.2949 125.017 53.8848C125.245 53.4746 125.404 53.0007 125.495 52.4629C125.596 51.9251 125.646 51.3464 125.646 50.7266ZM136.132 46.0508V63.6875H132.194V43.207H135.845L136.132 46.0508ZM145.497 50.4395V50.7266C145.497 51.8021 145.369 52.8001 145.114 53.7207C144.868 54.6413 144.503 55.4434 144.02 56.127C143.537 56.8014 142.936 57.3301 142.216 57.7129C141.505 58.0866 140.684 58.2734 139.755 58.2734C138.852 58.2734 138.068 58.0911 137.403 57.7266C136.738 57.362 136.177 56.8516 135.721 56.1953C135.275 55.5299 134.915 54.7598 134.641 53.8848C134.368 53.0098 134.158 52.071 134.013 51.0684V50.3164C134.158 49.2409 134.368 48.2565 134.641 47.3633C134.915 46.4609 135.275 45.6816 135.721 45.0254C136.177 44.36 136.733 43.8451 137.389 43.4805C138.055 43.1159 138.834 42.9336 139.727 42.9336C140.666 42.9336 141.491 43.1113 142.202 43.4668C142.922 43.8223 143.524 44.3327 144.007 44.998C144.499 45.6634 144.868 46.4564 145.114 47.377C145.369 48.2975 145.497 49.3184 145.497 50.4395ZM141.546 50.7266V50.4395C141.546 49.8105 141.491 49.2318 141.382 48.7031C141.281 48.1654 141.117 47.696 140.889 47.2949C140.671 46.8939 140.379 46.584 140.014 46.3652C139.659 46.1374 139.226 46.0234 138.716 46.0234C138.178 46.0234 137.718 46.11 137.335 46.2832C136.961 46.4564 136.656 46.707 136.419 47.0352C136.182 47.3633 136.004 47.7552 135.886 48.2109C135.767 48.6667 135.694 49.1816 135.667 49.7559V51.6562C135.712 52.3307 135.84 52.9368 136.05 53.4746C136.259 54.0033 136.583 54.4225 137.02 54.7324C137.458 55.0423 138.032 55.1973 138.743 55.1973C139.263 55.1973 139.7 55.0833 140.055 54.8555C140.411 54.6185 140.698 54.2949 140.917 53.8848C141.145 53.4746 141.304 53.0007 141.395 52.4629C141.496 51.9251 141.546 51.3464 141.546 50.7266ZM43.9309 83.791C43.9309 83.4355 43.8762 83.1165 43.7668 82.834C43.6665 82.5423 43.4751 82.278 43.1926 82.041C42.91 81.7949 42.5135 81.5534 42.0031 81.3164C41.4927 81.0794 40.8319 80.8333 40.0207 80.5781C39.1184 80.2865 38.2616 79.9583 37.4504 79.5938C36.6483 79.2292 35.9374 78.8053 35.3176 78.3223C34.7069 77.8301 34.2238 77.2604 33.8684 76.6133C33.522 75.9661 33.3488 75.2142 33.3488 74.3574C33.3488 73.528 33.5311 72.776 33.8957 72.1016C34.2603 71.418 34.7707 70.8346 35.427 70.3516C36.0832 69.8594 36.8579 69.4811 37.7512 69.2168C38.6535 68.9525 39.6424 68.8203 40.718 68.8203C42.1854 68.8203 43.466 69.0846 44.5598 69.6133C45.6535 70.1419 46.5012 70.8665 47.1027 71.7871C47.7134 72.7077 48.0187 73.7604 48.0187 74.9453H43.9445C43.9445 74.362 43.8215 73.8516 43.5754 73.4141C43.3384 72.9674 42.9738 72.6165 42.4816 72.3613C41.9986 72.1061 41.3879 71.9785 40.6496 71.9785C39.9387 71.9785 39.3462 72.0879 38.8723 72.3066C38.3983 72.5163 38.0428 72.8034 37.8059 73.168C37.5689 73.5234 37.4504 73.9245 37.4504 74.3711C37.4504 74.7083 37.5324 75.0137 37.6965 75.2871C37.8697 75.5605 38.1249 75.8158 38.4621 76.0527C38.7993 76.2897 39.2141 76.513 39.7062 76.7227C40.1984 76.9323 40.7681 77.1374 41.4152 77.3379C42.4999 77.666 43.4523 78.0352 44.2727 78.4453C45.1021 78.8555 45.7948 79.3158 46.3508 79.8262C46.9068 80.3366 47.326 80.9154 47.6086 81.5625C47.8911 82.2096 48.0324 82.9434 48.0324 83.7637C48.0324 84.6296 47.8638 85.4043 47.5266 86.0879C47.1893 86.7715 46.7017 87.3503 46.0637 87.8242C45.4257 88.2982 44.6646 88.6582 43.7805 88.9043C42.8964 89.1504 41.9074 89.2734 40.8137 89.2734C39.8293 89.2734 38.8586 89.1458 37.9016 88.8906C36.9445 88.6263 36.0741 88.2298 35.2902 87.7012C34.5155 87.1725 33.8957 86.498 33.4309 85.6777C32.966 84.8574 32.7336 83.8867 32.7336 82.7656H36.8488C36.8488 83.3854 36.9445 83.9095 37.1359 84.3379C37.3273 84.7663 37.5962 85.1126 37.9426 85.377C38.298 85.6413 38.7173 85.8327 39.2004 85.9512C39.6926 86.0697 40.2303 86.1289 40.8137 86.1289C41.5246 86.1289 42.1079 86.0286 42.5637 85.8281C43.0285 85.6276 43.3703 85.3496 43.5891 84.9941C43.8169 84.6387 43.9309 84.2376 43.9309 83.791ZM57.9715 74.207V76.9961H49.3582V74.207H57.9715ZM51.491 70.5566H55.4285V84.543C55.4285 84.9714 55.4832 85.2995 55.5926 85.5273C55.7111 85.7552 55.8842 85.9147 56.1121 86.0059C56.34 86.0879 56.6271 86.1289 56.9734 86.1289C57.2195 86.1289 57.4383 86.1198 57.6297 86.1016C57.8302 86.0742 57.9988 86.0469 58.1355 86.0195L58.1492 88.918C57.812 89.0273 57.4474 89.1139 57.0555 89.1777C56.6635 89.2415 56.2306 89.2734 55.7566 89.2734C54.8908 89.2734 54.1342 89.1322 53.4871 88.8496C52.8491 88.5579 52.3569 88.0931 52.0105 87.4551C51.6642 86.8171 51.491 85.9785 51.491 84.9395V70.5566ZM69.1137 85.459V74.207H73.0512V89H69.3461L69.1137 85.459ZM69.5512 82.4238L70.7133 82.3965C70.7133 83.3809 70.5993 84.2969 70.3715 85.1445C70.1436 85.9831 69.8018 86.7122 69.3461 87.332C68.8904 87.9427 68.3161 88.4212 67.6234 88.7676C66.9307 89.1048 66.115 89.2734 65.1762 89.2734C64.4561 89.2734 63.7908 89.1732 63.1801 88.9727C62.5785 88.763 62.059 88.4395 61.6215 88.002C61.1931 87.5553 60.8559 86.9857 60.6098 86.293C60.3728 85.5911 60.2543 84.748 60.2543 83.7637V74.207H64.1918V83.791C64.1918 84.2285 64.2419 84.5977 64.3422 84.8984C64.4516 85.1992 64.602 85.4453 64.7934 85.6367C64.9848 85.8281 65.2081 85.9648 65.4633 86.0469C65.7276 86.1289 66.0193 86.1699 66.3383 86.1699C67.1495 86.1699 67.7875 86.0059 68.2523 85.6777C68.7263 85.3496 69.059 84.903 69.2504 84.3379C69.4509 83.7637 69.5512 83.1257 69.5512 82.4238ZM84.9453 85.7734V68H88.9102V89H85.3418L84.9453 85.7734ZM75.5938 81.7812V81.4941C75.5938 80.3639 75.7214 79.3385 75.9766 78.418C76.2318 77.4883 76.6055 76.6908 77.0977 76.0254C77.5898 75.36 78.196 74.8451 78.916 74.4805C79.6361 74.1159 80.4564 73.9336 81.377 73.9336C82.2428 73.9336 82.9993 74.1159 83.6465 74.4805C84.3027 74.8451 84.8587 75.3646 85.3145 76.0391C85.7793 76.7044 86.153 77.4928 86.4355 78.4043C86.7181 79.3066 86.9232 80.2956 87.0508 81.3711V82C86.9232 83.0299 86.7181 83.987 86.4355 84.8711C86.153 85.7552 85.7793 86.5299 85.3145 87.1953C84.8587 87.8516 84.3027 88.362 83.6465 88.7266C82.9902 89.0911 82.2246 89.2734 81.3496 89.2734C80.429 89.2734 79.6087 89.0866 78.8887 88.7129C78.1777 88.3392 77.5762 87.8151 77.084 87.1406C76.6009 86.4661 76.2318 85.6732 75.9766 84.7617C75.7214 83.8503 75.5938 82.8568 75.5938 81.7812ZM79.5312 81.4941V81.7812C79.5312 82.3919 79.5768 82.9616 79.668 83.4902C79.7682 84.0189 79.9277 84.4883 80.1465 84.8984C80.3743 85.2995 80.666 85.6139 81.0215 85.8418C81.3861 86.0605 81.8281 86.1699 82.3477 86.1699C83.0221 86.1699 83.5781 86.0195 84.0156 85.7188C84.4531 85.4089 84.7858 84.985 85.0137 84.4473C85.2507 83.9095 85.3874 83.2897 85.4238 82.5879V80.7969C85.3965 80.2227 85.3145 79.7077 85.1777 79.252C85.0501 78.7871 84.8587 78.3906 84.6035 78.0625C84.3574 77.7344 84.0475 77.4792 83.6738 77.2969C83.3092 77.1146 82.8763 77.0234 82.375 77.0234C81.8646 77.0234 81.4271 77.1419 81.0625 77.3789C80.6979 77.6068 80.4017 77.9212 80.1738 78.3223C79.9551 78.7233 79.791 79.1973 79.6816 79.7441C79.5814 80.2819 79.5312 80.8652 79.5312 81.4941ZM98.9449 89.2734C97.7965 89.2734 96.7665 89.0911 95.8551 88.7266C94.9436 88.3529 94.1689 87.8379 93.5309 87.1816C92.9019 86.5254 92.4189 85.7643 92.0816 84.8984C91.7444 84.0234 91.5758 83.0938 91.5758 82.1094V81.5625C91.5758 80.4414 91.7353 79.416 92.0543 78.4863C92.3733 77.5566 92.829 76.75 93.4215 76.0664C94.023 75.3828 94.7522 74.8587 95.609 74.4941C96.4657 74.1204 97.4319 73.9336 98.5074 73.9336C99.5556 73.9336 100.485 74.1068 101.296 74.4531C102.108 74.7995 102.787 75.2917 103.334 75.9297C103.89 76.5677 104.309 77.3333 104.591 78.2266C104.874 79.1107 105.015 80.0951 105.015 81.1797V82.8203H93.2574V80.1953H101.146V79.8945C101.146 79.3477 101.046 78.86 100.845 78.4316C100.654 77.9941 100.362 77.6478 99.9703 77.3926C99.5784 77.1374 99.0771 77.0098 98.4664 77.0098C97.9469 77.0098 97.5003 77.1237 97.1266 77.3516C96.7529 77.5794 96.4475 77.8984 96.2105 78.3086C95.9827 78.7188 95.8095 79.2018 95.691 79.7578C95.5816 80.3047 95.5269 80.9062 95.5269 81.5625V82.1094C95.5269 82.7018 95.609 83.2487 95.773 83.75C95.9462 84.2513 96.1878 84.6842 96.4977 85.0488C96.8167 85.4134 97.1995 85.696 97.6461 85.8965C98.1018 86.097 98.6168 86.1973 99.191 86.1973C99.9019 86.1973 100.563 86.0605 101.173 85.7871C101.793 85.5046 102.326 85.0807 102.773 84.5156L104.687 86.5938C104.377 87.0404 103.953 87.4688 103.416 87.8789C102.887 88.2891 102.249 88.6263 101.502 88.8906C100.754 89.1458 99.9019 89.2734 98.9449 89.2734ZM111.263 77.3652V89H107.325V74.207H111.017L111.263 77.3652ZM110.689 81.084H109.622C109.622 79.9902 109.764 79.0059 110.046 78.1309C110.329 77.2467 110.725 76.4948 111.236 75.875C111.746 75.2461 112.352 74.7676 113.054 74.4395C113.765 74.1022 114.558 73.9336 115.433 73.9336C116.126 73.9336 116.759 74.0339 117.333 74.2344C117.907 74.4349 118.4 74.7539 118.81 75.1914C119.229 75.6289 119.548 76.2077 119.767 76.9277C119.995 77.6478 120.109 78.5273 120.109 79.5664V89H116.144V79.5527C116.144 78.8965 116.053 78.3861 115.87 78.0215C115.688 77.6569 115.419 77.4017 115.064 77.2559C114.717 77.1009 114.289 77.0234 113.779 77.0234C113.25 77.0234 112.79 77.1283 112.398 77.3379C112.015 77.5475 111.696 77.8392 111.441 78.2129C111.195 78.5775 111.008 79.0059 110.88 79.498C110.752 79.9902 110.689 80.5189 110.689 81.084ZM130.499 74.207V76.9961H121.886V74.207H130.499ZM124.018 70.5566H127.956V84.543C127.956 84.9714 128.011 85.2995 128.12 85.5273C128.238 85.7552 128.412 85.9147 128.639 86.0059C128.867 86.0879 129.154 86.1289 129.501 86.1289C129.747 86.1289 129.966 86.1198 130.157 86.1016C130.358 86.0742 130.526 86.0469 130.663 86.0195L130.677 88.918C130.339 89.0273 129.975 89.1139 129.583 89.1777C129.191 89.2415 128.758 89.2734 128.284 89.2734C127.418 89.2734 126.662 89.1322 126.014 88.8496C125.376 88.5579 124.884 88.0931 124.538 87.4551C124.192 86.8171 124.018 85.9785 124.018 84.9395V70.5566Z" fill="white"/>
</svg>
