<svg width="162" height="131" viewBox="0 0 162 131" fill="none" xmlns="http://www.w3.org/2000/svg">
<rect width="162" height="131" rx="12" fill="#1EC624"/>
<path d="M23.0133 54.8418L26.9781 38.0938H29.193L29.6988 40.8828L25.4742 58H23.0953L23.0133 54.8418ZM20.9762 38.0938L24.2574 54.8418L23.984 58H21.3316L16.9156 38.0938H20.9762ZM33.1852 54.7734L36.4254 38.0938H40.4859L36.0836 58H33.4313L33.1852 54.7734ZM30.4371 38.0938L34.4293 54.9102L34.3199 58H31.941L27.6891 40.8691L28.2359 38.0938H30.4371ZM46.4602 37V58H42.5227V37H46.4602ZM45.8996 50.084H44.8195C44.8286 49.054 44.9654 48.1061 45.2297 47.2402C45.494 46.3652 45.8723 45.6087 46.3645 44.9707C46.8566 44.3236 47.4445 43.8223 48.1281 43.4668C48.8208 43.1113 49.5865 42.9336 50.425 42.9336C51.1542 42.9336 51.815 43.0384 52.4074 43.248C53.009 43.4486 53.524 43.7767 53.9523 44.2324C54.3898 44.679 54.7271 45.2669 54.9641 45.9961C55.201 46.7253 55.3195 47.6094 55.3195 48.6484V58H51.3547V48.6211C51.3547 47.9648 51.259 47.4499 51.0676 47.0762C50.8853 46.6934 50.6164 46.4245 50.2609 46.2695C49.9146 46.1055 49.4862 46.0234 48.9758 46.0234C48.4107 46.0234 47.9276 46.1283 47.5266 46.3379C47.1346 46.5475 46.8202 46.8392 46.5832 47.2129C46.3462 47.5775 46.173 48.0059 46.0637 48.498C45.9543 48.9902 45.8996 49.5189 45.8996 50.084ZM66.448 54.6641V48.0742C66.448 47.6003 66.3706 47.1947 66.2156 46.8574C66.0607 46.5111 65.8191 46.2422 65.491 46.0508C65.172 45.8594 64.7573 45.7637 64.2469 45.7637C63.8094 45.7637 63.4311 45.8411 63.1121 45.9961C62.7931 46.1419 62.547 46.3561 62.3738 46.6387C62.2007 46.9121 62.1141 47.2357 62.1141 47.6094H58.1766C58.1766 46.9805 58.3224 46.3835 58.6141 45.8184C58.9057 45.2533 59.3296 44.7565 59.8855 44.3281C60.4415 43.8906 61.1023 43.5488 61.868 43.3027C62.6427 43.0566 63.5086 42.9336 64.4656 42.9336C65.6141 42.9336 66.6349 43.125 67.5281 43.5078C68.4214 43.8906 69.1232 44.4648 69.6336 45.2305C70.1531 45.9961 70.4129 46.9531 70.4129 48.1016V54.4316C70.4129 55.2428 70.463 55.9082 70.5633 56.4277C70.6635 56.9382 70.8094 57.3848 71.0008 57.7676V58H67.0223C66.8309 57.599 66.685 57.0977 66.5848 56.4961C66.4936 55.8854 66.448 55.2747 66.448 54.6641ZM66.9676 48.9902L66.9949 51.2188H64.7938C64.2742 51.2188 63.823 51.278 63.4402 51.3965C63.0574 51.515 62.743 51.6836 62.4969 51.9023C62.2508 52.112 62.0685 52.3581 61.95 52.6406C61.8406 52.9232 61.7859 53.2331 61.7859 53.5703C61.7859 53.9076 61.8634 54.2129 62.0184 54.4863C62.1733 54.7507 62.3966 54.9603 62.6883 55.1152C62.9799 55.2611 63.3217 55.334 63.7137 55.334C64.3061 55.334 64.8211 55.2155 65.2586 54.9785C65.6961 54.7415 66.0333 54.4499 66.2703 54.1035C66.5164 53.7572 66.644 53.429 66.6531 53.1191L67.6922 54.7871C67.5464 55.1608 67.3458 55.5482 67.0906 55.9492C66.8445 56.3503 66.5301 56.7285 66.1473 57.084C65.7645 57.4303 65.3042 57.7174 64.7664 57.9453C64.2286 58.1641 63.5906 58.2734 62.8523 58.2734C61.9135 58.2734 61.0613 58.0866 60.2957 57.7129C59.5392 57.3301 58.9376 56.806 58.491 56.1406C58.0535 55.4661 57.8348 54.7005 57.8348 53.8438C57.8348 53.069 57.9806 52.3809 58.2723 51.7793C58.5639 51.1777 58.9923 50.6719 59.5574 50.2617C60.1316 49.8424 60.8471 49.528 61.7039 49.3184C62.5607 49.0996 63.5542 48.9902 64.6844 48.9902H66.9676ZM80.8441 43.207V45.9961H72.2309V43.207H80.8441ZM74.3637 39.5566H78.3012V53.543C78.3012 53.9714 78.3559 54.2995 78.4652 54.5273C78.5837 54.7552 78.7569 54.9147 78.9848 55.0059C79.2126 55.0879 79.4997 55.1289 79.8461 55.1289C80.0922 55.1289 80.3109 55.1198 80.5023 55.1016C80.7029 55.0742 80.8715 55.0469 81.0082 55.0195L81.0219 57.918C80.6846 58.0273 80.3201 58.1139 79.9281 58.1777C79.5362 58.2415 79.1033 58.2734 78.6293 58.2734C77.7634 58.2734 77.0069 58.1322 76.3598 57.8496C75.7218 57.5579 75.2296 57.0931 74.8832 56.4551C74.5369 55.8171 74.3637 54.9785 74.3637 53.9395V39.5566ZM91.2344 53.9121C91.2344 53.6296 91.1523 53.3743 90.9883 53.1465C90.8242 52.9186 90.5189 52.709 90.0723 52.5176C89.6348 52.3171 89.0013 52.1348 88.1719 51.9707C87.4245 51.8066 86.7272 51.6016 86.0801 51.3555C85.4421 51.1003 84.8861 50.7949 84.4121 50.4395C83.9473 50.084 83.5827 49.6647 83.3184 49.1816C83.054 48.6895 82.9219 48.1289 82.9219 47.5C82.9219 46.8802 83.054 46.2969 83.3184 45.75C83.5918 45.2031 83.9792 44.7201 84.4805 44.3008C84.9909 43.8724 85.6107 43.5397 86.3398 43.3027C87.0781 43.0566 87.9076 42.9336 88.8281 42.9336C90.1133 42.9336 91.2161 43.1387 92.1367 43.5488C93.0664 43.959 93.7773 44.5241 94.2695 45.2441C94.7708 45.9551 95.0215 46.7663 95.0215 47.6777H91.084C91.084 47.2949 91.002 46.9531 90.8379 46.6523C90.6829 46.3424 90.4368 46.1009 90.0996 45.9277C89.7715 45.7454 89.3431 45.6543 88.8145 45.6543C88.377 45.6543 87.9987 45.7318 87.6797 45.8867C87.3607 46.0326 87.1146 46.2331 86.9414 46.4883C86.7773 46.7344 86.6953 47.0078 86.6953 47.3086C86.6953 47.5365 86.7409 47.7415 86.832 47.9238C86.9323 48.097 87.0918 48.2565 87.3105 48.4023C87.5293 48.5482 87.8118 48.6849 88.1582 48.8125C88.5137 48.931 88.9512 49.0404 89.4707 49.1406C90.5371 49.3594 91.4896 49.6465 92.3281 50.002C93.1667 50.3483 93.832 50.8223 94.3242 51.4238C94.8164 52.0163 95.0625 52.7956 95.0625 53.7617C95.0625 54.418 94.9167 55.0195 94.625 55.5664C94.3333 56.1133 93.9141 56.5918 93.3672 57.002C92.8203 57.403 92.1641 57.7174 91.3984 57.9453C90.6419 58.1641 89.7897 58.2734 88.8418 58.2734C87.4655 58.2734 86.2988 58.0273 85.3418 57.5352C84.3939 57.043 83.6738 56.4186 83.1816 55.6621C82.6986 54.8965 82.457 54.1126 82.457 53.3105H86.1895C86.2077 53.8483 86.3444 54.2812 86.5996 54.6094C86.8639 54.9375 87.1966 55.1745 87.5977 55.3203C88.0078 55.4661 88.4499 55.5391 88.9238 55.5391C89.4342 55.5391 89.8581 55.4707 90.1953 55.334C90.5326 55.1882 90.7878 54.9967 90.9609 54.7598C91.1432 54.5137 91.2344 54.2311 91.2344 53.9121ZM106.109 41.498L100.695 58H96.3336L103.73 38.0938H106.505L106.109 41.498ZM110.607 58L105.179 41.498L104.742 38.0938H107.545L114.982 58H110.607ZM110.361 50.5898V53.8027H99.8473V50.5898H110.361ZM120.232 46.0508V63.6875H116.294V43.207H119.945L120.232 46.0508ZM129.597 50.4395V50.7266C129.597 51.8021 129.469 52.8001 129.214 53.7207C128.968 54.6413 128.603 55.4434 128.12 56.127C127.637 56.8014 127.036 57.3301 126.316 57.7129C125.605 58.0866 124.784 58.2734 123.855 58.2734C122.952 58.2734 122.168 58.0911 121.503 57.7266C120.838 57.362 120.277 56.8516 119.821 56.1953C119.375 55.5299 119.015 54.7598 118.741 53.8848C118.468 53.0098 118.258 52.071 118.113 51.0684V50.3164C118.258 49.2409 118.468 48.2565 118.741 47.3633C119.015 46.4609 119.375 45.6816 119.821 45.0254C120.277 44.36 120.833 43.8451 121.489 43.4805C122.155 43.1159 122.934 42.9336 123.827 42.9336C124.766 42.9336 125.591 43.1113 126.302 43.4668C127.022 43.8223 127.624 44.3327 128.107 44.998C128.599 45.6634 128.968 46.4564 129.214 47.377C129.469 48.2975 129.597 49.3184 129.597 50.4395ZM125.646 50.7266V50.4395C125.646 49.8105 125.591 49.2318 125.482 48.7031C125.381 48.1654 125.217 47.696 124.989 47.2949C124.771 46.8939 124.479 46.584 124.114 46.3652C123.759 46.1374 123.326 46.0234 122.816 46.0234C122.278 46.0234 121.818 46.11 121.435 46.2832C121.061 46.4564 120.756 46.707 120.519 47.0352C120.282 47.3633 120.104 47.7552 119.986 48.2109C119.867 48.6667 119.794 49.1816 119.767 49.7559V51.6562C119.812 52.3307 119.94 52.9368 120.15 53.4746C120.359 54.0033 120.683 54.4225 121.12 54.7324C121.558 55.0423 122.132 55.1973 122.843 55.1973C123.363 55.1973 123.8 55.0833 124.155 54.8555C124.511 54.6185 124.798 54.2949 125.017 53.8848C125.245 53.4746 125.404 53.0007 125.495 52.4629C125.596 51.9251 125.646 51.3464 125.646 50.7266ZM136.132 46.0508V63.6875H132.194V43.207H135.845L136.132 46.0508ZM145.497 50.4395V50.7266C145.497 51.8021 145.369 52.8001 145.114 53.7207C144.868 54.6413 144.503 55.4434 144.02 56.127C143.537 56.8014 142.936 57.3301 142.216 57.7129C141.505 58.0866 140.684 58.2734 139.755 58.2734C138.852 58.2734 138.068 58.0911 137.403 57.7266C136.738 57.362 136.177 56.8516 135.721 56.1953C135.275 55.5299 134.915 54.7598 134.641 53.8848C134.368 53.0098 134.158 52.071 134.013 51.0684V50.3164C134.158 49.2409 134.368 48.2565 134.641 47.3633C134.915 46.4609 135.275 45.6816 135.721 45.0254C136.177 44.36 136.733 43.8451 137.389 43.4805C138.055 43.1159 138.834 42.9336 139.727 42.9336C140.666 42.9336 141.491 43.1113 142.202 43.4668C142.922 43.8223 143.524 44.3327 144.007 44.998C144.499 45.6634 144.868 46.4564 145.114 47.377C145.369 48.2975 145.497 49.3184 145.497 50.4395ZM141.546 50.7266V50.4395C141.546 49.8105 141.491 49.2318 141.382 48.7031C141.281 48.1654 141.117 47.696 140.889 47.2949C140.671 46.8939 140.379 46.584 140.014 46.3652C139.659 46.1374 139.226 46.0234 138.716 46.0234C138.178 46.0234 137.718 46.11 137.335 46.2832C136.961 46.4564 136.656 46.707 136.419 47.0352C136.182 47.3633 136.004 47.7552 135.886 48.2109C135.767 48.6667 135.694 49.1816 135.667 49.7559V51.6562C135.712 52.3307 135.84 52.9368 136.05 53.4746C136.259 54.0033 136.583 54.4225 137.02 54.7324C137.458 55.0423 138.032 55.1973 138.743 55.1973C139.263 55.1973 139.7 55.0833 140.055 54.8555C140.411 54.6185 140.698 54.2949 140.917 53.8848C141.145 53.4746 141.304 53.0007 141.395 52.4629C141.496 51.9251 141.546 51.3464 141.546 50.7266ZM49.0781 81.9043H44.0059V78.7051H49.0781C49.862 78.7051 50.5 78.5775 50.9922 78.3223C51.4844 78.0579 51.8444 77.6934 52.0723 77.2285C52.3001 76.7637 52.4141 76.2396 52.4141 75.6562C52.4141 75.0638 52.3001 74.5124 52.0723 74.002C51.8444 73.4915 51.4844 73.0814 50.9922 72.7715C50.5 72.4616 49.862 72.3066 49.0781 72.3066H45.4277V89H41.3262V69.0938H49.0781C50.6367 69.0938 51.972 69.3763 53.084 69.9414C54.2051 70.4974 55.0618 71.2676 55.6543 72.252C56.2467 73.2363 56.543 74.362 56.543 75.6289C56.543 76.9141 56.2467 78.026 55.6543 78.9648C55.0618 79.9036 54.2051 80.6283 53.084 81.1387C51.972 81.6491 50.6367 81.9043 49.0781 81.9043ZM67.0973 85.6641V79.0742C67.0973 78.6003 67.0198 78.1947 66.8648 77.8574C66.7099 77.5111 66.4684 77.2422 66.1402 77.0508C65.8212 76.8594 65.4065 76.7637 64.8961 76.7637C64.4586 76.7637 64.0803 76.8411 63.7613 76.9961C63.4423 77.1419 63.1962 77.3561 63.023 77.6387C62.8499 77.9121 62.7633 78.2357 62.7633 78.6094H58.8258C58.8258 77.9805 58.9716 77.3835 59.2633 76.8184C59.5549 76.2533 59.9788 75.7565 60.5348 75.3281C61.0908 74.8906 61.7516 74.5488 62.5172 74.3027C63.2919 74.0566 64.1578 73.9336 65.1148 73.9336C66.2633 73.9336 67.2841 74.125 68.1773 74.5078C69.0706 74.8906 69.7724 75.4648 70.2828 76.2305C70.8023 76.9961 71.0621 77.9531 71.0621 79.1016V85.4316C71.0621 86.2428 71.1122 86.9082 71.2125 87.4277C71.3128 87.9382 71.4586 88.3848 71.65 88.7676V89H67.6715C67.4801 88.599 67.3342 88.0977 67.234 87.4961C67.1428 86.8854 67.0973 86.2747 67.0973 85.6641ZM67.6168 79.9902L67.6441 82.2188H65.443C64.9234 82.2188 64.4723 82.278 64.0895 82.3965C63.7066 82.515 63.3922 82.6836 63.1461 82.9023C62.9 83.112 62.7177 83.3581 62.5992 83.6406C62.4898 83.9232 62.4352 84.2331 62.4352 84.5703C62.4352 84.9076 62.5126 85.2129 62.6676 85.4863C62.8225 85.7507 63.0458 85.9603 63.3375 86.1152C63.6292 86.2611 63.971 86.334 64.3629 86.334C64.9553 86.334 65.4703 86.2155 65.9078 85.9785C66.3453 85.7415 66.6826 85.4499 66.9195 85.1035C67.1656 84.7572 67.2932 84.429 67.3023 84.1191L68.3414 85.7871C68.1956 86.1608 67.9951 86.5482 67.7398 86.9492C67.4938 87.3503 67.1793 87.7285 66.7965 88.084C66.4137 88.4303 65.9534 88.7174 65.4156 88.9453C64.8779 89.1641 64.2398 89.2734 63.5016 89.2734C62.5628 89.2734 61.7105 89.0866 60.9449 88.7129C60.1884 88.3301 59.5869 87.806 59.1402 87.1406C58.7027 86.4661 58.484 85.7005 58.484 84.8438C58.484 84.069 58.6298 83.3809 58.9215 82.7793C59.2132 82.1777 59.6415 81.6719 60.2066 81.2617C60.7809 80.8424 61.4964 80.528 62.3531 80.3184C63.2099 80.0996 64.2034 79.9902 65.3336 79.9902H67.6168ZM78.1848 77.4336V89H74.2473V74.207H77.9523L78.1848 77.4336ZM82.6418 74.1113L82.5734 77.7617C82.382 77.7344 82.1496 77.7116 81.8762 77.6934C81.6119 77.666 81.3703 77.6523 81.1516 77.6523C80.5956 77.6523 80.1125 77.7253 79.7023 77.8711C79.3013 78.0078 78.9641 78.2129 78.6906 78.4863C78.4263 78.7598 78.2258 79.0924 78.0891 79.4844C77.9615 79.8763 77.8885 80.3229 77.8703 80.8242L77.0773 80.5781C77.0773 79.6211 77.173 78.7415 77.3645 77.9395C77.5559 77.1283 77.8339 76.4219 78.1984 75.8203C78.5721 75.2188 79.0279 74.7539 79.5656 74.4258C80.1034 74.0977 80.7186 73.9336 81.4113 73.9336C81.6301 73.9336 81.8534 73.9518 82.0813 73.9883C82.3091 74.0156 82.496 74.0566 82.6418 74.1113ZM91.1863 89.2734C90.0379 89.2734 89.0079 89.0911 88.0965 88.7266C87.185 88.3529 86.4103 87.8379 85.7723 87.1816C85.1434 86.5254 84.6603 85.7643 84.323 84.8984C83.9858 84.0234 83.8172 83.0938 83.8172 82.1094V81.5625C83.8172 80.4414 83.9767 79.416 84.2957 78.4863C84.6147 77.5566 85.0704 76.75 85.6629 76.0664C86.2645 75.3828 86.9936 74.8587 87.8504 74.4941C88.7072 74.1204 89.6733 73.9336 90.7488 73.9336C91.797 73.9336 92.7267 74.1068 93.5379 74.4531C94.3491 74.7995 95.0281 75.2917 95.575 75.9297C96.131 76.5677 96.5503 77.3333 96.8328 78.2266C97.1154 79.1107 97.2566 80.0951 97.2566 81.1797V82.8203H85.4988V80.1953H93.3875V79.8945C93.3875 79.3477 93.2872 78.86 93.0867 78.4316C92.8953 77.9941 92.6036 77.6478 92.2117 77.3926C91.8198 77.1374 91.3185 77.0098 90.7078 77.0098C90.1883 77.0098 89.7417 77.1237 89.368 77.3516C88.9943 77.5794 88.6889 77.8984 88.452 78.3086C88.2241 78.7188 88.0509 79.2018 87.9324 79.7578C87.823 80.3047 87.7684 80.9062 87.7684 81.5625V82.1094C87.7684 82.7018 87.8504 83.2487 88.0145 83.75C88.1876 84.2513 88.4292 84.6842 88.7391 85.0488C89.0581 85.4134 89.4409 85.696 89.8875 85.8965C90.3432 86.097 90.8582 86.1973 91.4324 86.1973C92.1434 86.1973 92.8042 86.0605 93.4148 85.7871C94.0346 85.5046 94.5678 85.0807 95.0145 84.5156L96.9285 86.5938C96.6186 87.0404 96.1948 87.4688 95.657 87.8789C95.1284 88.2891 94.4904 88.6263 93.743 88.8906C92.9956 89.1458 92.1434 89.2734 91.1863 89.2734ZM103.504 77.3652V89H99.5668V74.207H103.258L103.504 77.3652ZM102.93 81.084H101.864C101.864 79.9902 102.005 79.0059 102.287 78.1309C102.57 77.2467 102.967 76.4948 103.477 75.875C103.987 75.2461 104.593 74.7676 105.295 74.4395C106.006 74.1022 106.799 73.9336 107.674 73.9336C108.367 73.9336 109 74.0339 109.575 74.2344C110.149 74.4349 110.641 74.7539 111.051 75.1914C111.47 75.6289 111.789 76.2077 112.008 76.9277C112.236 77.6478 112.35 78.5273 112.35 79.5664V89H108.385V79.5527C108.385 78.8965 108.294 78.3861 108.112 78.0215C107.929 77.6569 107.661 77.4017 107.305 77.2559C106.959 77.1009 106.53 77.0234 106.02 77.0234C105.491 77.0234 105.031 77.1283 104.639 77.3379C104.256 77.5475 103.937 77.8392 103.682 78.2129C103.436 78.5775 103.249 79.0059 103.121 79.498C102.994 79.9902 102.93 80.5189 102.93 81.084ZM122.74 74.207V76.9961H114.127V74.207H122.74ZM116.26 70.5566H120.197V84.543C120.197 84.9714 120.252 85.2995 120.361 85.5273C120.48 85.7552 120.653 85.9147 120.881 86.0059C121.109 86.0879 121.396 86.1289 121.742 86.1289C121.988 86.1289 122.207 86.1198 122.398 86.1016C122.599 86.0742 122.768 86.0469 122.904 86.0195L122.918 88.918C122.581 89.0273 122.216 89.1139 121.824 89.1777C121.432 89.2415 120.999 89.2734 120.525 89.2734C119.66 89.2734 118.903 89.1322 118.256 88.8496C117.618 88.5579 117.126 88.0931 116.779 87.4551C116.433 86.8171 116.26 85.9785 116.26 84.9395V70.5566Z" fill="white"/>
</svg>
